{
.formatVersion = 3;
axes = (
{
name = Weight;
tag = wght;
}
);
classes = (
{
code = "parenleft parenright A O a o Lcommaaccent lcommaaccent Ncommaaccent ncommaaccent Scedilla scedilla Tcedilla tcedilla commaaccentcomb tonos Decyr Elcyr Efcyr becyr vecyr gecyr decyr zhecyr zecyr icyr ishortcyr kacyr elcyr pecyr tecyr tsecyr shacyr shchacyr hardcyr softcyr yucyr koronis lenis tilde-gr dieresistilde lenisgrave lenisacute lenistilde aspergrave asperacute aspertilde dieresisgrave dieresisacute grave-gr acute-gr asper";
name = aalt;
},
{
code = "parenleft.inferior parenright.inferior ordfeminine ordmasculine ordfeminine ordmasculine Lcommaaccent.loclMAH lcommaaccent.loclMAH Ncommaaccent.loclMAH ncommaaccent.loclMAH Scommaaccent scommaaccent Tcommaaccent tcommaaccent commaaccentcomb.loclMAH tonos.case DeCy.loclBGR ElCy.loclBGR EfCy.loclBGR beCy.loclSRB veCy.loclBGR geCy.loclBGR deCy.loclBGR zheCy.loclBGR zeCy.loclBGR iiCy.loclBGR iishortCy.loclBGR kaCy.loclBGR elCy.loclBGR peCy.loclBGR teCy.loclBGR tseCy.loclBGR shaCy.loclBGR shchaCy.loclBGR hardsignCy.loclBGR softsignCy.loclBGR yucyr.loclBGR koronis.case lenis.case tilde-gr.case dieresistilde.case lenisgrave.case lenisacute.case lenistilde.case aspergrave.case asperacute.case aspertilde.case dieresisgrave.case dieresisacute.case grave-gr.case acute-gr.case asper.case";
name = aalt2;
},
{
code = "tonos koronis lenis tilde-gr dieresistilde lenisgrave lenisacute lenistilde aspergrave asperacute aspertilde dieresisgrave dieresisacute grave-gr acute-gr asper";
name = case_ccmp;
},
{
code = "tonos.case koronis.case lenis.case tilde-gr.case dieresistilde.case lenisgrave.case lenisacute.case lenistilde.case aspergrave.case asperacute.case aspertilde.case dieresisgrave.case dieresisacute.case grave-gr.case acute-gr.case asper.case";
name = case_ccmp2;
},
{
code = "i j tonos koronis lenis tilde-gr dieresistilde lenisgrave lenisacute lenistilde aspergrave asperacute aspertilde dieresisgrave dieresisacute grave-gr acute-gr asper";

glyphs = (
{
glyphname = A;
layers = (
{
layerId = "0D856A57-F1E8-4B9B-A293-C2F37DF93F32";
shapes = (
{
closed = 1;
nodes = (
(-20,0,l),
(19,0,l),
(150,217,l),
(502,217,l),
(546,0,l),
(585,0,l),
(447,699,l),
(397,699,l)
);
},
{
closed = 1;
nodes = (
(172,255,l),
(414,656,l),
(495,255,l)
);
}
);
width = 684;
},
{
layerId = "4DCA89B8-DFE6-4DD8-9DE5-D8A3D5DAECAB";
shapes = (
{
closed = 1;
nodes = (
(-28,0,l),
(46,0,l),
(157,190,l),
(495,190,l),
(529,0,l),
(604,0,l),
(475,700,l),
(380,700,l)
);
},
{
closed = 1;
nodes = (
(195,256,l),
(415,632,l),
(483,256,l)
);
}
);
width = 695;
},
{
layerId = "5704134F-6EB5-4790-9409-A43A14941BD5";
shapes = (
{
closed = 1;
nodes = (
(-52,0,l),
(129,0,l),
(192,110,l),
(462,110,l),
(480,0,l),
(663,0,l),
(533,703,l),
(359,703,l)
);
},
{
closed = 1;
nodes = (
(269,245,l),
(400,478,l),
(439,245,l)
);
}
);
width = 730;
}
);
unicode = 65;
},
{
glyphname = AE;
layers = (
{
layerId = "0D856A57-F1E8-4B9B-A293-C2F37DF93F32";
shapes = (
{
closed = 1;
nodes = (
(-21,0,l),
(25,0,l),
(203,199,l),
(505,199,l),
(465,0,l),
(879,0,l),
(886,35,l),
(510,35,l),
(571,336,l),
(916,336,l),
(923,371,l),
(578,371,l),
(636,664,l),
(1011,664,l),
(1018,699,l),
(604,699,l)
);
},
{
closed = 1;
nodes = (
(512,234,l),
(235,234,l),
(592,634,l)
);
}
);
width = 977;
},
{
layerId = "4DCA89B8-DFE6-4DD8-9DE5-D8A3D5DAECAB";
shapes = (
{
closed = 1;
nodes = (
(-28,0,l),
(53,0,l),
(213,190,l),
(484,190,l),
(446,0,l),
(882,0,l),
(895,66,l),
(532,66,l),
(583,321,l),
(917,321,l),
(930,387,l),
(596,387,l),
(645,634,l),
(1009,634,l),
(1022,700,l),
(559,700,l)
);
},
{
closed = 1;
nodes = (
(497,256,l),
(267,256,l),
(569,617,l)
);
}
);
width = 978;
},
{
layerId = "5704134F-6EB5-4790-9409-A43A14941BD5";
shapes = (
{
closed = 1;
nodes = (
(-57,0,l),
(130,0,l),
(243,170,l),
(425,170,l),
(391,0,l),
(893,0,l),
(921,136,l),
(594,136,l),
(625,288,l),
(924,288,l),
(951,423,l),
(652,423,l),
(681,569,l),
(1007,569,l),
(1034,703,l),
(414,703,l)
);
},
{
closed = 1;
nodes = (
(452,306,l),
(334,306,l),
(502,558,l)
);
}
);
width = 981;
}
);
unicode = 198;
},
{
glyphname = AEmacron;
layers = (
{
layerId = "0D856A57-F1E8-4B9B-A293-C2F37DF93F32";
shapes = (
{
closed = 1;
nodes = (
(-21,0,l),
(25,0,l),
(203,199,l),
(505,199,l),
(465,0,l),
(879,0,l),
(886,35,l),
(510,35,l),
(571,336,l),
(916,336,l),
(923,371,l),
(578,371,l),
(636,664,l),
(1011,664,l),
(1018,699,l),
(604,699,l)
);
},
{
closed = 1;
nodes = (
(512,234,l),
(235,234,l),
(592,634,l)
);
},
{
closed = 1;
nodes = (
(552,841,l),
(830,841,l),
(839,887,l),
(561,887,l)
);
}
);
width = 977;
},
{
layerId = "4DCA89B8-DFE6-4DD8-9DE5-D8A3D5DAECAB";
shapes = (
{
closed = 1;
nodes = (
(-28,0,l),
(53,0,l),
(213,190,l),
(484,190,l),
(446,0,l),
(882,0,l),
(895,66,l),
(532,66,l),
(583,321,l),
(917,321,l),
(930,387,l),
(596,387,l),
(645,634,l),
(1009,634,l),
(1022,700,l),
(559,700,l)
);
},
{
closed = 1;
nodes = (
(497,256,l),
(267,256,l),
(569,617,l)
);
},
{
closed = 1;
nodes = (
(543,818,l),
(838,818,l),
(850,877,l),
(555,877,l)
);
}
);
width = 978;
},
{
layerId = "5704134F-6EB5-4790-9409-A43A14941BD5";
shapes = (
{
closed = 1;
nodes = (
(-57,0,l),
(130,0,l),
(243,170,l),
(425,170,l),
(391,0,l),
(893,0,l),
(921,136,l),
(594,136,l),
(625,288,l),
(924,288,l),
(951,423,l),
(652,423,l),
(681,569,l),
(1007,569,l),
(1034,703,l),
(414,703,l)
);
},
{
closed = 1;
nodes = (
(452,306,l),
(334,306,l),
(502,558,l)
);
},
{
closed = 1;
nodes = (
(519,749,l),
(865,749,l),
(884,847,l),
(538,847,l)
);
}
);
width = 981;
}
);
unicode = 482;
},
{
glyphname = Aacute;
layers = (
{
layerId = "0D856A57-F1E8-4B9B-A293-C2F37DF93F32";
shapes = (
{
closed = 1;
nodes = (
(-20,0,l),
(19,0,l),
(150,217,l),
(502,217,l),
(546,0,l),
(585,0,l),
(447,699,l),
(397,699,l)
);
},
{
closed = 1;
nodes = (
(172,255,l),
(414,656,l),
(495,255,l)
);
},
{
closed = 1;
nodes = (
(498,900,l),
(387,789,l),
(423,789,l),
(554,900,l)
);
}
);
width = 684;
},
{
layerId = "4DCA89B8-DFE6-4DD8-9DE5-D8A3D5DAECAB";
shapes = (
{
closed = 1;
nodes = (
(-28,0,l),
(46,0,l),
(157,190,l),
(495,190,l),
(529,0,l),
(604,0,l),
(475,700,l),
(380,700,l)
);
},
{
closed = 1;
nodes = (
(195,256,l),
(415,632,l),
(483,256,l)
);
},
{
closed = 1;
nodes = (
(499,898,l),
(389,778,l),
(448,778,l),
(590,898,l)
);
}
);
width = 695;
},
{
layerId = "5704134F-6EB5-4790-9409-A43A14941BD5";
shapes = (
{
closed = 1;
nodes = (
(-52,0,l),
(129,0,l),
(192,110,l),
(462,110,l),
(480,0,l),
(663,0,l),
(533,703,l),
(359,703,l)
);
},
{
closed = 1;
nodes = (
(269,245,l),
(400,478,l),
(439,245,l)
);
},
{
closed = 1;
nodes = (
(505,893,l),
(399,746,l),
(526,746,l),
(703,893,l)
);
}
);
width = 730;
}
);
unicode = 193;
},
{
glyphname = Abreveacute;
layers = (
{
layerId = "0D856A57-F1E8-4B9B-A293-C2F37DF93F32";
shapes = (
{
closed = 1;
nodes = (
(-20,0,l),
(19,0,l),
(150,217,l),
(502,217,l),
(546,0,l),
(585,0,l),
(447,699,l),
(397,699,l)
);
},
{
closed = 1;
nodes = (
(172,255,l),
(414,656,l),
(495,255,l)
);
},
{
closed = 1;
nodes = (
(498,810,o),
(557,857,o),
(569,919,c),
(542,919,l),
(536,880,o),
(489,847,o),
(447,847,cs),
(403,847,o),
(370,880,o),
(379,919,c),
(353,919,l),
(341,857,o),
(381,810,o),
(440,810,cs)
);
},
{
closed = 1;
nodes = (
(551,1040,l),
(440,929,l),
(476,929,l),
(607,1040,l)
);
}
);
width = 684;
},
{
layerId = "4DCA89B8-DFE6-4DD8-9DE5-D8A3D5DAECAB";
shapes = (
{
closed = 1;
nodes = (
(-28,0,l),
(46,0,l),
(157,190,l),
(495,190,l),
(529,0,l),
(604,0,l),
(475,700,l),
(380,700,l)
);
},
{
closed = 1;
nodes = (
(195,256,l),
(415,632,l),
(483,256,l)
);
},
{
closed = 1;
nodes = (
(514,788,o),
(578,841,o),
(591,908,c),
(541,908,l),
(534,872,o),
(496,842,o),
(457,842,cs),
(417,842,o),
(390,872,o),
(397,908,c),
(347,908,l),
(334,841,o),
(377,788,o),
(446,788,cs)
);
},
{
closed = 1;
nodes = (
(541,1056,l),
(430,936,l),
(489,936,l),
(632,1056,l)
);
}
);
width = 695;
},
{
layerId = "5704134F-6EB5-4790-9409-A43A14941BD5";
shapes = (
{
closed = 1;
nodes = (
(-52,0,l),
(129,0,l),
(192,110,l),
(462,110,l),
(480,0,l),
(663,0,l),
(533,703,l),
(359,703,l)
);
},
{
closed = 1;
nodes = (
(269,245,l),
(400,478,l),
(439,245,l)
);
},
{
closed = 1;
nodes = (
(563,722,o),
(643,794,o),
(659,875,c),
(540,875,l),
(530,848,o),
(515,827,o),
(487,827,cs),
(459,827,o),
(451,848,o),
(452,875,c),
(332,875,l),
(316,794,o),
(367,722,o),
(466,722,cs)
);
},
{
closed = 1;
nodes = (
(508,1106,l),
(402,959,l),
(529,959,l),
(706,1106,l)
);
}
);
width = 730;
}
);
unicode = 7854;
},
{
glyphname = Abrevecyr;
layers = (
{
layerId = "0D856A57-F1E8-4B9B-A293-C2F37DF93F32";
shapes = (
{
closed = 1;
nodes = (
(-20,0,l),
(19,0,l),
(150,217,l),
(502,217,l),
(546,0,l),
(585,0,l),
(447,699,l),
(397,699,l)
);
},
{
closed = 1;
nodes = (
(172,255,l),
(414,656,l),
(495,255,l)
);
},
{
closed = 1;
nodes = (
(491,748,o),
(551,795,o),
(563,857,c),
(535,857,l),
(529,818,o),
(483,785,o),
(441,785,cs),
(397,785,o),
(364,818,o),
(373,857,c),
(346,857,l),
(334,795,o),
(374,748,o),
(433,748,cs)
);
}
);
width = 684;
},
{
layerId = "4DCA89B8-DFE6-4DD8-9DE5-D8A3D5DAECAB";
shapes = (
{
closed = 1;
nodes = (
(-28,0,l),
(46,0,l),
(157,190,l),
(495,190,l),
(529,0,l),
(604,0,l),
(475,700,l),
(380,700,l)
);
},
{
closed = 1;
nodes = (
(195,256,l),
(415,632,l),
(483,256,l)
);
},
{
closed = 1;
nodes = (
(504,740,o),
(569,793,o),
(582,860,c),
(532,860,l),
(525,824,o),
(486,794,o),
(447,794,cs),
(407,794,o),
(381,824,o),
(388,860,c),
(338,860,l),
(325,793,o),
(367,740,o),
(436,740,cs)
);
}
);
width = 695;
},
{
layerId = "5704134F-6EB5-4790-9409-A43A14941BD5";
shapes = (
{
closed = 1;
nodes = (
(-52,0,l),
(129,0,l),
(192,110,l),
(462,110,l),
(480,0,l),
(663,0,l),
(533,703,l),
(359,703,l)
);
},
{
closed = 1;
nodes = (
(269,245,l),
(400,478,l),
(439,245,l)
);
},
{
closed = 1;
nodes = (
(545,718,o),
(626,790,o),
(642,871,c),
(522,871,l),
(512,844,o),
(497,823,o),
(469,823,cs),
(441,823,o),
(434,844,o),
(435,871,c),
(314,871,l),
(298,790,o),
(349,718,o),
(448,718,cs)
);
}
);
width = 730;
}
);
unicode = 1232;
},
{
glyphname = Abrevedotbelow;
layers = (
{
layerId = "0D856A57-F1E8-4B9B-A293-C2F37DF93F32";
shapes = (
{
closed = 1;
nodes = (
(-20,0,l),
(19,0,l),
(150,217,l),
(502,217,l),
(546,0,l),
(585,0,l),
(447,699,l),
(397,699,l)
);
},
{
closed = 1;
nodes = (
(172,255,l),
(414,656,l),
(495,255,l)
);
},
{
closed = 1;
nodes = (
(288,-118,l),
(300,-55,l),
(244,-55,l),
(232,-118,l)
);
},
{
closed = 1;
nodes = (
(498,810,o),
(557,857,o),
(569,919,c),
(542,919,l),
(536,880,o),
(489,847,o),
(447,847,cs),
(403,847,o),
(370,880,o),
(379,919,c),
(353,919,l),
(341,857,o),
(381,810,o),
(440,810,cs)
);
}
);
width = 684;
},
{
layerId = "4DCA89B8-DFE6-4DD8-9DE5-D8A3D5DAECAB";
shapes = (
{
closed = 1;
nodes = (
(-28,0,l),
(46,0,l),
(157,190,l),
(495,190,l),
(529,0,l),
(604,0,l),
(475,700,l),
(380,700,l)
);
},
{
closed = 1;
nodes = (
(195,256,l),
(415,632,l),
(483,256,l)
);
},
{
closed = 1;
nodes = (
(304,-145,l),
(321,-60,l),
(231,-60,l),
(214,-145,l)
);
},
{
closed = 1;
nodes = (
(514,788,o),
(578,841,o),
(591,908,c),
(541,908,l),
(534,872,o),
(496,842,o),
(457,842,cs),
(417,842,o),
(390,872,o),
(397,908,c),
(347,908,l),
(334,841,o),
(377,788,o),
(446,788,cs)
);
}
);
width = 695;
},
{
layerId = "5704134F-6EB5-4790-9409-A43A14941BD5";
shapes = (
{
closed = 1;
nodes = (
(-52,0,l),
(129,0,l),
(192,110,l),
(462,110,l),
(480,0,l),
(663,0,l),
(533,703,l),
(359,703,l)
);
},
{
closed = 1;
nodes = (
(269,245,l),
(400,478,l),
(439,245,l)
);
},
{
closed = 1;
nodes = (
(353,-228,l),
(384,-76,l),
(194,-76,l),
(163,-228,l)
);
},
{
closed = 1;
nodes = (
(563,722,o),
(643,794,o),
(659,875,c),
(540,875,l),
(530,848,o),
(515,827,o),
(487,827,cs),
(459,827,o),
(451,848,o),
(452,875,c),
(332,875,l),
(316,794,o),
(367,722,o),
(466,722,cs)
);
}
);
width = 730;
}
);
unicode = 7862;
},
{
glyphname = Abrevegrave;
layers = (
{
layerId = "0D856A57-F1E8-4B9B-A293-C2F37DF93F32";
shapes = (
{
closed = 1;
nodes = (
(-20,0,l),
(19,0,l),
(150,217,l),
(502,217,l),
(546,0,l),
(585,0,l),
(447,699,l),
(397,699,l)
);
},
{
closed = 1;
nodes = (
(172,255,l),
(414,656,l),
(495,255,l)
);
},
{
closed = 1;
nodes = (
(498,810,o),
(557,857,o),
(569,919,c),
(542,919,l),
(536,880,o),
(489,847,o),
(447,847,cs),
(403,847,o),
(370,880,o),
(379,919,c),
(353,919,l),
(341,857,o),
(381,810,o),
(440,810,cs)
);
},
{
closed = 1;
nodes = (
(442,929,l),
(479,929,l),
(411,1040,l),
(355,1040,l)
);
}
);
width = 684;
},
{
layerId = "4DCA89B8-DFE6-4DD8-9DE5-D8A3D5DAECAB";
shapes = (
{
closed = 1;
nodes = (
(-28,0,l),
(46,0,l),
(157,190,l),
(495,190,l),
(529,0,l),
(604,0,l),
(475,700,l),
(380,700,l)
);
},
{
closed = 1;
nodes = (
(195,256,l),
(415,632,l),
(483,256,l)
);
},
{
closed = 1;
nodes = (
(514,788,o),
(578,841,o),
(591,908,c),
(541,908,l),
(534,872,o),
(496,842,o),
(457,842,cs),
(417,842,o),
(390,872,o),
(397,908,c),
(347,908,l),
(334,841,o),
(377,788,o),
(446,788,cs)
);
},
{
closed = 1;
nodes = (
(444,936,l),
(503,936,l),
(441,1056,l),
(349,1056,l)
);
}
);
width = 695;
},
{
layerId = "5704134F-6EB5-4790-9409-A43A14941BD5";
shapes = (
{
closed = 1;
nodes = (
(-52,0,l),
(129,0,l),
(192,110,l),
(462,110,l),
(480,0,l),
(663,0,l),
(533,703,l),
(359,703,l)
);
},
{
closed = 1;
nodes = (
(269,245,l),
(400,478,l),
(439,245,l)
);
},
{
closed = 1;
nodes = (
(563,722,o),
(643,794,o),
(659,875,c),
(540,875,l),
(530,848,o),
(515,827,o),
(487,827,cs),
(459,827,o),
(451,848,o),
(452,875,c),
(332,875,l),
(316,794,o),
(367,722,o),
(466,722,cs)
);
},
{
closed = 1;
nodes = (
(450,959,l),
(576,959,l),
(530,1106,l),
(332,1106,l)
);
}
);
width = 730;
}
);
unicode = 7856;
},
{
glyphname = Acaron;
layers = (
{
layerId = "0D856A57-F1E8-4B9B-A293-C2F37DF93F32";
shapes = (
{
closed = 1;
nodes = (
(-20,0,l),
(19,0,l),
(150,217,l),
(502,217,l),
(546,0,l),
(585,0,l),
(447,699,l),
(397,699,l)
);
},
{
closed = 1;
nodes = (
(172,255,l),
(414,656,l),
(495,255,l)
);
},
{
closed = 1;
nodes = (
(575,919,l),
(537,919,l),
(436,847,l),
(364,919,l),
(325,919,l),
(408,810,l),
(449,810,l)
);
}
);
width = 684;
},
{
layerId = "4DCA89B8-DFE6-4DD8-9DE5-D8A3D5DAECAB";
shapes = (
{
closed = 1;
nodes = (
(-28,0,l),
(46,0,l),
(157,190,l),
(495,190,l),
(529,0,l),
(604,0,l),
(475,700,l),
(380,700,l)
);
},
{
closed = 1;
nodes = (
(195,256,l),
(415,632,l),
(483,256,l)
);
},
{
closed = 1;
nodes = (
(611,908,l),
(547,908,l),
(457,843,l),
(391,908,l),
(328,908,l),
(418,788,l),
(472,788,l)
);
}
);
width = 695;
},
{
layerId = "5704134F-6EB5-4790-9409-A43A14941BD5";
shapes = (
{
closed = 1;
nodes = (
(-52,0,l),
(129,0,l),
(192,110,l),
(462,110,l),
(480,0,l),
(663,0,l),
(533,703,l),
(359,703,l)
);
},
{
closed = 1;
nodes = (
(269,245,l),
(400,478,l),
(439,245,l)
);
},
{
closed = 1;
nodes = (
(722,875,l),
(581,875,l),
(522,832,l),
(479,875,l),
(337,875,l),
(451,722,l),
(546,722,l)
);
}
);
width = 730;
}
);
unicode = 461;
},
{
glyphname = Acircumflex;
layers = (
{
layerId = "0D856A57-F1E8-4B9B-A293-C2F37DF93F32";
shapes = (
{
closed = 1;
nodes = (
(-20,0,l),
(19,0,l),
(150,217,l),
(502,217,l),
(546,0,l),
(585,0,l),
(447,699,l),
(397,699,l)
);
},
{
closed = 1;
nodes = (
(172,255,l),
(414,656,l),
(495,255,l)
);
},
{
closed = 1;
nodes = (
(442,919,l),
(315,810,l),
(354,810,l),
(455,883,l),
(527,810,l),
(565,810,l),
(482,919,l)
);
}
);
width = 684;
},
{
layerId = "4DCA89B8-DFE6-4DD8-9DE5-D8A3D5DAECAB";
shapes = (
{
closed = 1;
nodes = (
(-28,0,l),
(46,0,l),
(157,190,l),
(495,190,l),
(529,0,l),
(604,0,l),
(475,700,l),
(380,700,l)
);
},
{
closed = 1;
nodes = (
(195,256,l),
(415,632,l),
(483,256,l)
);
},
{
closed = 1;
nodes = (
(442,908,l),
(304,788,l),
(367,788,l),
(459,853,l),
(523,788,l),
(587,788,l),
(496,908,l)
);
}
);
width = 695;
},
{
layerId = "5704134F-6EB5-4790-9409-A43A14941BD5";
shapes = (
{
closed = 1;
nodes = (
(-52,0,l),
(129,0,l),
(192,110,l),
(462,110,l),
(480,0,l),
(663,0,l),
(533,703,l),
(359,703,l)
);
},
{
closed = 1;
nodes = (
(269,245,l),
(400,478,l),
(439,245,l)
);
},
{
closed = 1;
nodes = (
(444,875,l),
(269,722,l),
(411,722,l),
(471,764,l),
(513,722,l),
(654,722,l),
(540,875,l)
);
}
);
width = 730;
}
);
unicode = 194;
},
{
glyphname = Acircumflexacute;
layers = (
{
layerId = "0D856A57-F1E8-4B9B-A293-C2F37DF93F32";
shapes = (
{
closed = 1;
nodes = (
(-20,0,l),
(19,0,l),
(150,217,l),
(502,217,l),
(546,0,l),
(585,0,l),
(447,699,l),
(397,699,l)
);
},
{
closed = 1;
nodes = (
(172,255,l),
(414,656,l),
(495,255,l)
);
},
{
closed = 1;
nodes = (
(442,919,l),
(315,810,l),
(354,810,l),
(455,883,l),
(527,810,l),
(565,810,l),
(482,919,l)
);
},
{
closed = 1;
nodes = (
(544,1070,l),
(432,959,l),
(469,959,l),
(600,1070,l)
);
}
);
width = 684;
},
{
layerId = "4DCA89B8-DFE6-4DD8-9DE5-D8A3D5DAECAB";
shapes = (
{
closed = 1;
nodes = (
(-28,0,l),
(46,0,l),
(157,190,l),
(495,190,l),
(529,0,l),
(604,0,l),
(475,700,l),
(380,700,l)
);
},
{
closed = 1;
nodes = (
(195,256,l),
(415,632,l),
(483,256,l)
);
},
{
closed = 1;
nodes = (
(442,908,l),
(304,788,l),
(367,788,l),
(459,853,l),
(523,788,l),
(587,788,l),
(496,908,l)
);
},
{
closed = 1;
nodes = (
(535,1076,l),
(425,956,l),
(483,956,l),
(626,1076,l)
);
}
);
width = 695;
},
{
layerId = "5704134F-6EB5-4790-9409-A43A14941BD5";
shapes = (
{
closed = 1;
nodes = (
(-52,0,l),
(129,0,l),
(192,110,l),
(462,110,l),
(480,0,l),
(663,0,l),
(533,703,l),
(359,703,l)
);
},
{
closed = 1;
nodes = (
(269,245,l),
(400,478,l),
(439,245,l)
);
},
{
closed = 1;
nodes = (
(444,875,l),
(269,722,l),
(411,722,l),
(471,764,l),
(513,722,l),
(654,722,l),
(540,875,l)
);
},
{
closed = 1;
nodes = (
(508,1096,l),
(402,949,l),
(529,949,l),
(706,1096,l)
);
}
);
width = 730;
}
);
unicode = 7844;
},
{
glyphname = Acircumflexdotbelow;
layers = (
{
layerId = "0D856A57-F1E8-4B9B-A293-C2F37DF93F32";
shapes = (
{
closed = 1;
nodes = (
(-20,0,l),
(19,0,l),
(150,217,l),
(502,217,l),
(546,0,l),
(585,0,l),
(447,699,l),
(397,699,l)
);
},
{
closed = 1;
nodes = (
(172,255,l),
(414,656,l),
(495,255,l)
);
},
{
closed = 1;
nodes = (
(288,-118,l),
(300,-55,l),
(244,-55,l),
(232,-118,l)
);
},
{
closed = 1;
nodes = (
(442,919,l),
(315,810,l),
(354,810,l),
(455,883,l),
(527,810,l),
(565,810,l),
(482,919,l)
);
}
);
width = 684;
},
{
layerId = "4DCA89B8-DFE6-4DD8-9DE5-D8A3D5DAECAB";
shapes = (
{
closed = 1;
nodes = (
(-28,0,l),
(46,0,l),
(157,190,l),
(495,190,l),
(529,0,l),
(604,0,l),
(475,700,l),
(380,700,l)
);
},
{
closed = 1;
nodes = (
(195,256,l),
(415,632,l),
(483,256,l)
);
},
{
closed = 1;
nodes = (
(304,-145,l),
(321,-60,l),
(231,-60,l),
(214,-145,l)
);
},
{
closed = 1;
nodes = (
(442,908,l),
(304,788,l),
(367,788,l),
(459,853,l),
(523,788,l),
(587,788,l),
(496,908,l)
);
}
);
width = 695;
},
{
layerId = "5704134F-6EB5-4790-9409-A43A14941BD5";
shapes = (
{
closed = 1;
nodes = (
(-52,0,l),
(129,0,l),
(192,110,l),
(462,110,l),
(480,0,l),
(663,0,l),
(533,703,l),
(359,703,l)
);
},
{
closed = 1;
nodes = (
(269,245,l),
(400,478,l),
(439,245,l)
);
},
{
closed = 1;
nodes = (
(353,-228,l),
(384,-76,l),
(194,-76,l),
(163,-228,l)
);
},
{
closed = 1;
nodes = (
(444,875,l),
(269,722,l),
(411,722,l),
(471,764,l),
(513,722,l),
(654,722,l),
(540,875,l)
);
}
);
width = 730;
}
);
unicode = 7852;
},
{
glyphname = Acircumflexgrave;
layers = (
{
layerId = "0D856A57-F1E8-4B9B-A293-C2F37DF93F32";
shapes = (
{
closed = 1;
nodes = (
(-20,0,l),
(19,0,l),
(150,217,l),
(502,217,l),
(546,0,l),
(585,0,l),
(447,699,l),
(397,699,l)
);
},
{
closed = 1;
nodes = (
(172,255,l),
(414,656,l),
(495,255,l)
);
},
{
closed = 1;
nodes = (
(442,919,l),
(315,810,l),
(354,810,l),
(455,883,l),
(527,810,l),
(565,810,l),
(482,919,l)
);
},
{
closed = 1;
nodes = (
(434,959,l),
(472,959,l),
(404,1070,l),
(348,1070,l)
);
}
);
width = 684;
},
{
layerId = "4DCA89B8-DFE6-4DD8-9DE5-D8A3D5DAECAB";
shapes = (
{
closed = 1;
nodes = (
(-28,0,l),
(46,0,l),
(157,190,l),
(495,190,l),
(529,0,l),
(604,0,l),
(475,700,l),
(380,700,l)
);
},
{
closed = 1;
nodes = (
(195,256,l),
(415,632,l),
(483,256,l)
);
},
{
closed = 1;
nodes = (
(442,908,l),
(304,788,l),
(367,788,l),
(459,853,l),
(523,788,l),
(587,788,l),
(496,908,l)
);
},
{
closed = 1;
nodes = (
(438,956,l),
(497,956,l),
(435,1076,l),
(344,1076,l)
);
}
);
width = 695;
},
{
layerId = "5704134F-6EB5-4790-9409-A43A14941BD5";
shapes = (
{
closed = 1;
nodes = (
(-52,0,l),
(129,0,l),
(192,110,l),
(462,110,l),
(480,0,l),
(663,0,l),
(533,703,l),
(359,703,l)
);
},
{
closed = 1;
nodes = (
(269,245,l),
(400,478,l),
(439,245,l)
);
},
{
closed = 1;
nodes = (
(444,875,l),
(269,722,l),
(411,722,l),
(471,764,l),
(513,722,l),
(654,722,l),
(540,875,l)
);
},
{
closed = 1;
nodes = (
(450,949,l),
(576,949,l),
(530,1096,l),
(332,1096,l)
);
}
);
width = 730;
}
);
unicode = 7846;
},
{
glyphname = Acircumflexhoi;
layers = (
{
layerId = "0D856A57-F1E8-4B9B-A293-C2F37DF93F32";
shapes = (
{
closed = 1;
nodes = (
(-20,0,l),
(19,0,l),
(150,217,l),
(502,217,l),
(546,0,l),
(585,0,l),
(447,699,l),
(397,699,l)
);
},
{
closed = 1;
nodes = (
(172,255,l),
(414,656,l),
(495,255,l)
);
},
{
closed = 1;
nodes = (
(442,919,l),
(315,810,l),
(354,810,l),
(455,883,l),
(527,810,l),
(565,810,l),
(482,919,l)
);
},
{
closed = 1;
nodes = (
(585,1077,o),
(567,1075,o),
(535,1069,c),
(530,1046,l),
(548,1049,o),
(575,1051,o),
(593,1051,cs),
(631,1051,o),
(652,1034,o),
(647,1007,cs),
(640,972,o),
(607,960,o),
(578,959,c),
(573,932,l),
(629,934,o),
(664,968,o),
(672,1008,cs),
(681,1051,o),
(654,1077,o),
(598,1077,cs)
);
}
);
width = 684;
},
{
layerId = "4DCA89B8-DFE6-4DD8-9DE5-D8A3D5DAECAB";
shapes = (
{
closed = 1;
nodes = (
(-28,0,l),
(46,0,l),
(157,190,l),
(495,190,l),
(529,0,l),
(604,0,l),
(475,700,l),
(380,700,l)
);
},
{
closed = 1;
nodes = (
(195,256,l),
(415,632,l),
(483,256,l)
);
},
{
closed = 1;
nodes = (
(442,908,l),
(304,788,l),
(367,788,l),
(459,853,l),
(523,788,l),
(587,788,l),
(496,908,l)
);
},
{
closed = 1;
nodes = (
(477,1093,o),
(447,1089,o),
(414,1082,c),
(404,1031,l),
(432,1037,o),
(461,1041,o),
(481,1041,cs),
(513,1041,o),
(532,1029,o),
(528,1011,cs),
(524,991,o),
(496,978,o),
(457,978,c),
(447,927,l),
(519,927,o),
(571,959,o),
(581,1011,cs),
(591,1061,o),
(558,1093,o),
(494,1093,cs)
);
}
);
width = 695;
},
{
layerId = "5704134F-6EB5-4790-9409-A43A14941BD5";
shapes = (
{
closed = 1;
nodes = (
(-52,0,l),
(129,0,l),
(192,110,l),
(462,110,l),
(480,0,l),
(663,0,l),
(533,703,l),
(359,703,l)
);
},
{
closed = 1;
nodes = (
(269,245,l),
(400,478,l),
(439,245,l)
);
},
{
closed = 1;
nodes = (
(444,875,l),
(269,722,l),
(411,722,l),
(471,764,l),
(513,722,l),
(654,722,l),
(540,875,l)
);
},
{
closed = 1;
nodes = (
(455,1143,o),
(391,1133,o),
(355,1121,c),
(333,1010,l),
(390,1026,o),
(427,1036,o),
(452,1036,cs),
(460,1036,o),
(463,1030,o),
(462,1024,cs),
(458,1004,o),
(405,1007,o),
(390,1010,c),
(376,937,l),
(495,931,o),
(594,951,o),
(610,1032,cs),
(623,1096,o),
(572,1143,o),
(485,1143,cs)
);
}
);
width = 730;
}
);
unicode = 7848;
},
{
glyphname = Acyr;
layers = (
{
layerId = "0D856A57-F1E8-4B9B-A293-C2F37DF93F32";
shapes = (
{
closed = 1;
nodes = (
(-20,0,l),
(19,0,l),
(150,217,l),
(502,217,l),
(546,0,l),
(585,0,l),
(447,699,l),
(397,699,l)
);
},
{
closed = 1;
nodes = (
(172,255,l),
(414,656,l),
(495,255,l)
);
}
);
width = 684;
},
{
layerId = "4DCA89B8-DFE6-4DD8-9DE5-D8A3D5DAECAB";
shapes = (
{
closed = 1;
nodes = (
(-28,0,l),
(46,0,l),
(157,190,l),
(495,190,l),
(529,0,l),
(604,0,l),
(475,700,l),
(380,700,l)
);
},
{
closed = 1;
nodes = (
(195,256,l),
(415,632,l),
(483,256,l)
);
}
);
width = 695;
},
{
layerId = "5704134F-6EB5-4790-9409-A43A14941BD5";
shapes = (
{
closed = 1;
nodes = (
(-52,0,l),
(129,0,l),
(192,110,l),
(462,110,l),
(480,0,l),
(663,0,l),
(533,703,l),
(359,703,l)
);
},
{
closed = 1;
nodes = (
(269,245,l),
(400,478,l),
(439,245,l)
);
}
);
width = 730;
}
);
unicode = 1040;
},
{
glyphname = Adieresis;
layers = (
{
layerId = "0D856A57-F1E8-4B9B-A293-C2F37DF93F32";
shapes = (
{
closed = 1;
nodes = (
(-20,0,l),
(19,0,l),
(150,217,l),
(502,217,l),
(546,0,l),
(585,0,l),
(447,699,l),
(397,699,l)
);
},
{
closed = 1;
nodes = (
(172,255,l),
(414,656,l),
(495,255,l)
);
},
{
closed = 1;
nodes = (
(404,831,l),
(417,899,l),
(352,899,l),
(338,831,l)
);
},
{
closed = 1;
nodes = (
(558,831,l),
(571,899,l),
(506,899,l),
(492,831,l)
);
}
);
width = 684;
},
{
layerId = "4DCA89B8-DFE6-4DD8-9DE5-D8A3D5DAECAB";
shapes = (
{
closed = 1;
nodes = (
(-28,0,l),
(46,0,l),
(157,190,l),
(495,190,l),
(529,0,l),
(604,0,l),
(475,700,l),
(380,700,l)
);
},
{
closed = 1;
nodes = (
(195,256,l),
(415,632,l),
(483,256,l)
);
},
{
closed = 1;
nodes = (
(411,808,l),
(428,893,l),
(338,893,l),
(321,808,l)
);
},
{
closed = 1;
nodes = (
(578,808,l),
(595,893,l),
(506,893,l),
(489,808,l)
);
}
);
width = 695;
},
{
layerId = "5704134F-6EB5-4790-9409-A43A14941BD5";
shapes = (
{
closed = 1;
nodes = (
(-52,0,l),
(129,0,l),
(192,110,l),
(462,110,l),
(480,0,l),
(663,0,l),
(533,703,l),
(359,703,l)
);
},
{
closed = 1;
nodes = (
(269,245,l),
(400,478,l),
(439,245,l)
);
},
{
closed = 1;
nodes = (
(434,739,l),
(461,876,l),
(301,876,l),
(273,739,l)
);
},
{
closed = 1;
nodes = (
(643,739,l),
(670,876,l),
(509,876,l),
(482,739,l)
);
}
);
width = 730;
}
);
unicode = 196;
},
{
glyphname = Adieresiscyr;
layers = (
{
layerId = "0D856A57-F1E8-4B9B-A293-C2F37DF93F32";
shapes = (
{
closed = 1;
nodes = (
(-20,0,l),
(19,0,l),
(150,217,l),
(502,217,l),
(546,0,l),
(585,0,l),
(447,699,l),
(397,699,l)
);
},
{
closed = 1;
nodes = (
(172,255,l),
(414,656,l),
(495,255,l)
);
},
{
closed = 1;
nodes = (
(404,831,l),
(417,899,l),
(352,899,l),
(338,831,l)
);
},
{
closed = 1;
nodes = (
(558,831,l),
(571,899,l),
(506,899,l),
(492,831,l)
);
}
);
width = 684;
},
{
layerId = "4DCA89B8-DFE6-4DD8-9DE5-D8A3D5DAECAB";
shapes = (
{
closed = 1;
nodes = (
(-28,0,l),
(46,0,l),
(157,190,l),
(495,190,l),
(529,0,l),
(604,0,l),
(475,700,l),
(380,700,l)
);
},
{
closed = 1;
nodes = (
(195,256,l),
(415,632,l),
(483,256,l)
);
},
{
closed = 1;
nodes = (
(411,808,l),
(428,893,l),
(338,893,l),
(321,808,l)
);
},
{
closed = 1;
nodes = (
(578,808,l),
(595,893,l),
(506,893,l),
(489,808,l)
);
}
);
width = 695;
},
{
layerId = "5704134F-6EB5-4790-9409-A43A14941BD5";
shapes = (
{
closed = 1;
nodes = (
(-52,0,l),
(129,0,l),
(192,110,l),
(462,110,l),
(480,0,l),
(663,0,l),
(533,703,l),
(359,703,l)
);
},
{
closed = 1;
nodes = (
(269,245,l),
(400,478,l),
(439,245,l)
);
},
{
closed = 1;
nodes = (
(434,739,l),
(461,876,l),
(301,876,l),
(273,739,l)
);
},
{
closed = 1;
nodes = (
(643,739,l),
(670,876,l),
(509,876,l),
(482,739,l)
);
}
);
width = 730;
}
);
unicode = 1234;
},
{
glyphname = Adieresismacron;
layers = (
{
layerId = "0D856A57-F1E8-4B9B-A293-C2F37DF93F32";
shapes = (
{
closed = 1;
nodes = (
(-20,0,l),
(19,0,l),
(150,217,l),
(502,217,l),
(546,0,l),
(585,0,l),
(447,699,l),
(397,699,l)
);
},
{
closed = 1;
nodes = (
(172,255,l),
(414,656,l),
(495,255,l)
);
},
{
closed = 1;
nodes = (
(404,831,l),
(417,899,l),
(352,899,l),
(338,831,l)
);
},
{
closed = 1;
nodes = (
(558,831,l),
(571,899,l),
(506,899,l),
(492,831,l)
);
},
{
closed = 1;
nodes = (
(362,1041,l),
(641,1041,l),
(650,1087,l),
(372,1087,l)
);
}
);
width = 684;
},
{
layerId = "4DCA89B8-DFE6-4DD8-9DE5-D8A3D5DAECAB";
shapes = (
{
closed = 1;
nodes = (
(-28,0,l),
(46,0,l),
(157,190,l),
(495,190,l),
(529,0,l),
(604,0,l),
(475,700,l),
(380,700,l)
);
},
{
closed = 1;
nodes = (
(195,256,l),
(415,632,l),
(483,256,l)
);
},
{
closed = 1;
nodes = (
(411,808,l),
(428,893,l),
(338,893,l),
(321,808,l)
);
},
{
closed = 1;
nodes = (
(578,808,l),
(595,893,l),
(506,893,l),
(489,808,l)
);
},
{
closed = 1;
nodes = (
(342,1011,l),
(637,1011,l),
(649,1070,l),
(354,1070,l)
);
}
);
width = 695;
},
{
layerId = "5704134F-6EB5-4790-9409-A43A14941BD5";
shapes = (
{
closed = 1;
nodes = (
(-52,0,l),
(129,0,l),
(192,110,l),
(462,110,l),
(480,0,l),
(663,0,l),
(533,703,l),
(359,703,l)
);
},
{
closed = 1;
nodes = (
(269,245,l),
(400,478,l),
(439,245,l)
);
},
{
closed = 1;
nodes = (
(434,739,l),
(461,876,l),
(301,876,l),
(273,739,l)
);
},
{
closed = 1;
nodes = (
(643,739,l),
(670,876,l),
(509,876,l),
(482,739,l)
);
},
{
closed = 1;
nodes = (
(284,922,l),
(630,922,l),
(650,1020,l),
(304,1020,l)
);
}
);
width = 730;
}
);
unicode = 478;
},
{
glyphname = Adotbelow;
layers = (
{
layerId = "0D856A57-F1E8-4B9B-A293-C2F37DF93F32";
shapes = (
{
closed = 1;
nodes = (
(-20,0,l),
(19,0,l),
(150,217,l),
(502,217,l),
(546,0,l),
(585,0,l),
(447,699,l),
(397,699,l)
);
},
{
closed = 1;
nodes = (
(172,255,l),
(414,656,l),
(495,255,l)
);
},
{
closed = 1;
nodes = (
(288,-118,l),
(300,-55,l),
(244,-55,l),
(232,-118,l)
);
}
);
width = 684;
},
{
layerId = "4DCA89B8-DFE6-4DD8-9DE5-D8A3D5DAECAB";
shapes = (
{
closed = 1;
nodes = (
(-28,0,l),
(46,0,l),
(157,190,l),
(495,190,l),
(529,0,l),
(604,0,l),
(475,700,l),
(380,700,l)
);
},
{
closed = 1;
nodes = (
(195,256,l),
(415,632,l),
(483,256,l)
);
},
{
closed = 1;
nodes = (
(304,-145,l),
(321,-60,l),
(231,-60,l),
(214,-145,l)
);
}
);
width = 695;
},
{
layerId = "5704134F-6EB5-4790-9409-A43A14941BD5";
shapes = (
{
closed = 1;
nodes = (
(-52,0,l),
(129,0,l),
(192,110,l),
(462,110,l),
(480,0,l),
(663,0,l),
(533,703,l),
(359,703,l)
);
},
{
closed = 1;
nodes = (
(269,245,l),
(400,478,l),
(439,245,l)
);
},
{
closed = 1;
nodes = (
(353,-228,l),
(384,-76,l),
(194,-76,l),
(163,-228,l)
);
}
);
width = 730;
}
);
unicode = 7840;
},
{
glyphname = Agrave;
layers = (
{
layerId = "0D856A57-F1E8-4B9B-A293-C2F37DF93F32";
shapes = (
{
closed = 1;
nodes = (
(-20,0,l),
(19,0,l),
(150,217,l),
(502,217,l),
(546,0,l),
(585,0,l),
(447,699,l),
(397,699,l)
);
},
{
closed = 1;
nodes = (
(172,255,l),
(414,656,l),
(495,255,l)
);
},
{
closed = 1;
nodes = (
(389,789,l),
(426,789,l),
(358,900,l),
(302,900,l)
);
}
);
width = 684;
},
{
layerId = "4DCA89B8-DFE6-4DD8-9DE5-D8A3D5DAECAB";
shapes = (
{
closed = 1;
nodes = (
(-28,0,l),
(46,0,l),
(157,190,l),
(495,190,l),
(529,0,l),
(604,0,l),
(475,700,l),
(380,700,l)
);
},
{
closed = 1;
nodes = (
(195,256,l),
(415,632,l),
(483,256,l)
);
},
{
closed = 1;
nodes = (
(403,778,l),
(461,778,l),
(399,898,l),
(308,898,l)
);
}
);
width = 695;
},
{
layerId = "5704134F-6EB5-4790-9409-A43A14941BD5";
shapes = (
{
closed = 1;
nodes = (
(-52,0,l),
(129,0,l),
(192,110,l),
(462,110,l),
(480,0,l),
(663,0,l),
(533,703,l),
(359,703,l)
);
},
{
closed = 1;
nodes = (
(269,245,l),
(400,478,l),
(439,245,l)
);
},
{
closed = 1;
nodes = (
(447,746,l),
(573,746,l),
(526,893,l),
(329,893,l)
);
}
);
width = 730;
}
);
unicode = 192;
},
{
glyphname = Ahoi;
layers = (
{
layerId = "0D856A57-F1E8-4B9B-A293-C2F37DF93F32";
shapes = (
{
closed = 1;
nodes = (
(-20,0,l),
(19,0,l),
(150,217,l),
(502,217,l),
(546,0,l),
(585,0,l),
(447,699,l),
(397,699,l)
);
},
{
closed = 1;
nodes = (
(172,255,l),
(414,656,l),
(495,255,l)
);
},
{
closed = 1;
nodes = (
(450,907,o),
(432,905,o),
(400,899,c),
(395,876,l),
(413,879,o),
(440,881,o),
(458,881,cs),
(496,881,o),
(517,864,o),
(512,837,cs),
(505,802,o),
(472,790,o),
(443,789,c),
(438,762,l),
(494,764,o),
(530,798,o),
(538,838,cs),
(547,881,o),
(519,907,o),
(463,907,cs)
);
}
);
width = 684;
},
{
layerId = "4DCA89B8-DFE6-4DD8-9DE5-D8A3D5DAECAB";
shapes = (
{
closed = 1;
nodes = (
(-28,0,l),
(46,0,l),
(157,190,l),
(495,190,l),
(529,0,l),
(604,0,l),
(475,700,l),
(380,700,l)
);
},
{
closed = 1;
nodes = (
(195,256,l),
(415,632,l),
(483,256,l)
);
},
{
closed = 1;
nodes = (
(441,915,o),
(412,911,o),
(379,904,c),
(369,853,l),
(397,859,o),
(425,863,o),
(445,863,cs),
(477,863,o),
(496,851,o),
(492,833,cs),
(488,813,o),
(461,800,o),
(422,800,c),
(412,749,l),
(484,749,o),
(535,781,o),
(545,833,cs),
(555,883,o),
(522,915,o),
(458,915,cs)
);
}
);
width = 695;
},
{
layerId = "5704134F-6EB5-4790-9409-A43A14941BD5";
shapes = (
{
closed = 1;
nodes = (
(-52,0,l),
(129,0,l),
(192,110,l),
(462,110,l),
(480,0,l),
(663,0,l),
(533,703,l),
(359,703,l)
);
},
{
closed = 1;
nodes = (
(269,245,l),
(400,478,l),
(439,245,l)
);
},
{
closed = 1;
nodes = (
(452,941,o),
(388,931,o),
(352,919,c),
(330,808,l),
(387,824,o),
(424,834,o),
(449,834,cs),
(457,834,o),
(460,828,o),
(459,822,cs),
(455,802,o),
(402,805,o),
(387,808,c),
(372,735,l),
(491,729,o),
(591,749,o),
(607,830,cs),
(620,894,o),
(569,941,o),
(482,941,cs)
);
}
);
width = 730;
}
);
unicode = 7842;
},
{
glyphname = Aiecyr;
layers = (
{
layerId = "0D856A57-F1E8-4B9B-A293-C2F37DF93F32";
shapes = (
{
closed = 1;
nodes = (
(-21,0,l),
(25,0,l),
(203,199,l),
(505,199,l),
(465,0,l),
(879,0,l),
(886,35,l),
(510,35,l),
(571,336,l),
(916,336,l),
(923,371,l),
(578,371,l),
(636,664,l),
(1011,664,l),
(1018,699,l),
(604,699,l)
);
},
{
closed = 1;
nodes = (
(512,234,l),
(235,234,l),
(592,634,l)
);
}
);
width = 977;
},
{
layerId = "4DCA89B8-DFE6-4DD8-9DE5-D8A3D5DAECAB";
shapes = (
{
closed = 1;
nodes = (
(-28,0,l),
(53,0,l),
(213,190,l),
(484,190,l),
(446,0,l),
(882,0,l),
(895,66,l),
(532,66,l),
(583,321,l),
(917,321,l),
(930,387,l),
(596,387,l),
(645,634,l),
(1009,634,l),
(1022,700,l),
(559,700,l)
);
},
{
closed = 1;
nodes = (
(497,256,l),
(267,256,l),
(569,617,l)
);
}
);
width = 978;
},
{
layerId = "5704134F-6EB5-4790-9409-A43A14941BD5";
shapes = (
{
closed = 1;
nodes = (
(-57,0,l),
(130,0,l),
(243,170,l),
(425,170,l),
(391,0,l),
(893,0,l),
(921,136,l),
(594,136,l),
(625,288,l),
(924,288,l),
(951,423,l),
(652,423,l),
(681,569,l),
(1007,569,l),
(1034,703,l),
(414,703,l)
);
},
{
closed = 1;
nodes = (
(452,306,l),
(334,306,l),
(502,558,l)
);
}
);
width = 981;
}
);
unicode = 1236;
},
{
glyphname = Alpha;
layers = (
{
layerId = "0D856A57-F1E8-4B9B-A293-C2F37DF93F32";
shapes = (
{
closed = 1;
nodes = (
(-20,0,l),
(19,0,l),
(150,217,l),
(502,217,l),
(546,0,l),
(585,0,l),
(447,699,l),
(397,699,l)
);
},
{
closed = 1;
nodes = (
(172,255,l),
(414,656,l),
(495,255,l)
);
}
);
width = 684;
},
{
layerId = "4DCA89B8-DFE6-4DD8-9DE5-D8A3D5DAECAB";
shapes = (
{
closed = 1;
nodes = (
(-28,0,l),
(46,0,l),
(157,190,l),
(495,190,l),
(529,0,l),
(604,0,l),
(475,700,l),
(380,700,l)
);
},
{
closed = 1;
nodes = (
(195,256,l),
(415,632,l),
(483,256,l)
);
}
);
width = 695;
},
{
layerId = "5704134F-6EB5-4790-9409-A43A14941BD5";
shapes = (
{
closed = 1;
nodes = (
(-52,0,l),
(129,0,l),
(192,110,l),
(462,110,l),
(480,0,l),
(663,0,l),
(533,703,l),
(359,703,l)
);
},
{
closed = 1;
nodes = (
(269,245,l),
(400,478,l),
(439,245,l)
);
}
);
width = 730;
}
);
unicode = 913;
},
{
glyphname = "Alpha-lt";
layers = (
{
layerId = "0D856A57-F1E8-4B9B-A293-C2F37DF93F32";
shapes = (
{
closed = 1;
nodes = (
(428,-8,o),
(540,61,o),
(618,174,c),
(607,115,o),
(600,59,o),
(591,0,c),
(623,0,l),
(762,699,l),
(731,699,l),
(716,641,o),
(701,584,o),
(688,526,c),
(655,638,o),
(571,707,o),
(452,707,cs),
(270,707,o),
(110,559,o),
(68,350,cs),
(26,140,o),
(127,-8,o),
(309,-8,cs)
);
},
{
closed = 1;
nodes = (
(146,541,o),
(284,669,o),
(444,669,cs),
(605,669,o),
(690,541,o),
(652,349,cs),
(613,156,o),
(477,30,o),
(316,30,cs),
(156,30,o),
(69,156,o),
(108,349,cs)
);
}
);
width = 748;
},
{
layerId = "4DCA89B8-DFE6-4DD8-9DE5-D8A3D5DAECAB";
shapes = (
{
closed = 1;
nodes = (
(415,-8,o),
(514,43,o),
(587,128,c),
(580,85,o),
(576,43,o),
(571,0,c),
(634,0,l),
(773,700,l),
(711,700,l),
(698,657,o),
(686,615,o),
(675,572,c),
(636,657,o),
(558,708,o),
(450,708,cs),
(267,708,o),
(107,560,o),
(65,350,cs),
(23,140,o),
(124,-8,o),
(307,-8,cs)
);
},
{
closed = 1;
nodes = (
(174,522,o),
(298,639,o),
(442,639,cs),
(586,639,o),
(664,522,o),
(629,349,cs),
(594,176,o),
(470,61,o),
(326,61,cs),
(182,61,o),
(104,176,o),
(139,349,cs)
);
}
);
width = 757;
},
{
layerId = "5704134F-6EB5-4790-9409-A43A14941BD5";
shapes = (
{
closed = 1;
nodes = (
(374,-8,o),
(443,20,o),
(507,71,c),
(507,46,o),
(507,24,o),
(509,0,c),
(669,0,l),
(809,703,l),
(649,703,l),
(637,679,o),
(629,657,o),
(619,632,c),
(575,683,o),
(517,711,o),
(443,711,cs),
(257,711,o),
(97,563,o),
(55,351,cs),
(13,140,o),
(114,-8,o),
(300,-8,cs)
);
},
{
closed = 1;
nodes = (
(258,480,o),
(345,572,o),
(441,572,cs),
(536,572,o),
(586,480,o),
(560,350,cs),
(535,223,o),
(448,131,o),
(353,131,cs),
(257,131,o),
(207,223,o),
(232,350,cs)
);
}
);
width = 782;
}
);
unicode = 11373;
},
{
glyphname = Alphaacute;
layers = (
{
layerId = "0D856A57-F1E8-4B9B-A293-C2F37DF93F32";
shapes = (
{
closed = 1;
nodes = (
(-20,0,l),
(19,0,l),
(150,217,l),
(502,217,l),
(546,0,l),
(585,0,l),
(447,699,l),
(397,699,l)
);
},
{
closed = 1;
nodes = (
(172,255,l),
(414,656,l),
(495,255,l)
);
},
{
closed = 1;
nodes = (
(297,694,l),
(186,583,l),
(222,583,l),
(353,694,l)
);
}
);
width = 684;
},
{
layerId = "4DCA89B8-DFE6-4DD8-9DE5-D8A3D5DAECAB";
shapes = (
{
closed = 1;
nodes = (
(-28,0,l),
(46,0,l),
(157,190,l),
(495,190,l),
(529,0,l),
(604,0,l),
(475,700,l),
(380,700,l)
);
},
{
closed = 1;
nodes = (
(195,256,l),
(415,632,l),
(483,256,l)
);
},
{
closed = 1;
nodes = (
(249,718,l),
(138,598,l),
(197,598,l),
(340,718,l)
);
}
);
width = 695;
},
{
layerId = "5704134F-6EB5-4790-9409-A43A14941BD5";
shapes = (
{
closed = 1;
nodes = (
(-46,0,l),
(135,0,l),
(197,110,l),
(468,110,l),
(486,0,l),
(668,0,l),
(538,703,l),
(365,703,l)
);
},
{
closed = 1;
nodes = (
(274,245,l),
(406,478,l),
(445,245,l)
);
},
{
closed = 1;
nodes = (
(109,790,l),
(3,643,l),
(129,643,l),
(307,790,l)
);
}
);
width = 736;
}
);
unicode = 8123;
},
{
glyphname = Alphaaspertilde;
layers = (
{
layerId = "0D856A57-F1E8-4B9B-A293-C2F37DF93F32";
shapes = (
{
closed = 1;
nodes = (
(-20,0,l),
(19,0,l),
(150,217,l),
(502,217,l),
(546,0,l),
(585,0,l),
(447,699,l),
(397,699,l)
);
},
{
closed = 1;
nodes = (
(172,255,l),
(414,656,l),
(495,255,l)
);
},
{
closed = 1;
nodes = (
(521,894,o),
(484,868,o),
(475,825,cs),
(467,785,o),
(489,751,o),
(544,749,c),
(550,776,l),
(522,777,o),
(493,789,o),
(500,824,cs),
(505,851,o),
(534,868,o),
(572,868,cs),
(590,868,o),
(616,866,o),
(633,863,c),
(637,886,l),
(608,892,o),
(590,894,o),
(577,894,cs)
);
},
{
closed = 1;
nodes = (
(363,916,l),
(395,954,o),
(413,965,o),
(438,965,cs),
(495,965,o),
(511,913,o),
(566,913,cs),
(602,913,o),
(627,930,o),
(674,985,c),
(649,1005,l),
(610,963,o),
(596,956,o),
(575,956,cs),
(519,956,o),
(503,1008,o),
(447,1008,cs),
(411,1008,o),
(386,992,o),
(338,935,c)
);
}
);
width = 684;
},
{
layerId = "4DCA89B8-DFE6-4DD8-9DE5-D8A3D5DAECAB";
shapes = (
{
closed = 1;
nodes = (
(-28,0,l),
(46,0,l),
(157,190,l),
(495,190,l),
(529,0,l),
(604,0,l),
(475,700,l),
(380,700,l)
);
},
{
closed = 1;
nodes = (
(195,256,l),
(415,632,l),
(483,256,l)
);
},
{
closed = 1;
nodes = (
(414,907,o),
(369,875,o),
(359,825,cs),
(349,773,o),
(387,741,o),
(459,741,c),
(469,792,l),
(430,792,o),
(408,805,o),
(412,825,cs),
(416,843,o),
(439,855,o),
(471,855,cs),
(491,855,o),
(518,851,o),
(543,845,c),
(554,896,l),
(524,903,o),
(495,907,o),
(478,907,cs)
);
},
{
closed = 1;
nodes = (
(367,930,l),
(399,965,o),
(417,976,o),
(440,976,cs),
(494,976,o),
(509,930,o),
(569,930,cs),
(608,930,o),
(639,951,o),
(690,1012,c),
(654,1040,l),
(616,998,o),
(604,994,o),
(582,994,cs),
(528,994,o),
(512,1040,o),
(453,1040,cs),
(414,1040,o),
(385,1020,o),
(333,958,c)
);
}
);
width = 695;
},
{
layerId = "5704134F-6EB5-4790-9409-A43A14941BD5";
shapes = (
{
closed = 1;
nodes = (
(-52,0,l),
(129,0,l),
(192,110,l),
(462,110,l),
(480,0,l),
(663,0,l),
(533,703,l),
(359,703,l)
);
},
{
closed = 1;
nodes = (
(269,245,l),
(400,478,l),
(439,245,l)
);
},
{
closed = 1;
nodes = (
(397,948,o),
(327,901,o),
(314,837,cs),
(298,756,o),
(389,736,o),
(511,742,c),
(526,815,l),
(510,812,o),
(455,809,o),
(459,829,cs),
(460,835,o),
(466,841,o),
(474,841,cs),
(499,841,o),
(531,831,o),
(582,815,c),
(605,926,l),
(574,938,o),
(514,948,o),
(484,948,cs)
);
},
{
closed = 1;
nodes = (
(383,975,l),
(418,1015,o),
(438,1030,o),
(452,1030,cs),
(495,1030,o),
(507,984,o),
(581,984,cs),
(629,984,o),
(674,1016,o),
(738,1095,c),
(671,1149,l),
(651,1113,o),
(627,1094,o),
(603,1094,cs),
(555,1094,o),
(541,1140,o),
(474,1140,cs),
(426,1140,o),
(380,1107,o),
(317,1029,c)
);
}
);
width = 730;
}
);
unicode = 7951;
},
{
glyphname = Alphabreve;
layers = (
{
layerId = "0D856A57-F1E8-4B9B-A293-C2F37DF93F32";
shapes = (
{
closed = 1;
nodes = (
(-20,0,l),
(19,0,l),
(150,217,l),
(502,217,l),
(546,0,l),
(585,0,l),
(447,699,l),
(397,699,l)
);
},
{
closed = 1;
nodes = (
(172,255,l),
(414,656,l),
(495,255,l)
);
},
{
closed = 1;
nodes = (
(498,810,o),
(557,857,o),
(569,919,c),
(542,919,l),
(536,880,o),
(489,847,o),
(447,847,cs),
(403,847,o),
(370,880,o),
(379,919,c),
(353,919,l),
(341,857,o),
(381,810,o),
(440,810,cs)
);
}
);
width = 684;
},
{
layerId = "4DCA89B8-DFE6-4DD8-9DE5-D8A3D5DAECAB";
shapes = (
{
closed = 1;
nodes = (
(-28,0,l),
(46,0,l),
(157,190,l),
(495,190,l),
(529,0,l),
(604,0,l),
(475,700,l),
(380,700,l)
);
},
{
closed = 1;
nodes = (
(195,256,l),
(415,632,l),
(483,256,l)
);
},
{
closed = 1;
nodes = (
(514,788,o),
(578,841,o),
(591,908,c),
(541,908,l),
(534,872,o),
(496,842,o),
(457,842,cs),
(417,842,o),
(390,872,o),
(397,908,c),
(347,908,l),
(334,841,o),
(377,788,o),
(446,788,cs)
);
}
);
width = 695;
},
{
layerId = "5704134F-6EB5-4790-9409-A43A14941BD5";
shapes = (
{
closed = 1;
nodes = (
(-52,0,l),
(129,0,l),
(192,110,l),
(462,110,l),
(480,0,l),
(663,0,l),
(533,703,l),
(359,703,l)
);
},
{
closed = 1;
nodes = (
(269,245,l),
(400,478,l),
(439,245,l)
);
},
{
closed = 1;
nodes = (
(563,722,o),
(643,794,o),
(659,875,c),
(540,875,l),
(530,848,o),
(515,827,o),
(487,827,cs),
(459,827,o),
(451,848,o),
(452,875,c),
(332,875,l),
(316,794,o),
(367,722,o),
(466,722,cs)
);
}
);
width = 730;
}
);
unicode = 8120;
},
{
glyphname = Alphagrave;
layers = (
{
layerId = "0D856A57-F1E8-4B9B-A293-C2F37DF93F32";
shapes = (
{
closed = 1;
nodes = (
(-20,0,l),
(19,0,l),
(150,217,l),
(502,217,l),
(546,0,l),
(585,0,l),
(447,699,l),
(397,699,l)
);
},
{
closed = 1;
nodes = (
(172,255,l),
(414,656,l),
(495,255,l)
);
},
{
closed = 1;
nodes = (
(331,583,l),
(263,694,l),
(207,694,l),
(294,583,l)
);
}
);
width = 684;
},
{
layerId = "4DCA89B8-DFE6-4DD8-9DE5-D8A3D5DAECAB";
shapes = (
{
closed = 1;
nodes = (
(-28,0,l),
(46,0,l),
(157,190,l),
(495,190,l),
(529,0,l),
(604,0,l),
(475,700,l),
(380,700,l)
);
},
{
closed = 1;
nodes = (
(195,256,l),
(415,632,l),
(483,256,l)
);
},
{
closed = 1;
nodes = (
(257,598,l),
(316,598,l),
(254,718,l),
(162,718,l)
);
}
);
width = 695;
},
{
layerId = "5704134F-6EB5-4790-9409-A43A14941BD5";
shapes = (
{
closed = 1;
nodes = (
(-46,0,l),
(135,0,l),
(197,110,l),
(468,110,l),
(486,0,l),
(668,0,l),
(538,703,l),
(365,703,l)
);
},
{
closed = 1;
nodes = (
(274,245,l),
(406,478,l),
(445,245,l)
);
},
{
closed = 1;
nodes = (
(152,643,l),
(277,643,l),
(231,790,l),
(33,790,l)
);
}
);
width = 736;
}
);
unicode = 8122;
},
{
glyphname = Alphaiotasub;
layers = (
{
layerId = "0D856A57-F1E8-4B9B-A293-C2F37DF93F32";
shapes = (
{
closed = 1;
nodes = (
(-20,0,l),
(19,0,l),
(150,217,l),
(502,217,l),
(546,0,l),
(585,0,l),
(447,699,l),
(397,699,l)
);
},
{
closed = 1;
nodes = (
(172,255,l),
(414,656,l),
(495,255,l)
);
},
{
closed = 1;
nodes = (
(707,118,ls),
(695,56,o),
(706,-10,o),
(795,-10,cs),
(812,-10,o),
(828,-9,o),
(854,-4,c),
(862,33,l),
(841,29,o),
(820,27,o),
(803,27,cs),
(735,27,o),
(737,77,o),
(746,123,cs),
(820,493,l),
(782,493,l)
);
}
);
width = 942;
},
{
layerId = "4DCA89B8-DFE6-4DD8-9DE5-D8A3D5DAECAB";
shapes = (
{
closed = 1;
nodes = (
(-28,0,l),
(46,0,l),
(157,190,l),
(495,190,l),
(529,0,l),
(604,0,l),
(475,700,l),
(380,700,l)
);
},
{
closed = 1;
nodes = (
(195,256,l),
(415,632,l),
(483,256,l)
);
},
{
closed = 1;
nodes = (
(717,132,ls),
(703,60,o),
(723,-10,o),
(822,-10,cs),
(842,-10,o),
(864,-8,o),
(889,-3,c),
(901,60,l),
(876,54,o),
(857,52,o),
(841,52,cs),
(781,52,o),
(778,93,o),
(787,136,cs),
(860,500,l),
(790,500,l)
);
}
);
width = 976;
},
{
layerId = "5704134F-6EB5-4790-9409-A43A14941BD5";
shapes = (
{
closed = 1;
nodes = (
(-52,0,l),
(129,0,l),
(192,110,l),
(462,110,l),
(480,0,l),
(663,0,l),
(533,703,l),
(359,703,l)
);
},
{
closed = 1;
nodes = (
(269,245,l),
(400,478,l),
(439,245,l)
);
},
{
closed = 1;
nodes = (
(749,176,ls),
(729,74,o),
(780,-10,o),
(909,-10,cs),
(936,-10,o),
(974,-6,o),
(996,-1,c),
(1021,126,l),
(986,119,o),
(972,117,o),
(958,117,cs),
(921,117,o),
(906,139,o),
(914,177,cs),
(983,523,l),
(818,523,l)
);
}
);
width = 1080;
}
);
unicode = 8124;
},
{
glyphname = Alphalenisgrave;
layers = (
{
layerId = "0D856A57-F1E8-4B9B-A293-C2F37DF93F32";
shapes = (
{
closed = 1;
nodes = (
(-20,0,l),
(19,0,l),
(150,217,l),
(502,217,l),
(546,0,l),
(585,0,l),
(447,699,l),
(397,699,l)
);
},
{
closed = 1;
nodes = (
(172,255,l),
(414,656,l),
(495,255,l)
);
},
{
closed = 1;
nodes = (
(447,917,o),
(429,915,o),
(397,909,c),
(392,886,l),
(410,889,o),
(437,891,o),
(455,891,cs),
(493,891,o),
(514,874,o),
(509,847,cs),
(502,812,o),
(470,800,o),
(441,799,c),
(435,772,l),
(491,774,o),
(527,808,o),
(535,848,cs),
(544,891,o),
(516,917,o),
(460,917,cs)
);
},
{
closed = 1;
nodes = (
(606,867,l),
(643,867,l),
(575,978,l),
(519,978,l)
);
}
);
width = 684;
},
{
layerId = "4DCA89B8-DFE6-4DD8-9DE5-D8A3D5DAECAB";
shapes = (
{
closed = 1;
nodes = (
(-28,0,l),
(46,0,l),
(157,190,l),
(495,190,l),
(529,0,l),
(604,0,l),
(475,700,l),
(380,700,l)
);
},
{
closed = 1;
nodes = (
(195,256,l),
(415,632,l),
(483,256,l)
);
},
{
closed = 1;
nodes = (
(431,915,o),
(401,911,o),
(368,904,c),
(358,853,l),
(386,859,o),
(414,863,o),
(434,863,cs),
(466,863,o),
(485,851,o),
(481,833,cs),
(477,813,o),
(450,800,o),
(411,800,c),
(401,749,l),
(473,749,o),
(524,781,o),
(534,833,cs),
(544,883,o),
(512,915,o),
(448,915,cs)
);
},
{
closed = 1;
nodes = (
(624,848,l),
(683,848,l),
(621,968,l),
(530,968,l)
);
}
);
width = 695;
},
{
layerId = "5704134F-6EB5-4790-9409-A43A14941BD5";
shapes = (
{
closed = 1;
nodes = (
(-52,0,l),
(129,0,l),
(192,110,l),
(462,110,l),
(480,0,l),
(663,0,l),
(533,703,l),
(359,703,l)
);
},
{
closed = 1;
nodes = (
(269,245,l),
(400,478,l),
(439,245,l)
);
},
{
closed = 1;
nodes = (
(447,912,o),
(384,902,o),
(348,890,c),
(325,779,l),
(382,795,o),
(419,805,o),
(444,805,cs),
(452,805,o),
(456,799,o),
(455,793,cs),
(451,773,o),
(397,776,o),
(382,779,c),
(368,706,l),
(487,700,o),
(586,720,o),
(602,801,cs),
(615,865,o),
(564,912,o),
(477,912,cs)
);
},
{
closed = 1;
nodes = (
(682,792,l),
(807,792,l),
(761,939,l),
(563,939,l)
);
}
);
width = 730;
}
);
unicode = 7946;
},
{
glyphname = Alphalenistilde;
layers = (
{
layerId = "0D856A57-F1E8-4B9B-A293-C2F37DF93F32";
shapes = (
{
closed = 1;
nodes = (
(-20,0,l),
(19,0,l),
(150,217,l),
(502,217,l),
(546,0,l),
(585,0,l),
(447,699,l),
(397,699,l)
);
},
{
closed = 1;
nodes = (
(172,255,l),
(414,656,l),
(495,255,l)
);
},
{
closed = 1;
nodes = (
(534,897,o),
(516,895,o),
(484,889,c),
(479,866,l),
(497,869,o),
(524,871,o),
(542,871,cs),
(580,871,o),
(601,854,o),
(596,827,cs),
(589,792,o),
(557,780,o),
(528,779,c),
(522,752,l),
(578,754,o),
(614,788,o),
(622,828,cs),
(631,871,o),
(603,897,o),
(547,897,cs)
);
},
{
closed = 1;
nodes = (
(359,923,l),
(391,961,o),
(409,972,o),
(434,972,cs),
(491,972,o),
(507,920,o),
(562,920,cs),
(598,920,o),
(622,937,o),
(669,992,c),
(645,1012,l),
(606,970,o),
(591,963,o),
(570,963,cs),
(514,963,o),
(499,1015,o),
(443,1015,cs),
(407,1015,o),
(382,999,o),
(334,942,c)
);
}
);
width = 684;
},
{
layerId = "4DCA89B8-DFE6-4DD8-9DE5-D8A3D5DAECAB";
shapes = (
{
closed = 1;
nodes = (
(-28,0,l),
(46,0,l),
(157,190,l),
(495,190,l),
(529,0,l),
(604,0,l),
(475,700,l),
(380,700,l)
);
},
{
closed = 1;
nodes = (
(195,256,l),
(415,632,l),
(483,256,l)
);
},
{
closed = 1;
nodes = (
(441,905,o),
(412,901,o),
(379,894,c),
(369,843,l),
(397,849,o),
(425,853,o),
(445,853,cs),
(477,853,o),
(496,841,o),
(492,823,cs),
(488,803,o),
(461,790,o),
(422,790,c),
(412,739,l),
(484,739,o),
(535,771,o),
(545,823,cs),
(555,873,o),
(522,905,o),
(458,905,cs)
);
},
{
closed = 1;
nodes = (
(363,930,l),
(395,965,o),
(412,976,o),
(435,976,cs),
(489,976,o),
(504,930,o),
(564,930,cs),
(603,930,o),
(634,951,o),
(685,1012,c),
(649,1040,l),
(611,998,o),
(599,994,o),
(577,994,cs),
(523,994,o),
(507,1040,o),
(448,1040,cs),
(409,1040,o),
(380,1020,o),
(328,958,c)
);
}
);
width = 695;
},
{
layerId = "5704134F-6EB5-4790-9409-A43A14941BD5";
shapes = (
{
closed = 1;
nodes = (
(-52,0,l),
(129,0,l),
(192,110,l),
(462,110,l),
(480,0,l),
(663,0,l),
(533,703,l),
(359,703,l)
);
},
{
closed = 1;
nodes = (
(269,245,l),
(400,478,l),
(439,245,l)
);
},
{
closed = 1;
nodes = (
(464,932,o),
(400,922,o),
(364,910,c),
(342,799,l),
(399,815,o),
(436,825,o),
(461,825,cs),
(469,825,o),
(472,819,o),
(471,813,cs),
(467,793,o),
(414,796,o),
(399,799,c),
(384,726,l),
(503,720,o),
(603,740,o),
(619,821,cs),
(632,885,o),
(581,932,o),
(494,932,cs)
);
},
{
closed = 1;
nodes = (
(375,955,l),
(410,995,o),
(430,1010,o),
(444,1010,cs),
(487,1010,o),
(499,964,o),
(573,964,cs),
(621,964,o),
(666,996,o),
(730,1075,c),
(663,1129,l),
(643,1093,o),
(619,1074,o),
(595,1074,cs),
(547,1074,o),
(533,1120,o),
(466,1120,cs),
(418,1120,o),
(373,1087,o),
(310,1009,c)
);
}
);
width = 730;
}
);
unicode = 7950;
},
{
glyphname = Alphatonos;
layers = (
{
layerId = "0D856A57-F1E8-4B9B-A293-C2F37DF93F32";
shapes = (
{
closed = 1;
nodes = (
(-20,0,l),
(19,0,l),
(150,217,l),
(502,217,l),
(546,0,l),
(585,0,l),
(447,699,l),
(397,699,l)
);
},
{
closed = 1;
nodes = (
(172,255,l),
(414,656,l),
(495,255,l)
);
},
{
closed = 1;
nodes = (
(523,905,l),
(412,794,l),
(448,794,l),
(579,905,l)
);
}
);
width = 684;
},
{
layerId = "4DCA89B8-DFE6-4DD8-9DE5-D8A3D5DAECAB";
shapes = (
{
closed = 1;
nodes = (
(-28,0,l),
(46,0,l),
(157,190,l),
(495,190,l),
(529,0,l),
(604,0,l),
(475,700,l),
(380,700,l)
);
},
{
closed = 1;
nodes = (
(195,256,l),
(415,632,l),
(483,256,l)
);
},
{
closed = 1;
nodes = (
(519,895,l),
(409,775,l),
(468,775,l),
(610,895,l)
);
}
);
width = 695;
},
{
layerId = "5704134F-6EB5-4790-9409-A43A14941BD5";
shapes = (
{
closed = 1;
nodes = (
(-52,0,l),
(129,0,l),
(192,110,l),
(462,110,l),
(480,0,l),
(663,0,l),
(533,703,l),
(359,703,l)
);
},
{
closed = 1;
nodes = (
(269,245,l),
(400,478,l),
(439,245,l)
);
},
{
closed = 1;
nodes = (
(506,865,l),
(400,718,l),
(527,718,l),
(704,865,l)
);
}
);
width = 730;
}
);
unicode = 902;
},
{
glyphname = Alphawithmacron;
layers = (
{
layerId = "0D856A57-F1E8-4B9B-A293-C2F37DF93F32";
shapes = (
{
closed = 1;
nodes = (
(-20,0,l),
(19,0,l),
(150,217,l),
(502,217,l),
(546,0,l),
(585,0,l),
(447,699,l),
(397,699,l)
);
},
{
closed = 1;
nodes = (
(172,255,l),
(414,656,l),
(495,255,l)
);
},
{
closed = 1;
nodes = (
(308,841,l),
(586,841,l),
(595,887,l),
(317,887,l)
);
}
);
width = 684;
},
{
layerId = "4DCA89B8-DFE6-4DD8-9DE5-D8A3D5DAECAB";
shapes = (
{
closed = 1;
nodes = (
(-28,0,l),
(46,0,l),
(157,190,l),
(495,190,l),
(529,0,l),
(604,0,l),
(475,700,l),
(380,700,l)
);
},
{
closed = 1;
nodes = (
(195,256,l),
(415,632,l),
(483,256,l)
);
},
{
closed = 1;
nodes = (
(304,818,l),
(599,818,l),
(611,877,l),
(316,877,l)
);
}
);
width = 695;
},
{
layerId = "5704134F-6EB5-4790-9409-A43A14941BD5";
shapes = (
{
closed = 1;
nodes = (
(-52,0,l),
(129,0,l),
(192,110,l),
(462,110,l),
(480,0,l),
(663,0,l),
(533,703,l),
(359,703,l)
);
},
{
closed = 1;
nodes = (
(269,245,l),
(400,478,l),
(439,245,l)
);
},
{
closed = 1;
nodes = (
(294,749,l),
(640,749,l),
(659,847,l),
(313,847,l)
);
}
);
width = 730;
}
);
unicode = 8121;
},
{
glyphname = Amacron;
layers = (
{
layerId = "0D856A57-F1E8-4B9B-A293-C2F37DF93F32";
shapes = (
{
closed = 1;
nodes = (
(-20,0,l),
(19,0,l),
(150,217,l),
(502,217,l),
(546,0,l),
(585,0,l),
(447,699,l),
(397,699,l)
);
},
{
closed = 1;
nodes = (
(172,255,l),
(414,656,l),
(495,255,l)
);
},
{
closed = 1;
nodes = (
(308,841,l),
(586,841,l),
(595,887,l),
(317,887,l)
);
}
);
width = 684;
},
{
layerId = "4DCA89B8-DFE6-4DD8-9DE5-D8A3D5DAECAB";
shapes = (
{
closed = 1;
nodes = (
(-28,0,l),
(46,0,l),
(157,190,l),
(495,190,l),
(529,0,l),
(604,0,l),
(475,700,l),
(380,700,l)
);
},
{
closed = 1;
nodes = (
(195,256,l),
(415,632,l),
(483,256,l)
);
},
{
closed = 1;
nodes = (
(304,818,l),
(599,818,l),
(611,877,l),
(316,877,l)
);
}
);
width = 695;
},
{
layerId = "5704134F-6EB5-4790-9409-A43A14941BD5";
shapes = (
{
closed = 1;
nodes = (
(-52,0,l),
(129,0,l),
(192,110,l),
(462,110,l),
(480,0,l),
(663,0,l),
(533,703,l),
(359,703,l)
);
},
{
closed = 1;
nodes = (
(269,245,l),
(400,478,l),
(439,245,l)
);
},
{
closed = 1;
nodes = (
(294,749,l),
(640,749,l),
(659,847,l),
(313,847,l)
);
}
);
width = 730;
}
);
unicode = 256;
},
{
glyphname = Aogonek;
layers = (
{
layerId = "0D856A57-F1E8-4B9B-A293-C2F37DF93F32";
shapes = (
{
closed = 1;
nodes = (
(-20,0,l),
(19,0,l),
(150,217,l),
(502,217,l),
(543,12,l),
(543,12,l),
(485,-22,o),
(453,-64,o),
(448,-89,cs),
(438,-138,o),
(465,-170,o),
(512,-170,cs),
(525,-170,o),
(544,-168,o),
(563,-164,c),
(569,-132,l),
(550,-134,o),
(532,-135,o),
(521,-135,cs),
(495,-135,o),
(480,-113,o),
(486,-83,cs),
(490,-65,o),
(531,-17,o),
(546,0,c),
(585,0,l),
(447,699,l),
(397,699,l)
);
},
{
closed = 1;
nodes = (
(172,255,l),
(414,656,l),
(495,255,l)
);
}
);
width = 685;
},
{
layerId = "4DCA89B8-DFE6-4DD8-9DE5-D8A3D5DAECAB";
shapes = (
{
closed = 1;
nodes = (
(-28,0,l),
(46,0,l),
(157,190,l),
(495,190,l),
(528,11,l),
(528,11,l),
(486,-19,o),
(449,-62,o),
(443,-93,cs),
(433,-143,o),
(463,-178,o),
(516,-178,cs),
(531,-178,o),
(556,-175,o),
(575,-171,c),
(585,-120,l),
(568,-124,o),
(550,-126,o),
(538,-126,cs),
(513,-126,o),
(498,-107,o),
(503,-81,cs),
(508,-58,o),
(530,-26,o),
(558,0,c),
(604,0,l),
(475,700,l),
(380,700,l)
);
},
{
closed = 1;
nodes = (
(195,256,l),
(415,632,l),
(483,256,l)
);
}
);
width = 696;
},
{
layerId = "5704134F-6EB5-4790-9409-A43A14941BD5";
shapes = (
{
closed = 1;
nodes = (
(-52,0,l),
(129,0,l),
(192,110,l),
(462,110,l),
(480,0,l),
(501,0,l),
(469,-22,o),
(437,-62,o),
(428,-105,cs),
(417,-158,o),
(460,-203,o),
(531,-203,cs),
(552,-203,o),
(591,-197,o),
(613,-191,c),
(634,-84,l),
(619,-93,o),
(603,-98,o),
(586,-98,cs),
(565,-98,o),
(554,-89,o),
(557,-74,cs),
(561,-52,o),
(581,-25,o),
(611,0,c),
(663,0,l),
(533,703,l),
(359,703,l)
);
},
{
closed = 1;
nodes = (
(269,245,l),
(400,478,l),
(439,245,l)
);
}
);
width = 730;
}
);
unicode = 260;
},
{
glyphname = B;
layers = (
{
layerId = "0D856A57-F1E8-4B9B-A293-C2F37DF93F32";
shapes = (
{
closed = 1;
nodes = (
(567,631,o),
(512,699,o),
(399,699,cs),
(147,699,l),
(7,0,l),
(280,0,ls),
(405,0,o),
(497,73,o),
(520,186,cs),
(539,280,o),
(496,350,o),
(406,369,c),
(480,396,o),
(531,451,o),
(546,525,cs)
);
},
{
closed = 1;
nodes = (
(343,346,ls),
(447,346,o),
(499,286,o),
(480,190,cs),
(461,95,o),
(385,35,o),
(281,35,cs),
(54,35,l),
(116,346,l)
);
},
{
closed = 1;
nodes = (
(179,664,l),
(386,664,ls),
(477,664,o),
(523,609,o),
(506,523,cs),
(488,435,o),
(413,381,o),
(309,381,cs),
(123,381,l)
);
}
);
width = 581;
},
{
layerId = "4DCA89B8-DFE6-4DD8-9DE5-D8A3D5DAECAB";
shapes = (
{
closed = 1;
nodes = (
(584,629,o),
(524,700,o),
(404,700,cs),
(144,700,l),
(4,0,l),
(285,0,ls),
(416,0,o),
(513,75,o),
(537,194,cs),
(554,280,o),
(518,343,o),
(440,368,c),
(505,398,o),
(549,450,o),
(562,517,cs)
);
},
{
closed = 1;
nodes = (
(344,327,ls),
(433,327,o),
(479,277,o),
(463,197,cs),
(447,117,o),
(381,67,o),
(292,67,cs),
(90,67,l),
(142,327,l)
);
},
{
closed = 1;
nodes = (
(203,633,l),
(385,633,ls),
(462,633,o),
(502,587,o),
(487,514,cs),
(472,440,o),
(407,394,o),
(318,394,cs),
(155,394,l)
);
}
);
width = 595;
},
{
layerId = "5704134F-6EB5-4790-9409-A43A14941BD5";
shapes = (
{
closed = 1;
nodes = (
(646,626,o),
(572,703,o),
(431,703,cs),
(133,703,l),
(-7,0,l),
(310,0,ls),
(461,0,o),
(573,81,o),
(599,212,cs),
(614,286,o),
(580,341,o),
(510,369,c),
(570,398,o),
(609,444,o),
(621,502,cs)
);
},
{
closed = 1;
nodes = (
(363,294,ls),
(409,294,o),
(432,264,o),
(423,218,cs),
(414,171,o),
(379,142,o),
(333,142,cs),
(196,142,l),
(226,294,l)
);
},
{
closed = 1;
nodes = (
(280,563,l),
(397,563,ls),
(432,563,o),
(450,538,o),
(442,496,cs),
(434,455,o),
(399,429,o),
(355,429,cs),
(253,429,l)
);
}
);
width = 635;
}
);
unicode = 66;
},
{
glyphname = Bdotbelow;
layers = (
{
layerId = "0D856A57-F1E8-4B9B-A293-C2F37DF93F32";
shapes = (
{
closed = 1;
nodes = (
(567,631,o),
(512,699,o),
(399,699,cs),
(147,699,l),
(7,0,l),
(280,0,ls),
(405,0,o),
(497,73,o),
(520,186,cs),
(539,280,o),
(496,350,o),
(406,369,c),
(480,396,o),
(531,451,o),
(546,525,cs)
);
},
{
closed = 1;
nodes = (
(343,346,ls),
(447,346,o),
(499,286,o),
(480,190,cs),
(461,95,o),
(385,35,o),
(281,35,cs),
(54,35,l),
(116,346,l)
);
},
{
closed = 1;
nodes = (
(179,664,l),
(386,664,ls),
(477,664,o),
(523,609,o),
(506,523,cs),
(488,435,o),
(413,381,o),
(309,381,cs),
(123,381,l)
);
},
{
closed = 1;
nodes = (
(235,-118,l),
(247,-55,l),
(191,-55,l),
(179,-118,l)
);
}
);
width = 581;
},
{
layerId = "4DCA89B8-DFE6-4DD8-9DE5-D8A3D5DAECAB";
shapes = (
{
closed = 1;
nodes = (
(584,629,o),
(524,700,o),
(404,700,cs),
(144,700,l),
(4,0,l),
(285,0,ls),
(416,0,o),
(513,75,o),
(537,194,cs),
(554,280,o),
(518,343,o),
(440,368,c),
(505,398,o),
(549,450,o),
(562,517,cs)
);
},
{
closed = 1;
nodes = (
(344,327,ls),
(433,327,o),
(479,277,o),
(463,197,cs),
(447,117,o),
(381,67,o),
(292,67,cs),
(90,67,l),
(142,327,l)
);
},
{
closed = 1;
nodes = (
(203,633,l),
(385,633,ls),
(462,633,o),
(502,587,o),
(487,514,cs),
(472,440,o),
(407,394,o),
(318,394,cs),
(155,394,l)
);
},
{
closed = 1;
nodes = (
(252,-145,l),
(269,-60,l),
(180,-60,l),
(163,-145,l)
);
}
);
width = 595;
},
{
layerId = "5704134F-6EB5-4790-9409-A43A14941BD5";
shapes = (
{
closed = 1;
nodes = (
(646,626,o),
(572,703,o),
(431,703,cs),
(133,703,l),
(-7,0,l),
(310,0,ls),
(461,0,o),
(573,81,o),
(599,212,cs),
(614,286,o),
(580,341,o),
(510,369,c),
(570,398,o),
(609,444,o),
(621,502,cs)
);
},
{
closed = 1;
nodes = (
(363,294,ls),
(409,294,o),
(432,264,o),
(423,218,cs),
(414,171,o),
(379,142,o),
(333,142,cs),
(196,142,l),
(226,294,l)
);
},
{
closed = 1;
nodes = (
(280,563,l),
(397,563,ls),
(432,563,o),
(450,538,o),
(442,496,cs),
(434,455,o),
(399,429,o),
(355,429,cs),
(253,429,l)
);
},
{
closed = 1;
nodes = (
(306,-228,l),
(336,-76,l),
(146,-76,l),
(116,-228,l)
);
}
);
width = 635;
}
);
unicode = 7684;
},
{
glyphname = Becyr;
layers = (
{
layerId = "0D856A57-F1E8-4B9B-A293-C2F37DF93F32";
shapes = (
{
closed = 1;
nodes = (
(8,1,l),
(246,1,ls),
(533,1,o),
(617,421,o),
(330,421,cs),
(131,421,l),
(179,664,l),
(555,664,l),
(562,699,l),
(147,699,l)
);
},
{
closed = 1;
nodes = (
(124,386,l),
(317,386,ls),
(551,386,o),
(481,36,o),
(247,36,cs),
(54,36,l)
);
}
);
width = 578;
},
{
layerId = "4DCA89B8-DFE6-4DD8-9DE5-D8A3D5DAECAB";
shapes = (
{
closed = 1;
nodes = (
(4,0,l),
(252,0,ls),
(553,0,o),
(639,434,o),
(338,434,cs),
(163,434,l),
(203,634,l),
(566,634,l),
(580,700,l),
(144,700,l)
);
},
{
closed = 1;
nodes = (
(150,367,l),
(319,367,ls),
(528,367,o),
(468,67,o),
(259,67,cs),
(90,67,l)
);
}
);
width = 579;
},
{
layerId = "5704134F-6EB5-4790-9409-A43A14941BD5";
shapes = (
{
closed = 1;
nodes = (
(-8,-3,l),
(270,-3,ls),
(613,-3,o),
(705,461,o),
(362,461,cs),
(259,461,l),
(281,569,l),
(608,569,l),
(635,703,l),
(133,703,l)
);
},
{
closed = 1;
nodes = (
(232,326,l),
(329,326,ls),
(462,326,o),
(424,132,o),
(291,132,cs),
(194,132,l)
);
}
);
width = 584;
}
);
unicode = 1041;
},
{
glyphname = Beta;
layers = (
{
layerId = "0D856A57-F1E8-4B9B-A293-C2F37DF93F32";
shapes = (
{
closed = 1;
nodes = (
(567,631,o),
(512,699,o),
(399,699,cs),
(147,699,l),
(7,0,l),
(280,0,ls),
(405,0,o),
(497,73,o),
(520,186,cs),
(539,280,o),
(496,350,o),
(406,369,c),
(480,396,o),
(531,451,o),
(546,525,cs)
);
},
{
closed = 1;
nodes = (
(343,346,ls),
(447,346,o),
(499,286,o),
(480,190,cs),
(461,95,o),
(385,35,o),
(281,35,cs),
(54,35,l),
(116,346,l)
);
},
{
closed = 1;
nodes = (
(179,664,l),
(386,664,ls),
(477,664,o),
(523,609,o),
(506,523,cs),
(488,435,o),
(413,381,o),
(309,381,cs),
(123,381,l)
);
}
);
width = 581;
},
{
layerId = "4DCA89B8-DFE6-4DD8-9DE5-D8A3D5DAECAB";
shapes = (
{
closed = 1;
nodes = (
(584,629,o),
(524,700,o),
(404,700,cs),
(144,700,l),
(4,0,l),
(285,0,ls),
(416,0,o),
(513,75,o),
(537,194,cs),
(554,280,o),
(518,343,o),
(440,368,c),
(505,398,o),
(549,450,o),
(562,517,cs)
);
},
{
closed = 1;
nodes = (
(344,327,ls),
(433,327,o),
(479,277,o),
(463,197,cs),
(447,117,o),
(381,67,o),
(292,67,cs),
(90,67,l),
(142,327,l)
);
},
{
closed = 1;
nodes = (
(203,633,l),
(385,633,ls),
(462,633,o),
(502,587,o),
(487,514,cs),
(472,440,o),
(407,394,o),
(318,394,cs),
(155,394,l)
);
}
);
width = 595;
},
{
layerId = "5704134F-6EB5-4790-9409-A43A14941BD5";
shapes = (
{
closed = 1;
nodes = (
(646,626,o),
(572,703,o),
(431,703,cs),
(133,703,l),
(-7,0,l),
(310,0,ls),
(461,0,o),
(573,81,o),
(599,212,cs),
(614,286,o),
(580,341,o),
(510,369,c),
(570,398,o),
(609,444,o),
(621,502,cs)
);
},
{
closed = 1;
nodes = (
(363,294,ls),
(409,294,o),
(432,264,o),
(423,218,cs),
(414,171,o),
(379,142,o),
(333,142,cs),
(196,142,l),
(226,294,l)
);
},
{
closed = 1;
nodes = (
(280,563,l),
(397,563,ls),
(432,563,o),
(450,538,o),
(442,496,cs),
(434,455,o),
(399,429,o),
(355,429,cs),
(253,429,l)
);
}
);
width = 635;
}
);
unicode = 914;
},
{
glyphname = Bhook;
layers = (
{
layerId = "0D856A57-F1E8-4B9B-A293-C2F37DF93F32";
shapes = (
{
closed = 1;
nodes = (
(223,699,ls),
(146,699,o),
(81,652,o),
(67,583,c),
(67,580,l),
(102,580,l),
(102,582,l),
(112,631,o),
(154,664,o),
(206,664,cs),
(258,664,l),
(125,0,l),
(398,0,ls),
(523,0,o),
(615,73,o),
(638,186,cs),
(657,280,o),
(614,350,o),
(524,369,c),
(598,396,o),
(649,451,o),
(664,525,cs),
(685,631,o),
(630,699,o),
(517,699,cs)
);
},
{
closed = 1;
nodes = (
(461,346,ls),
(565,346,o),
(617,286,o),
(598,190,cs),
(579,95,o),
(503,35,o),
(399,35,cs),
(172,35,l),
(234,346,l)
);
},
{
closed = 1;
nodes = (
(297,664,l),
(504,664,ls),
(595,664,o),
(641,609,o),
(624,523,cs),
(606,435,o),
(531,381,o),
(427,381,cs),
(241,381,l)
);
}
);
width = 699;
},
{
layerId = "4DCA89B8-DFE6-4DD8-9DE5-D8A3D5DAECAB";
shapes = (
{
closed = 1;
nodes = (
(236,700,ls),
(151,700,o),
(78,639,o),
(61,552,c),
(60,544,l),
(129,544,l),
(132,556,l),
(141,602,o),
(177,633,o),
(222,633,cs),
(261,633,l),
(134,0,l),
(415,0,ls),
(546,0,o),
(644,75,o),
(668,194,cs),
(685,280,o),
(648,343,o),
(570,368,c),
(635,398,o),
(679,450,o),
(692,517,cs),
(714,629,o),
(655,700,o),
(535,700,cs)
);
},
{
closed = 1;
nodes = (
(475,327,ls),
(564,327,o),
(610,277,o),
(594,197,cs),
(578,117,o),
(512,67,o),
(423,67,cs),
(220,67,l),
(272,327,l)
);
},
{
closed = 1;
nodes = (
(333,633,l),
(515,633,ls),
(592,633,o),
(632,587,o),
(617,514,cs),
(602,440,o),
(537,394,o),
(448,394,cs),
(285,394,l)
);
}
);
width = 725;
},
{
layerId = "5704134F-6EB5-4790-9409-A43A14941BD5";
shapes = (
{
closed = 1;
nodes = (
(275,703,ls),
(167,703,o),
(76,624,o),
(54,516,cs),
(38,436,l),
(182,436,l),
(194,498,ls),
(203,541,o),
(234,569,o),
(275,571,c),
(275,571,l),
(161,0,l),
(478,0,ls),
(629,0,o),
(741,81,o),
(767,212,cs),
(782,286,o),
(748,341,o),
(678,369,c),
(738,398,o),
(777,444,o),
(789,502,cs),
(814,626,o),
(740,703,o),
(599,703,cs)
);
},
{
closed = 1;
nodes = (
(531,294,ls),
(577,294,o),
(600,264,o),
(591,218,cs),
(582,171,o),
(547,142,o),
(501,142,cs),
(363,142,l),
(394,294,l)
);
},
{
closed = 1;
nodes = (
(448,563,l),
(565,563,ls),
(600,563,o),
(618,538,o),
(610,496,cs),
(602,455,o),
(567,429,o),
(523,429,cs),
(421,429,l)
);
}
);
width = 804;
}
);
unicode = 385;
},
{
glyphname = Bsmall;
layers = (
{
layerId = "0D856A57-F1E8-4B9B-A293-C2F37DF93F32";
shapes = (
{
closed = 1;
nodes = (
(100,494,l),
(1,0,l),
(217,0,ls),
(302,0,o),
(372,55,o),
(388,133,cs),
(398,185,o),
(372,234,o),
(325,252,c),
(365,273,o),
(397,317,o),
(406,362,cs),
(421,439,o),
(380,494,o),
(304,494,cs)
);
},
{
closed = 1;
nodes = (
(85,230,l),
(260,230,ls),
(324,230,o),
(360,189,o),
(349,132,cs),
(337,72,o),
(284,32,o),
(220,32,cs),
(46,32,l)
);
},
{
closed = 1;
nodes = (
(132,462,l),
(301,462,ls),
(353,462,o),
(381,422,o),
(369,362,cs),
(358,305,o),
(313,264,o),
(261,264,cs),
(92,264,l)
);
}
);
width = 453;
},
{
layerId = "4DCA89B8-DFE6-4DD8-9DE5-D8A3D5DAECAB";
shapes = (
{
closed = 1;
nodes = (
(95,500,l),
(-5,0,l),
(229,0,ls),
(318,0,o),
(392,58,o),
(408,140,cs),
(418,189,o),
(395,238,o),
(353,258,c),
(388,279,o),
(419,321,o),
(427,360,cs),
(443,442,o),
(398,500,o),
(317,500,cs)
);
},
{
closed = 1;
nodes = (
(107,220,l),
(264,220,ls),
(318,220,o),
(348,187,o),
(339,140,cs),
(329,92,o),
(286,59,o),
(232,59,cs),
(75,59,l)
);
},
{
closed = 1;
nodes = (
(151,441,l),
(297,441,ls),
(342,441,o),
(367,408,o),
(357,360,cs),
(348,313,o),
(310,280,o),
(265,280,cs),
(119,280,l)
);
}
);
width = 472;
},
{
layerId = "5704134F-6EB5-4790-9409-A43A14941BD5";
shapes = (
{
closed = 1;
nodes = (
(78,522,l),
(-26,0,l),
(265,0,ls),
(369,0,o),
(454,63,o),
(472,152,cs),
(482,202,o),
(458,252,o),
(412,272,c),
(451,289,o),
(484,329,o),
(493,374,cs),
(510,460,o),
(455,522,o),
(359,522,cs)
);
},
{
closed = 1;
nodes = (
(177,204,l),
(283,204,ls),
(303,204,o),
(316,188,o),
(311,164,cs),
(306,140,o),
(287,122,o),
(267,122,cs),
(160,122,l)
);
},
{
closed = 1;
nodes = (
(216,400,l),
(290,400,ls),
(314,400,o),
(328,382,o),
(323,357,cs),
(318,333,o),
(297,316,o),
(273,316,cs),
(199,316,l)
);
}
);
width = 531;
}
);
unicode = 665;
},
{
glyphname = Bstroke;
layers = (
{
layerId = "0D856A57-F1E8-4B9B-A293-C2F37DF93F32";
shapes = (
{
closed = 1;
nodes = (
(-20,183,l),
(49,183,l),
(12,0,l),
(285,0,ls),
(410,0,o),
(502,73,o),
(525,186,cs),
(544,280,o),
(501,350,o),
(411,369,c),
(485,396,o),
(536,451,o),
(551,525,cs),
(572,631,o),
(517,699,o),
(404,699,cs),
(152,699,l),
(56,219,l),
(-13,219,l)
);
},
{
closed = 1;
nodes = (
(348,346,ls),
(452,346,o),
(504,286,o),
(485,190,cs),
(466,95,o),
(390,35,o),
(286,35,cs),
(58,35,l),
(88,183,l),
(249,183,l),
(256,219,l),
(95,219,l),
(121,346,l)
);
},
{
closed = 1;
nodes = (
(184,664,l),
(391,664,ls),
(482,664,o),
(528,609,o),
(511,523,cs),
(493,435,o),
(418,381,o),
(314,381,cs),
(128,381,l)
);
}
);
width = 586;
},
{
layerId = "4DCA89B8-DFE6-4DD8-9DE5-D8A3D5DAECAB";
shapes = (
{
closed = 1;
nodes = (
(-25,175,l),
(44,175,l),
(9,0,l),
(290,0,ls),
(421,0,o),
(518,75,o),
(542,194,cs),
(559,280,o),
(523,343,o),
(445,368,c),
(510,398,o),
(554,450,o),
(567,517,cs),
(589,629,o),
(529,700,o),
(409,700,cs),
(148,700,l),
(55,234,l),
(-13,234,l)
);
},
{
closed = 1;
nodes = (
(349,327,ls),
(438,327,o),
(484,277,o),
(468,197,cs),
(452,117,o),
(386,67,o),
(297,67,cs),
(95,67,l),
(116,175,l),
(270,175,l),
(282,234,l),
(128,234,l),
(146,327,l)
);
},
{
closed = 1;
nodes = (
(208,633,l),
(390,633,ls),
(467,633,o),
(507,587,o),
(492,514,cs),
(477,440,o),
(412,394,o),
(323,394,cs),
(160,394,l)
);
}
);
width = 599;
},
{
layerId = "5704134F-6EB5-4790-9409-A43A14941BD5";
shapes = (
{
closed = 1;
nodes = (
(-36,170,l),
(32,170,l),
(-2,0,l),
(315,0,ls),
(466,0,o),
(577,81,o),
(603,212,cs),
(618,286,o),
(585,341,o),
(515,369,c),
(575,398,o),
(614,444,o),
(626,502,cs),
(651,626,o),
(577,703,o),
(436,703,cs),
(138,703,l),
(50,261,l),
(-18,261,l)
);
},
{
closed = 1;
nodes = (
(368,294,ls),
(414,294,o),
(437,264,o),
(428,218,cs),
(419,171,o),
(384,142,o),
(338,142,cs),
(200,142,l),
(206,170,l),
(339,170,l),
(357,261,l),
(224,261,l),
(231,294,l)
);
},
{
closed = 1;
nodes = (
(285,563,l),
(402,563,ls),
(437,563,o),
(455,538,o),
(447,496,cs),
(439,455,o),
(404,429,o),
(360,429,cs),
(258,429,l)
);
}
);
width = 640;
}
);
unicode = 579;
},
{
glyphname = C;
layers = (
{
layerId = "0D856A57-F1E8-4B9B-A293-C2F37DF93F32";
shapes = (
{
closed = 1;
nodes = (
(26,138,o),
(126,-11,o),
(308,-11,cs),
(463,-11,o),
(576,73,o),
(635,213,c),
(597,228,l),
(550,101,o),
(453,29,o),
(316,29,cs),
(156,29,o),
(70,161,o),
(108,349,cs),
(146,537,o),
(283,668,o),
(443,668,cs),
(568,668,o),
(641,606,o),
(651,495,c),
(693,511,l),
(679,635,o),
(597,707,o),
(451,707,cs),
(269,707,o),
(110,560,o),
(68,349,cs)
);
}
);
width = 690;
},
{
layerId = "4DCA89B8-DFE6-4DD8-9DE5-D8A3D5DAECAB";
shapes = (
{
closed = 1;
nodes = (
(22,138,o),
(125,-10,o),
(312,-10,cs),
(464,-10,o),
(587,77,o),
(646,215,c),
(582,240,l),
(540,127,o),
(446,59,o),
(326,59,cs),
(182,59,o),
(105,179,o),
(139,349,cs),
(173,519,o),
(298,639,o),
(442,639,cs),
(554,639,o),
(622,579,o),
(629,478,c),
(704,503,l),
(690,629,o),
(600,708,o),
(456,708,cs),
(269,708,o),
(106,560,o),
(64,349,cs)
);
}
);
width = 699;
},
{
layerId = "5704134F-6EB5-4790-9409-A43A14941BD5";
shapes = (
{
closed = 1;
nodes = (
(13,139,o),
(124,-8,o),
(324,-8,cs),
(479,-8,o),
(623,81,o),
(678,201,c),
(531,256,l),
(502,191,o),
(431,139,o),
(355,139,cs),
(258,139,o),
(207,226,o),
(232,350,cs),
(257,475,o),
(343,562,o),
(443,562,cs),
(519,562,o),
(569,512,o),
(569,448,c),
(739,500,l),
(724,621,o),
(617,711,o),
(465,711,cs),
(268,711,o),
(97,561,o),
(55,350,cs)
);
}
);
width = 729;
}
);
unicode = 67;
},
{
glyphname = Cacute;
layers = (
{
layerId = "0D856A57-F1E8-4B9B-A293-C2F37DF93F32";
shapes = (
{
closed = 1;
nodes = (
(26,138,o),
(126,-11,o),
(308,-11,cs),
(463,-11,o),
(576,73,o),
(635,213,c),
(597,228,l),
(550,101,o),
(453,29,o),
(316,29,cs),
(156,29,o),
(70,161,o),
(108,349,cs),
(146,537,o),
(283,668,o),
(443,668,cs),
(568,668,o),
(641,606,o),
(651,495,c),
(693,511,l),
(679,635,o),
(597,707,o),
(451,707,cs),
(269,707,o),
(110,560,o),
(68,349,cs)
);
},
{
closed = 1;
nodes = (
(500,900,l),
(388,789,l),
(424,789,l),
(555,900,l)
);
}
);
width = 690;
},
{
layerId = "4DCA89B8-DFE6-4DD8-9DE5-D8A3D5DAECAB";
shapes = (
{
closed = 1;
nodes = (
(22,138,o),
(125,-10,o),
(312,-10,cs),
(464,-10,o),
(587,77,o),
(646,215,c),
(582,240,l),
(540,127,o),
(446,59,o),
(326,59,cs),
(182,59,o),
(105,179,o),
(139,349,cs),
(173,519,o),
(298,639,o),
(442,639,cs),
(554,639,o),
(622,579,o),
(629,478,c),
(704,503,l),
(690,629,o),
(600,708,o),
(456,708,cs),
(269,708,o),
(106,560,o),
(64,349,cs)
);
},
{
closed = 1;
nodes = (
(500,898,l),
(390,778,l),
(449,778,l),
(592,898,l)
);
}
);
width = 699;
},
{
layerId = "5704134F-6EB5-4790-9409-A43A14941BD5";
shapes = (
{
closed = 1;
nodes = (
(13,139,o),
(124,-8,o),
(324,-8,cs),
(479,-8,o),
(623,81,o),
(678,201,c),
(531,256,l),
(502,191,o),
(431,139,o),
(355,139,cs),
(258,139,o),
(207,226,o),
(232,350,cs),
(257,475,o),
(343,562,o),
(443,562,cs),
(519,562,o),
(569,512,o),
(569,448,c),
(739,500,l),
(724,621,o),
(617,711,o),
(465,711,cs),
(268,711,o),
(97,561,o),
(55,350,cs)
);
},
{
closed = 1;
nodes = (
(503,893,l),
(397,746,l),
(524,746,l),
(701,893,l)
);
}
);
width = 729;
}
);
unicode = 262;
},
{
glyphname = Ccaron;
layers = (
{
layerId = "0D856A57-F1E8-4B9B-A293-C2F37DF93F32";
shapes = (
{
closed = 1;
nodes = (
(26,138,o),
(126,-11,o),
(308,-11,cs),
(463,-11,o),
(576,73,o),
(635,213,c),
(597,228,l),
(550,101,o),
(453,29,o),
(316,29,cs),
(156,29,o),
(70,161,o),
(108,349,cs),
(146,537,o),
(283,668,o),
(443,668,cs),
(568,668,o),
(641,606,o),
(651,495,c),
(693,511,l),
(679,635,o),
(597,707,o),
(451,707,cs),
(269,707,o),
(110,560,o),
(68,349,cs)
);
},
{
closed = 1;
nodes = (
(577,919,l),
(539,919,l),
(438,847,l),
(365,919,l),
(327,919,l),
(410,810,l),
(450,810,l)
);
}
);
width = 690;
},
{
layerId = "4DCA89B8-DFE6-4DD8-9DE5-D8A3D5DAECAB";
shapes = (
{
closed = 1;
nodes = (
(22,138,o),
(125,-10,o),
(312,-10,cs),
(464,-10,o),
(587,77,o),
(646,215,c),
(582,240,l),
(540,127,o),
(446,59,o),
(326,59,cs),
(182,59,o),
(105,179,o),
(139,349,cs),
(173,519,o),
(298,639,o),
(442,639,cs),
(554,639,o),
(622,579,o),
(629,478,c),
(704,503,l),
(690,629,o),
(600,708,o),
(456,708,cs),
(269,708,o),
(106,560,o),
(64,349,cs)
);
},
{
closed = 1;
nodes = (
(612,908,l),
(548,908,l),
(458,843,l),
(393,908,l),
(329,908,l),
(420,788,l),
(473,788,l)
);
}
);
width = 699;
},
{
layerId = "5704134F-6EB5-4790-9409-A43A14941BD5";
shapes = (
{
closed = 1;
nodes = (
(13,139,o),
(124,-8,o),
(324,-8,cs),
(479,-8,o),
(623,81,o),
(678,201,c),
(531,256,l),
(502,191,o),
(431,139,o),
(355,139,cs),
(258,139,o),
(207,226,o),
(232,350,cs),
(257,475,o),
(343,562,o),
(443,562,cs),
(519,562,o),
(569,512,o),
(569,448,c),
(739,500,l),
(724,621,o),
(617,711,o),
(465,711,cs),
(268,711,o),
(97,561,o),
(55,350,cs)
);
},
{
closed = 1;
nodes = (
(720,875,l),
(579,875,l),
(520,832,l),
(477,875,l),
(335,875,l),
(449,722,l),
(544,722,l)
);
}
);
width = 729;
}
);
unicode = 268;
},
{
glyphname = Ccedilla;
layers = (
{
layerId = "0D856A57-F1E8-4B9B-A293-C2F37DF93F32";
shapes = (
{
closed = 1;
nodes = (
(26,138,o),
(126,-11,o),
(308,-11,cs),
(463,-11,o),
(576,73,o),
(635,213,c),
(597,228,l),
(550,101,o),
(453,29,o),
(316,29,cs),
(156,29,o),
(70,161,o),
(108,349,cs),
(146,537,o),
(283,668,o),
(443,668,cs),
(568,668,o),
(641,606,o),
(651,495,c),
(693,511,l),
(679,635,o),
(597,707,o),
(451,707,cs),
(269,707,o),
(110,560,o),
(68,349,cs)
);
},
{
closed = 1;
nodes = (
(148,-205,l),
(178,-210,o),
(199,-213,o),
(213,-213,cs),
(270,-213,o),
(313,-184,o),
(322,-138,cs),
(331,-93,o),
(297,-60,o),
(243,-60,c),
(235,-99,l),
(282,-99,o),
(296,-120,o),
(293,-137,cs),
(289,-159,o),
(259,-173,o),
(218,-173,cs),
(199,-173,o),
(175,-171,o),
(155,-171,c)
);
}
);
width = 690;
},
{
layerId = "4DCA89B8-DFE6-4DD8-9DE5-D8A3D5DAECAB";
shapes = (
{
closed = 1;
nodes = (
(22,138,o),
(125,-10,o),
(312,-10,cs),
(464,-10,o),
(587,77,o),
(646,215,c),
(582,240,l),
(540,127,o),
(446,59,o),
(326,59,cs),
(182,59,o),
(105,179,o),
(139,349,cs),
(173,519,o),
(298,639,o),
(442,639,cs),
(554,639,o),
(622,579,o),
(629,478,c),
(704,503,l),
(690,629,o),
(600,708,o),
(456,708,cs),
(269,708,o),
(106,560,o),
(64,349,cs)
);
},
{
closed = 1;
nodes = (
(159,-204,l),
(189,-211,o),
(217,-215,o),
(234,-215,cs),
(298,-215,o),
(343,-183,o),
(353,-133,cs),
(363,-81,o),
(325,-49,o),
(253,-49,c),
(243,-100,l),
(282,-100,o),
(304,-113,o),
(300,-133,cs),
(296,-151,o),
(273,-163,o),
(241,-163,cs),
(221,-163,o),
(194,-159,o),
(169,-153,c)
);
}
);
width = 699;
},
{
layerId = "5704134F-6EB5-4790-9409-A43A14941BD5";
shapes = (
{
closed = 1;
nodes = (
(13,139,o),
(124,-8,o),
(324,-8,cs),
(479,-8,o),
(623,81,o),
(678,201,c),
(531,256,l),
(502,191,o),
(431,139,o),
(355,139,cs),
(258,139,o),
(207,226,o),
(232,350,cs),
(257,475,o),
(343,562,o),
(443,562,cs),
(519,562,o),
(569,512,o),
(569,448,c),
(739,500,l),
(724,621,o),
(617,711,o),
(465,711,cs),
(268,711,o),
(97,561,o),
(55,350,cs)
);
},
{
closed = 1;
nodes = (
(190,-212,l),
(219,-224,o),
(272,-232,o),
(297,-232,cs),
(380,-232,o),
(438,-190,o),
(450,-129,cs),
(465,-56,o),
(410,-26,o),
(284,-26,c),
(267,-113,l),
(283,-113,o),
(325,-113,o),
(321,-131,c),
(320,-138,o),
(312,-143,o),
(303,-143,cs),
(279,-143,o),
(252,-133,o),
(211,-110,c)
);
}
);
width = 729;
}
);
unicode = 199;
},
{
glyphname = Ccircumflex;
layers = (
{
layerId = "0D856A57-F1E8-4B9B-A293-C2F37DF93F32";
shapes = (
{
closed = 1;
nodes = (
(26,138,o),
(126,-11,o),
(308,-11,cs),
(463,-11,o),
(576,73,o),
(635,213,c),
(597,228,l),
(550,101,o),
(453,29,o),
(316,29,cs),
(156,29,o),
(70,161,o),
(108,349,cs),
(146,537,o),
(283,668,o),
(443,668,cs),
(568,668,o),
(641,606,o),
(651,495,c),
(693,511,l),
(679,635,o),
(597,707,o),
(451,707,cs),
(269,707,o),
(110,560,o),
(68,349,cs)
);
},
{
closed = 1;
nodes = (
(445,919,l),
(318,810,l),
(356,810,l),
(458,883,l),
(530,810,l),
(568,810,l),
(485,919,l)
);
}
);
width = 690;
},
{
layerId = "4DCA89B8-DFE6-4DD8-9DE5-D8A3D5DAECAB";
shapes = (
{
closed = 1;
nodes = (
(22,138,o),
(125,-10,o),
(312,-10,cs),
(464,-10,o),
(587,77,o),
(646,215,c),
(582,240,l),
(540,127,o),
(446,59,o),
(326,59,cs),
(182,59,o),
(105,179,o),
(139,349,cs),
(173,519,o),
(298,639,o),
(442,639,cs),
(554,639,o),
(622,579,o),
(629,478,c),
(704,503,l),
(690,629,o),
(600,708,o),
(456,708,cs),
(269,708,o),
(106,560,o),
(64,349,cs)
);
},
{
closed = 1;
nodes = (
(444,908,l),
(305,788,l),
(369,788,l),
(460,853,l),
(524,788,l),
(588,788,l),
(497,908,l)
);
}
);
width = 699;
},
{
layerId = "5704134F-6EB5-4790-9409-A43A14941BD5";
shapes = (
{
closed = 1;
nodes = (
(13,139,o),
(124,-8,o),
(324,-8,cs),
(479,-8,o),
(623,81,o),
(678,201,c),
(531,256,l),
(502,191,o),
(431,139,o),
(355,139,cs),
(258,139,o),
(207,226,o),
(232,350,cs),
(257,475,o),
(343,562,o),
(443,562,cs),
(519,562,o),
(569,512,o),
(569,448,c),
(739,500,l),
(724,621,o),
(617,711,o),
(465,711,cs),
(268,711,o),
(97,561,o),
(55,350,cs)
);
},
{
closed = 1;
nodes = (
(443,875,l),
(267,722,l),
(409,722,l),
(469,764,l),
(511,722,l),
(652,722,l),
(538,875,l)
);
}
);
width = 729;
}
);
unicode = 264;
},
{
glyphname = Cdotaccent;
layers = (
{
layerId = "0D856A57-F1E8-4B9B-A293-C2F37DF93F32";
shapes = (
{
closed = 1;
nodes = (
(26,138,o),
(126,-11,o),
(308,-11,cs),
(463,-11,o),
(576,73,o),
(635,213,c),
(597,228,l),
(550,101,o),
(453,29,o),
(316,29,cs),
(156,29,o),
(70,161,o),
(108,349,cs),
(146,537,o),
(283,668,o),
(443,668,cs),
(568,668,o),
(641,606,o),
(651,495,c),
(693,511,l),
(679,635,o),
(597,707,o),
(451,707,cs),
(269,707,o),
(110,560,o),
(68,349,cs)
);
},
{
closed = 1;
nodes = (
(473,837,l),
(484,893,l),
(430,893,l),
(419,837,l)
);
}
);
width = 690;
},
{
layerId = "4DCA89B8-DFE6-4DD8-9DE5-D8A3D5DAECAB";
shapes = (
{
closed = 1;
nodes = (
(22,138,o),
(125,-10,o),
(312,-10,cs),
(464,-10,o),
(587,77,o),
(646,215,c),
(582,240,l),
(540,127,o),
(446,59,o),
(326,59,cs),
(182,59,o),
(105,179,o),
(139,349,cs),
(173,519,o),
(298,639,o),
(442,639,cs),
(554,639,o),
(622,579,o),
(629,478,c),
(704,503,l),
(690,629,o),
(600,708,o),
(456,708,cs),
(269,708,o),
(106,560,o),
(64,349,cs)
);
},
{
closed = 1;
nodes = (
(495,808,l),
(512,893,l),
(423,893,l),
(406,808,l)
);
}
);
width = 699;
},
{
layerId = "5704134F-6EB5-4790-9409-A43A14941BD5";
shapes = (
{
closed = 1;
nodes = (
(13,139,o),
(124,-8,o),
(324,-8,cs),
(479,-8,o),
(623,81,o),
(678,201,c),
(531,256,l),
(502,191,o),
(431,139,o),
(355,139,cs),
(258,139,o),
(207,226,o),
(232,350,cs),
(257,475,o),
(343,562,o),
(443,562,cs),
(519,562,o),
(569,512,o),
(569,448,c),
(739,500,l),
(724,621,o),
(617,711,o),
(465,711,cs),
(268,711,o),
(97,561,o),
(55,350,cs)
);
},
{
closed = 1;
nodes = (
(549,739,l),
(576,876,l),
(415,876,l),
(388,739,l)
);
}
);
width = 729;
}
);
unicode = 266;
},
{
glyphname = Cheabkhcyr;
layers = (
{
layerId = "0D856A57-F1E8-4B9B-A293-C2F37DF93F32";
shapes = (
{
closed = 1;
nodes = (
(108,535,l),
(70,535,l),
(57,471,ls),
(42,397,o),
(93,362,o),
(159,362,c),
(117,150,o),
(214,-7,o),
(397,-7,cs),
(539,-7,o),
(656,69,o),
(721,198,c),
(684,214,l),
(636,104,o),
(528,32,o),
(405,32,cs),
(245,32,o),
(163,178,o),
(200,362,c),
(784,362,l),
(820,573,o),
(719,711,o),
(541,711,cs),
(372,711,o),
(224,586,o),
(168,401,c),
(122,401,o),
(84,413,o),
(95,470,cs)
);
},
{
closed = 1;
nodes = (
(680,672,o),
(765,559,o),
(748,401,c),
(210,401,l),
(259,559,o),
(388,672,o),
(533,672,cs)
);
}
);
width = 809;
},
{
layerId = "4DCA89B8-DFE6-4DD8-9DE5-D8A3D5DAECAB";
shapes = (
{
closed = 1;
nodes = (
(131,535,l),
(68,535,l),
(55,470,ls),
(39,392,o),
(87,343,o),
(161,343,c),
(123,136,o),
(225,-8,o),
(410,-8,cs),
(554,-8,o),
(676,71,o),
(740,197,c),
(676,222,l),
(628,121,o),
(536,61,o),
(424,61,cs),
(282,61,o),
(205,177,o),
(235,343,c),
(800,343,l),
(844,562,o),
(741,710,o),
(554,710,cs),
(384,710,o),
(236,589,o),
(178,409,c),
(138,409,o),
(109,424,o),
(118,471,cs)
);
},
{
closed = 1;
nodes = (
(667,641,o),
(742,548,o),
(735,409,c),
(252,409,l),
(300,548,o),
(413,641,o),
(540,641,cs)
);
}
);
width = 827;
},
{
layerId = "5704134F-6EB5-4790-9409-A43A14941BD5";
shapes = (
{
closed = 1;
nodes = (
(200,535,l),
(63,535,l),
(50,470,ls),
(31,376,o),
(84,303,o),
(173,299,c),
(157,116,o),
(266,-11,o),
(450,-11,cs),
(600,-11,o),
(737,77,o),
(801,194,c),
(653,248,l),
(605,160,o),
(553,128,o),
(478,128,cs),
(392,128,o),
(341,187,o),
(350,299,c),
(852,299,l),
(917,535,o),
(807,708,o),
(594,708,cs),
(419,708,o),
(266,593,o),
(202,426,c),
(188,431,o),
(183,448,o),
(188,471,c)
);
},
{
closed = 1;
nodes = (
(645,571,o),
(694,519,o),
(695,424,c),
(379,424,l),
(418,519,o),
(487,571,o),
(566,571,cs)
);
}
);
width = 882;
}
);
unicode = 1212;
},
{
glyphname = Cheabkhtailcyr;
layers = (
{
layerId = "0D856A57-F1E8-4B9B-A293-C2F37DF93F32";
shapes = (
{
closed = 1;
nodes = (
(342,-150,l),
(381,-150,l),
(409,-7,l),
(546,-3,o),
(658,73,o),
(721,198,c),
(684,214,l),
(636,104,o),
(528,32,o),
(405,32,cs),
(245,32,o),
(163,178,o),
(200,362,c),
(784,362,l),
(820,573,o),
(719,711,o),
(541,711,cs),
(372,711,o),
(224,586,o),
(168,401,c),
(122,401,o),
(84,413,o),
(95,470,cs),
(108,535,l),
(70,535,l),
(57,471,ls),
(42,397,o),
(93,362,o),
(159,362,c),
(119,160,o),
(204,8,o),
(371,-6,c)
);
},
{
closed = 1;
nodes = (
(680,672,o),
(765,559,o),
(748,401,c),
(210,401,l),
(259,559,o),
(388,672,o),
(533,672,cs)
);
}
);
width = 809;
},
{
layerId = "4DCA89B8-DFE6-4DD8-9DE5-D8A3D5DAECAB";
shapes = (
{
closed = 1;
nodes = (
(343,-150,l),
(415,-150,l),
(444,-7,l),
(574,5,o),
(681,81,o),
(740,197,c),
(676,222,l),
(628,121,o),
(536,61,o),
(424,61,cs),
(282,61,o),
(205,177,o),
(235,343,c),
(800,343,l),
(844,562,o),
(741,710,o),
(554,710,cs),
(384,710,o),
(236,589,o),
(178,409,c),
(138,409,o),
(109,424,o),
(118,471,cs),
(131,535,l),
(68,535,l),
(55,470,ls),
(39,392,o),
(87,343,o),
(161,343,c),
(126,151,o),
(211,13,o),
(371,-6,c)
);
},
{
closed = 1;
nodes = (
(667,641,o),
(742,548,o),
(735,409,c),
(252,409,l),
(300,548,o),
(413,641,o),
(540,641,cs)
);
}
);
width = 827;
},
{
layerId = "5704134F-6EB5-4790-9409-A43A14941BD5";
shapes = (
{
closed = 1;
nodes = (
(343,-150,l),
(519,-150,l),
(550,2,l),
(659,31,o),
(752,104,o),
(801,194,c),
(653,248,l),
(605,160,o),
(553,128,o),
(478,128,cs),
(392,128,o),
(341,187,o),
(350,299,c),
(852,299,l),
(917,535,o),
(807,708,o),
(594,708,cs),
(419,708,o),
(266,593,o),
(202,426,c),
(188,431,o),
(183,448,o),
(188,471,c),
(200,535,l),
(63,535,l),
(50,470,ls),
(31,376,o),
(84,303,o),
(173,299,c),
(160,144,o),
(235,28,o),
(372,-3,c)
);
},
{
closed = 1;
nodes = (
(645,571,o),
(694,519,o),
(695,424,c),
(379,424,l),
(418,519,o),
(487,571,o),
(566,571,cs)
);
}
);
width = 882;
}
);
unicode = 1214;
},
{
glyphname = Checyr;
layers = (
{
layerId = "0D856A57-F1E8-4B9B-A293-C2F37DF93F32";
shapes = (
{
closed = 1;
nodes = (
(92,448,ls),
(65,313,o),
(129,228,o),
(274,228,cs),
(352,228,o),
(451,273,o),
(511,344,c),
(442,0,l),
(480,0,l),
(620,700,l),
(582,700,l),
(536,469,ls),
(512,351,o),
(405,269,o),
(275,269,cs),
(161,269,o),
(111,346,o),
(133,458,cs),
(181,700,l),
(143,700,l)
);
}
);
width = 607;
},
{
layerId = "4DCA89B8-DFE6-4DD8-9DE5-D8A3D5DAECAB";
shapes = (
{
closed = 1;
nodes = (
(90,453,ls),
(61,310,o),
(133,221,o),
(272,221,cs),
(348,221,o),
(432,258,o),
(487,317,c),
(423,0,l),
(496,0,l),
(636,700,l),
(563,700,l),
(519,476,ls),
(496,361,o),
(407,288,o),
(289,288,cs),
(191,288,o),
(143,356,o),
(165,465,cs),
(212,700,l),
(139,700,l)
);
}
);
width = 619;
},
{
layerId = "5704134F-6EB5-4790-9409-A43A14941BD5";
shapes = (
{
closed = 1;
nodes = (
(80,458,ls),
(48,298,o),
(135,201,o),
(249,201,cs),
(328,201,o),
(375,221,o),
(418,254,c),
(367,0,l),
(544,0,l),
(684,700,l),
(507,700,l),
(465,489,ls),
(445,390,o),
(410,346,o),
(333,346,cs),
(281,346,o),
(241,385,o),
(260,478,cs),
(305,700,l),
(128,700,l)
);
}
);
width = 658;
}
);
unicode = 1063;
},
{
glyphname = Chedieresiscyr;
layers = (
{
layerId = "0D856A57-F1E8-4B9B-A293-C2F37DF93F32";
shapes = (
{
closed = 1;
nodes = (
(92,448,ls),
(65,313,o),
(129,228,o),
(274,228,cs),
(352,228,o),
(451,273,o),
(511,344,c),
(442,0,l),
(480,0,l),
(620,700,l),
(582,700,l),
(536,469,ls),
(512,351,o),
(405,269,o),
(275,269,cs),
(161,269,o),
(111,346,o),
(133,458,cs),
(181,700,l),
(143,700,l)
);
},
{
closed = 1;
nodes = (
(362,820,l),
(375,888,l),
(310,888,l),
(296,820,l)
);
},
{
closed = 1;
nodes = (
(516,820,l),
(529,888,l),
(463,888,l),
(450,820,l)
);
}
);
width = 607;
},
{
layerId = "4DCA89B8-DFE6-4DD8-9DE5-D8A3D5DAECAB";
shapes = (
{
closed = 1;
nodes = (
(90,453,ls),
(61,310,o),
(133,221,o),
(272,221,cs),
(348,221,o),
(432,258,o),
(487,317,c),
(423,0,l),
(496,0,l),
(636,700,l),
(563,700,l),
(519,476,ls),
(496,361,o),
(407,288,o),
(289,288,cs),
(191,288,o),
(143,356,o),
(165,465,cs),
(212,700,l),
(139,700,l)
);
},
{
closed = 1;
nodes = (
(372,808,l),
(389,893,l),
(300,893,l),
(283,808,l)
);
},
{
closed = 1;
nodes = (
(540,808,l),
(557,893,l),
(468,893,l),
(451,808,l)
);
}
);
width = 619;
},
{
layerId = "5704134F-6EB5-4790-9409-A43A14941BD5";
shapes = (
{
closed = 1;
nodes = (
(80,458,ls),
(48,298,o),
(135,201,o),
(249,201,cs),
(328,201,o),
(375,221,o),
(418,254,c),
(367,0,l),
(544,0,l),
(684,700,l),
(507,700,l),
(465,489,ls),
(445,390,o),
(410,346,o),
(333,346,cs),
(281,346,o),
(241,385,o),
(260,478,cs),
(305,700,l),
(128,700,l)
);
},
{
closed = 1;
nodes = (
(406,773,l),
(434,910,l),
(273,910,l),
(246,773,l)
);
},
{
closed = 1;
nodes = (
(615,773,l),
(642,910,l),
(482,910,l),
(454,773,l)
);
}
);
width = 658;
}
);
unicode = 1268;
},
{
glyphname = Chekhakascyr;
layers = (
{
layerId = "0D856A57-F1E8-4B9B-A293-C2F37DF93F32";
shapes = (
{
closed = 1;
nodes = (
(379,36,l),
(350,-110,l),
(387,-110,l),
(409,0,l),
(480,0,l),
(620,700,l),
(582,700,l),
(536,469,ls),
(512,351,o),
(405,269,o),
(275,269,cs),
(161,269,o),
(111,346,o),
(133,458,cs),
(181,700,l),
(143,700,l),
(92,448,ls),
(65,313,o),
(129,228,o),
(274,228,cs),
(352,228,o),
(451,273,o),
(511,344,c),
(449,36,l)
);
}
);
width = 607;
},
{
layerId = "4DCA89B8-DFE6-4DD8-9DE5-D8A3D5DAECAB";
shapes = (
{
closed = 1;
nodes = (
(343,59,l),
(309,-110,l),
(379,-110,l),
(401,0,l),
(496,0,l),
(636,700,l),
(563,700,l),
(519,476,ls),
(496,361,o),
(407,288,o),
(289,288,cs),
(191,288,o),
(143,356,o),
(165,465,cs),
(212,700,l),
(139,700,l),
(90,453,ls),
(61,310,o),
(133,221,o),
(272,221,cs),
(348,221,o),
(432,258,o),
(487,317,c),
(435,59,l)
);
}
);
width = 619;
},
{
layerId = "5704134F-6EB5-4790-9409-A43A14941BD5";
shapes = (
{
closed = 1;
nodes = (
(232,129,l),
(184,-110,l),
(357,-110,l),
(379,0,l),
(544,0,l),
(684,700,l),
(507,700,l),
(465,489,ls),
(445,390,o),
(410,346,o),
(333,346,cs),
(281,346,o),
(241,385,o),
(260,478,cs),
(305,700,l),
(128,700,l),
(80,458,ls),
(48,298,o),
(135,201,o),
(249,201,cs),
(328,201,o),
(375,221,o),
(418,254,c),
(393,129,l)
);
}
);
width = 658;
}
);
unicode = 1227;
},
{
glyphname = Chetailcyr;
layers = (
{
layerId = "0D856A57-F1E8-4B9B-A293-C2F37DF93F32";
shapes = (
{
closed = 1;
nodes = (
(92,448,ls),
(65,313,o),
(129,228,o),
(274,228,cs),
(352,228,o),
(451,273,o),
(511,344,c),
(442,0,l),
(544,0,l),
(522,-110,l),
(558,-110,l),
(587,36,l),
(487,36,l),
(620,700,l),
(582,700,l),
(536,469,ls),
(512,351,o),
(405,269,o),
(275,269,cs),
(161,269,o),
(111,346,o),
(133,458,cs),
(181,700,l),
(143,700,l)
);
}
);
width = 680;
},
{
layerId = "4DCA89B8-DFE6-4DD8-9DE5-D8A3D5DAECAB";
shapes = (
{
closed = 1;
nodes = (
(90,453,ls),
(61,310,o),
(133,221,o),
(272,221,cs),
(348,221,o),
(432,258,o),
(487,317,c),
(423,0,l),
(539,0,l),
(517,-110,l),
(587,-110,l),
(620,59,l),
(508,59,l),
(636,700,l),
(563,700,l),
(519,476,ls),
(496,361,o),
(407,288,o),
(289,288,cs),
(191,288,o),
(143,356,o),
(165,465,cs),
(212,700,l),
(139,700,l)
);
}
);
width = 705;
},
{
layerId = "5704134F-6EB5-4790-9409-A43A14941BD5";
shapes = (
{
closed = 1;
nodes = (
(80,458,ls),
(48,298,o),
(135,201,o),
(249,201,cs),
(328,201,o),
(375,221,o),
(418,254,c),
(367,0,l),
(525,0,l),
(503,-110,l),
(677,-110,l),
(725,129,l),
(570,129,l),
(684,700,l),
(507,700,l),
(465,489,ls),
(445,390,o),
(410,346,o),
(333,346,cs),
(281,346,o),
(241,385,o),
(260,478,cs),
(305,700,l),
(128,700,l)
);
}
);
width = 781;
}
);
unicode = 1206;
},
{
glyphname = Chevertcyr;
layers = (
{
layerId = "0D856A57-F1E8-4B9B-A293-C2F37DF93F32";
shapes = (
{
closed = 1;
nodes = (
(315,511,l),
(266,269,l),
(159,273,o),
(111,349,o),
(133,458,cs),
(181,700,l),
(143,700,l),
(92,448,ls),
(66,318,o),
(124,234,o),
(258,228,c),
(239,134,l),
(270,134,l),
(289,229,l),
(364,234,o),
(454,277,o),
(511,344,c),
(442,0,l),
(480,0,l),
(620,700,l),
(582,700,l),
(536,469,ls),
(514,358,o),
(417,278,o),
(297,270,c),
(345,511,l)
);
}
);
width = 607;
},
{
layerId = "4DCA89B8-DFE6-4DD8-9DE5-D8A3D5DAECAB";
shapes = (
{
closed = 1;
nodes = (
(320,548,l),
(269,289,l),
(185,298,o),
(145,364,o),
(165,465,cs),
(212,700,l),
(139,700,l),
(90,453,ls),
(63,316,o),
(127,228,o),
(255,221,c),
(235,121,l),
(293,121,l),
(314,225,l),
(378,235,o),
(442,269,o),
(487,317,c),
(423,0,l),
(496,0,l),
(636,700,l),
(563,700,l),
(519,476,ls),
(499,374,o),
(426,305,o),
(327,291,c),
(378,548,l)
);
}
);
width = 619;
},
{
layerId = "5704134F-6EB5-4790-9409-A43A14941BD5";
shapes = (
{
closed = 1;
nodes = (
(338,661,l),
(279,366,l),
(258,386,o),
(249,423,o),
(260,478,cs),
(305,700,l),
(128,700,l),
(80,458,ls),
(48,299,o),
(134,203,o),
(246,201,c),
(222,83,l),
(363,83,l),
(394,237,l),
(402,242,o),
(410,248,o),
(418,254,c),
(367,0,l),
(544,0,l),
(684,700,l),
(507,700,l),
(465,489,ls),
(456,442,o),
(443,407,o),
(424,384,c),
(479,661,l)
);
}
);
width = 658;
}
);
unicode = 1208;
},
{
glyphname = Chi;
layers = (
{
layerId = "0D856A57-F1E8-4B9B-A293-C2F37DF93F32";
shapes = (
{
closed = 1;
nodes = (
(310,364,l),
(-19,0,l),
(27,0,l),
(326,335,l),
(491,0,l),
(538,0,l),
(354,365,l),
(656,699,l),
(610,699,l),
(339,395,l),
(188,699,l),
(141,699,l)
);
}
);
width = 638;
},
{
layerId = "4DCA89B8-DFE6-4DD8-9DE5-D8A3D5DAECAB";
shapes = (
{
closed = 1;
nodes = (
(300,364,l),
(-32,0,l),
(52,0,l),
(327,311,l),
(478,0,l),
(563,0,l),
(376,365,l),
(681,700,l),
(598,700,l),
(350,419,l),
(213,700,l),
(128,700,l)
);
}
);
width = 651;
},
{
layerId = "5704134F-6EB5-4790-9409-A43A14941BD5";
shapes = (
{
closed = 1;
nodes = (
(262,364,l),
(-69,0,l),
(127,0,l),
(329,229,l),
(440,0,l),
(640,0,l),
(452,365,l),
(760,703,l),
(564,703,l),
(385,502,l),
(288,703,l),
(88,703,l)
);
}
);
width = 691;
}
);
unicode = 935;
},
{
glyphname = Chook;
layers = (
{
layerId = "0D856A57-F1E8-4B9B-A293-C2F37DF93F32";
shapes = (
{
closed = 1;
nodes = (
(26,138,o),
(126,-11,o),
(308,-11,cs),
(463,-11,o),
(576,73,o),
(635,213,c),
(597,228,l),
(550,101,o),
(453,29,o),
(316,29,cs),
(156,29,o),
(70,161,o),
(108,349,cs),
(146,537,o),
(283,668,o),
(443,668,cs),
(566,668,o),
(634,614,o),
(651,496,c),
(691,511,l),
(718,646,l),
(727,693,o),
(765,725,o),
(811,725,c),
(811,725,l),
(820,770,l),
(820,770,l),
(749,763,o),
(687,710,o),
(672,636,cs),
(665,602,l),
(628,670,o),
(556,707,o),
(451,707,cs),
(269,707,o),
(110,560,o),
(68,349,cs)
);
}
);
width = 722;
},
{
layerId = "4DCA89B8-DFE6-4DD8-9DE5-D8A3D5DAECAB";
shapes = (
{
closed = 1;
nodes = (
(22,138,o),
(125,-10,o),
(312,-10,cs),
(464,-10,o),
(587,77,o),
(646,215,c),
(582,240,l),
(540,127,o),
(446,59,o),
(326,59,cs),
(182,59,o),
(105,179,o),
(139,349,cs),
(173,519,o),
(298,639,o),
(442,639,cs),
(554,639,o),
(622,579,o),
(629,478,c),
(704,503,l),
(732,646,ls),
(741,692,o),
(778,723,o),
(823,723,cs),
(835,723,l),
(849,794,l),
(841,794,ls),
(756,794,o),
(684,733,o),
(667,646,cs),
(661,618,l),
(618,675,o),
(549,708,o),
(456,708,cs),
(269,708,o),
(106,560,o),
(64,349,cs)
);
}
);
width = 751;
},
{
layerId = "5704134F-6EB5-4790-9409-A43A14941BD5";
shapes = (
{
closed = 1;
nodes = (
(13,139,o),
(124,-8,o),
(324,-8,cs),
(479,-8,o),
(623,81,o),
(678,201,c),
(531,256,l),
(502,191,o),
(431,139,o),
(355,139,cs),
(258,139,o),
(207,226,o),
(232,350,cs),
(257,475,o),
(343,562,o),
(443,562,cs),
(519,562,o),
(569,512,o),
(569,448,c),
(746,504,l),
(774,646,ls),
(783,690,o),
(816,718,o),
(860,718,cs),
(921,718,l),
(950,865,l),
(872,865,ls),
(766,865,o),
(673,788,o),
(651,678,cs),
(647,656,l),
(600,690,o),
(538,711,o),
(465,711,cs),
(268,711,o),
(97,561,o),
(55,350,cs)
);
}
);
width = 838;
}
);
unicode = 391;
},
{
glyphname = D;
layers = (
{
layerId = "0D856A57-F1E8-4B9B-A293-C2F37DF93F32";
shapes = (
{
closed = 1;
nodes = (
(7,0,l),
(245,0,ls),
(461,0,o),
(594,173,o),
(629,350,cs),
(664,526,o),
(601,699,o),
(385,699,cs),
(147,699,l)
);
},
{
closed = 1;
nodes = (
(179,664,l),
(372,664,ls),
(565,664,o),
(618,502,o),
(588,350,cs),
(557,197,o),
(440,35,o),
(247,35,cs),
(54,35,l)
);
}
);
width = 658;
},
{
layerId = "4DCA89B8-DFE6-4DD8-9DE5-D8A3D5DAECAB";
shapes = (
{
closed = 1;
nodes = (
(4,0,l),
(252,0,ls),
(472,0,o),
(607,175,o),
(642,350,cs),
(677,525,o),
(612,700,o),
(392,700,cs),
(144,700,l)
);
},
{
closed = 1;
nodes = (
(203,633,l),
(372,633,ls),
(546,633,o),
(596,492,o),
(568,350,cs),
(540,208,o),
(433,67,o),
(259,67,cs),
(90,67,l)
);
}
);
width = 668;
},
{
layerId = "5704134F-6EB5-4790-9409-A43A14941BD5";
shapes = (
{
closed = 1;
nodes = (
(-7,0,l),
(270,0,ls),
(507,0,o),
(649,181,o),
(683,351,cs),
(717,522,o),
(648,703,o),
(411,703,cs),
(133,703,l)
);
},
{
closed = 1;
nodes = (
(280,563,l),
(377,563,ls),
(497,563,o),
(530,471,o),
(506,352,cs),
(482,234,o),
(413,142,o),
(293,142,cs),
(196,142,l)
);
}
);
width = 701;
}
);
unicode = 68;
},
{
glyphname = Dafrican;
layers = (
{
layerId = "0D856A57-F1E8-4B9B-A293-C2F37DF93F32";
shapes = (
{
closed = 1;
nodes = (
(70,0,l),
(308,0,ls),
(524,0,o),
(657,173,o),
(692,350,cs),
(727,526,o),
(664,699,o),
(448,699,cs),
(210,699,l),
(144,368,l),
(53,368,l),
(45,332,l),
(137,332,l)
);
},
{
closed = 1;
nodes = (
(242,664,l),
(435,664,ls),
(628,664,o),
(682,502,o),
(652,350,cs),
(621,197,o),
(503,35,o),
(310,35,cs),
(116,35,l),
(176,332,l),
(395,332,l),
(403,368,l),
(183,368,l)
);
}
);
width = 721;
},
{
layerId = "4DCA89B8-DFE6-4DD8-9DE5-D8A3D5DAECAB";
shapes = (
{
closed = 1;
nodes = (
(65,0,l),
(313,0,ls),
(533,0,o),
(668,175,o),
(703,350,cs),
(738,525,o),
(672,700,o),
(452,700,cs),
(204,700,l),
(141,380,l),
(52,380,l),
(41,321,l),
(129,321,l)
);
},
{
closed = 1;
nodes = (
(264,633,l),
(433,633,ls),
(607,633,o),
(656,492,o),
(628,350,cs),
(600,208,o),
(494,67,o),
(320,67,cs),
(151,67,l),
(201,321,l),
(414,321,l),
(426,380,l),
(213,380,l)
);
}
);
width = 729;
},
{
layerId = "5704134F-6EB5-4790-9409-A43A14941BD5";
shapes = (
{
closed = 1;
nodes = (
(48,0,l),
(325,0,ls),
(562,0,o),
(704,181,o),
(738,351,cs),
(772,522,o),
(702,703,o),
(465,703,cs),
(188,703,l),
(131,416,l),
(51,416,l),
(26,288,l),
(105,288,l)
);
},
{
closed = 1;
nodes = (
(336,568,l),
(433,568,ls),
(553,568,o),
(585,474,o),
(560,351,cs),
(536,231,o),
(466,137,o),
(346,137,cs),
(249,137,l),
(280,288,l),
(472,288,l),
(497,416,l),
(305,416,l)
);
}
);
width = 756;
}
);
unicode = 393;
},
{
glyphname = Dcaron;
layers = (
{
layerId = "0D856A57-F1E8-4B9B-A293-C2F37DF93F32";
shapes = (
{
closed = 1;
nodes = (
(7,0,l),
(245,0,ls),
(461,0,o),
(594,173,o),
(629,350,cs),
(664,526,o),
(601,699,o),
(385,699,cs),
(147,699,l)
);
},
{
closed = 1;
nodes = (
(179,664,l),
(372,664,ls),
(565,664,o),
(618,502,o),
(588,350,cs),
(557,197,o),
(440,35,o),
(247,35,cs),
(54,35,l)
);
},
{
closed = 1;
nodes = (
(560,919,l),
(522,919,l),
(422,847,l),
(349,919,l),
(311,919,l),
(394,810,l),
(434,810,l)
);
}
);
width = 658;
},
{
layerId = "4DCA89B8-DFE6-4DD8-9DE5-D8A3D5DAECAB";
shapes = (
{
closed = 1;
nodes = (
(4,0,l),
(252,0,ls),
(472,0,o),
(607,175,o),
(642,350,cs),
(677,525,o),
(612,700,o),
(392,700,cs),
(144,700,l)
);
},
{
closed = 1;
nodes = (
(203,633,l),
(372,633,ls),
(546,633,o),
(596,492,o),
(568,350,cs),
(540,208,o),
(433,67,o),
(259,67,cs),
(90,67,l)
);
},
{
closed = 1;
nodes = (
(596,908,l),
(532,908,l),
(442,843,l),
(376,908,l),
(313,908,l),
(403,788,l),
(457,788,l)
);
}
);
width = 668;
},
{
layerId = "5704134F-6EB5-4790-9409-A43A14941BD5";
shapes = (
{
closed = 1;
nodes = (
(-7,0,l),
(270,0,ls),
(507,0,o),
(649,181,o),
(683,351,cs),
(717,522,o),
(648,703,o),
(411,703,cs),
(133,703,l)
);
},
{
closed = 1;
nodes = (
(280,563,l),
(377,563,ls),
(497,563,o),
(530,471,o),
(506,352,cs),
(482,234,o),
(413,142,o),
(293,142,cs),
(196,142,l)
);
},
{
closed = 1;
nodes = (
(706,875,l),
(565,875,l),
(506,832,l),
(463,875,l),
(321,875,l),
(435,722,l),
(530,722,l)
);
}
);
width = 701;
}
);
unicode = 270;
},
{
glyphname = Dcircumflexbelow;
layers = (
{
layerId = "0D856A57-F1E8-4B9B-A293-C2F37DF93F32";
shapes = (
{
closed = 1;
nodes = (
(7,0,l),
(245,0,ls),
(461,0,o),
(594,173,o),
(629,350,cs),
(664,526,o),
(601,699,o),
(385,699,cs),
(147,699,l)
);
},
{
closed = 1;
nodes = (
(179,664,l),
(372,664,ls),
(565,664,o),
(618,502,o),
(588,350,cs),
(557,197,o),
(440,35,o),
(247,35,cs),
(54,35,l)
);
},
{
closed = 1;
nodes = (
(229,-99,l),
(102,-208,l),
(140,-208,l),
(242,-135,l),
(314,-208,l),
(352,-208,l),
(269,-99,l)
);
}
);
width = 658;
},
{
layerId = "4DCA89B8-DFE6-4DD8-9DE5-D8A3D5DAECAB";
shapes = (
{
closed = 1;
nodes = (
(4,0,l),
(252,0,ls),
(472,0,o),
(607,175,o),
(642,350,cs),
(677,525,o),
(612,700,o),
(392,700,cs),
(144,700,l)
);
},
{
closed = 1;
nodes = (
(203,633,l),
(372,633,ls),
(546,633,o),
(596,492,o),
(568,350,cs),
(540,208,o),
(433,67,o),
(259,67,cs),
(90,67,l)
);
},
{
closed = 1;
nodes = (
(229,-85,l),
(90,-205,l),
(154,-205,l),
(245,-140,l),
(310,-205,l),
(373,-205,l),
(283,-85,l)
);
}
);
width = 668;
},
{
layerId = "5704134F-6EB5-4790-9409-A43A14941BD5";
shapes = (
{
closed = 1;
nodes = (
(-7,0,l),
(270,0,ls),
(507,0,o),
(649,181,o),
(683,351,cs),
(717,522,o),
(648,703,o),
(411,703,cs),
(133,703,l)
);
},
{
closed = 1;
nodes = (
(280,563,l),
(377,563,ls),
(497,563,o),
(530,471,o),
(506,352,cs),
(482,234,o),
(413,142,o),
(293,142,cs),
(196,142,l)
);
},
{
closed = 1;
nodes = (
(230,-44,l),
(54,-197,l),
(196,-197,l),
(257,-155,l),
(298,-197,l),
(439,-197,l),
(325,-44,l)
);
}
);
width = 701;
}
);
unicode = 7698;
},
{
glyphname = Dcroat;
layers = (
{
layerId = "0D856A57-F1E8-4B9B-A293-C2F37DF93F32";
shapes = (
{
closed = 1;
nodes = (
(70,0,l),
(308,0,ls),
(524,0,o),
(657,173,o),
(692,350,cs),
(727,526,o),
(664,699,o),
(448,699,cs),
(210,699,l),
(144,368,l),
(53,368,l),
(45,332,l),
(137,332,l)
);
},
{
closed = 1;
nodes = (
(242,664,l),
(435,664,ls),
(628,664,o),
(682,502,o),
(652,350,cs),
(621,197,o),
(503,35,o),
(310,35,cs),
(116,35,l),
(176,332,l),
(395,332,l),
(403,368,l),
(183,368,l)
);
}
);
width = 721;
},
{
layerId = "4DCA89B8-DFE6-4DD8-9DE5-D8A3D5DAECAB";
shapes = (
{
closed = 1;
nodes = (
(65,0,l),
(313,0,ls),
(533,0,o),
(668,175,o),
(703,350,cs),
(738,525,o),
(672,700,o),
(452,700,cs),
(204,700,l),
(141,380,l),
(52,380,l),
(41,321,l),
(129,321,l)
);
},
{
closed = 1;
nodes = (
(264,633,l),
(433,633,ls),
(607,633,o),
(656,492,o),
(628,350,cs),
(600,208,o),
(494,67,o),
(320,67,cs),
(151,67,l),
(201,321,l),
(414,321,l),
(426,380,l),
(213,380,l)
);
}
);
width = 729;
},
{
layerId = "5704134F-6EB5-4790-9409-A43A14941BD5";
shapes = (
{
closed = 1;
nodes = (
(48,0,l),
(325,0,ls),
(562,0,o),
(704,181,o),
(738,351,cs),
(772,522,o),
(702,703,o),
(465,703,cs),
(188,703,l),
(131,416,l),
(51,416,l),
(26,288,l),
(105,288,l)
);
},
{
closed = 1;
nodes = (
(336,568,l),
(433,568,ls),
(553,568,o),
(585,474,o),
(560,351,cs),
(536,231,o),
(466,137,o),
(346,137,cs),
(249,137,l),
(280,288,l),
(472,288,l),
(497,416,l),
(305,416,l)
);
}
);
width = 756;
}
);
unicode = 272;
},
{
glyphname = Ddotbelow;
layers = (
{
layerId = "0D856A57-F1E8-4B9B-A293-C2F37DF93F32";
shapes = (
{
closed = 1;
nodes = (
(7,0,l),
(245,0,ls),
(461,0,o),
(594,173,o),
(629,350,cs),
(664,526,o),
(601,699,o),
(385,699,cs),
(147,699,l)
);
},
{
closed = 1;
nodes = (
(179,664,l),
(372,664,ls),
(565,664,o),
(618,502,o),
(588,350,cs),
(557,197,o),
(440,35,o),
(247,35,cs),
(54,35,l)
);
},
{
closed = 1;
nodes = (
(273,-118,l),
(285,-55,l),
(230,-55,l),
(217,-118,l)
);
}
);
width = 658;
},
{
layerId = "4DCA89B8-DFE6-4DD8-9DE5-D8A3D5DAECAB";
shapes = (
{
closed = 1;
nodes = (
(4,0,l),
(252,0,ls),
(472,0,o),
(607,175,o),
(642,350,cs),
(677,525,o),
(612,700,o),
(392,700,cs),
(144,700,l)
);
},
{
closed = 1;
nodes = (
(203,633,l),
(372,633,ls),
(546,633,o),
(596,492,o),
(568,350,cs),
(540,208,o),
(433,67,o),
(259,67,cs),
(90,67,l)
);
},
{
closed = 1;
nodes = (
(288,-145,l),
(305,-60,l),
(216,-60,l),
(199,-145,l)
);
}
);
width = 668;
},
{
layerId = "5704134F-6EB5-4790-9409-A43A14941BD5";
shapes = (
{
closed = 1;
nodes = (
(-7,0,l),
(270,0,ls),
(507,0,o),
(649,181,o),
(683,351,cs),
(717,522,o),
(648,703,o),
(411,703,cs),
(133,703,l)
);
},
{
closed = 1;
nodes = (
(280,563,l),
(377,563,ls),
(497,563,o),
(530,471,o),
(506,352,cs),
(482,234,o),
(413,142,o),
(293,142,cs),
(196,142,l)
);
},
{
closed = 1;
nodes = (
(337,-228,l),
(368,-76,l),
(178,-76,l),
(147,-228,l)
);
}
);
width = 701;
}
);
unicode = 7692;
},
{
glyphname = DeCy.loclBGR;
layers = (
{
layerId = "0D856A57-F1E8-4B9B-A293-C2F37DF93F32";
shapes = (
{
closed = 1;
nodes = (
(-60,-150,l),
(-22,-150,l),
(8,1,l),
(602,1,l),
(572,-150,l),
(610,-150,l),
(648,36,l),
(601,36,l),
(469,699,l),
(420,699,l),
(23,36,l),
(-23,36,l)
);
},
{
closed = 1;
nodes = (
(62,36,l),
(437,658,l),
(562,36,l)
);
}
);
width = 730;
},
{
layerId = "4DCA89B8-DFE6-4DD8-9DE5-D8A3D5DAECAB";
shapes = (
{
closed = 1;
nodes = (
(-63,-150,l),
(10,-150,l),
(40,0,l),
(576,0,l),
(546,-150,l),
(618,-150,l),
(662,66,l),
(612,66,l),
(495,700,l),
(400,700,l),
(30,66,l),
(-20,66,l)
);
},
{
closed = 1;
nodes = (
(105,66,l),
(435,632,l),
(537,66,l)
);
}
);
width = 735;
},
{
layerId = "5704134F-6EB5-4790-9409-A43A14941BD5";
shapes = (
{
closed = 1;
nodes = (
(-70,-150,l),
(106,-150,l),
(136,0,l),
(496,0,l),
(466,-150,l),
(643,-150,l),
(700,136,l),
(649,136,l),
(543,703,l),
(370,703,l),
(39,136,l),
(-13,136,l)
);
},
{
closed = 1;
nodes = (
(218,136,l),
(412,477,l),
(469,136,l)
);
}
);
width = 752;
}
);
},
{
glyphname = Decyr;
layers = (
{
layerId = "0D856A57-F1E8-4B9B-A293-C2F37DF93F32";
shapes = (
{
closed = 1;
nodes = (
(-63,-150,l),
(-24,-150,l),
(6,1,l),
(542,1,l),
(512,-150,l),
(550,-150,l),
(587,36,l),
(511,36,l),
(643,700,l),
(273,700,l),
(114,145,ls),
(97,85,o),
(44,36,o),
(-22,36,cs),
(-26,36,l)
);
},
{
closed = 1;
nodes = (
(298,665,l),
(597,665,l),
(471,36,l),
(75,36,l),
(107,56,o),
(135,91,o),
(151,147,cs)
);
}
);
width = 667;
},
{
layerId = "4DCA89B8-DFE6-4DD8-9DE5-D8A3D5DAECAB";
shapes = (
{
closed = 1;
nodes = (
(-63,-150,l),
(10,-150,l),
(40,0,l),
(537,0,l),
(507,-150,l),
(579,-150,l),
(622,66,l),
(544,66,l),
(671,700,l),
(272,700,l),
(116,163,ls),
(100,105,o),
(57,66,o),
(1,66,cs),
(-20,66,l)
);
},
{
closed = 1;
nodes = (
(323,634,l),
(585,634,l),
(471,66,l),
(131,66,l),
(156,87,o),
(174,116,o),
(185,155,cs)
);
}
);
width = 696;
},
{
layerId = "5704134F-6EB5-4790-9409-A43A14941BD5";
shapes = (
{
closed = 1;
nodes = (
(-63,-150,l),
(114,-150,l),
(144,0,l),
(522,0,l),
(492,-150,l),
(668,-150,l),
(726,136,l),
(642,136,l),
(755,700,l),
(270,700,l),
(122,201,ls),
(107,149,o),
(93,136,o),
(66,136,cs),
(-6,136,l)
);
},
{
closed = 1;
nodes = (
(405,564,l),
(553,564,l),
(468,136,l),
(266,136,l),
(279,152,o),
(288,169,o),
(294,187,c)
);
}
);
width = 785;
}
);
unicode = 1044;
},
{
glyphname = Delta;
layers = (
{
layerId = "0D856A57-F1E8-4B9B-A293-C2F37DF93F32";
shapes = (
{
closed = 1;
nodes = (
(-20,0,l),
(585,0,l),
(447,699,l),
(397,699,l)
);
},
{
closed = 1;
nodes = (
(41,36,l),
(414,656,l),
(538,36,l)
);
}
);
width = 684;
},
{
layerId = "4DCA89B8-DFE6-4DD8-9DE5-D8A3D5DAECAB";
shapes = (
{
closed = 1;
nodes = (
(-28,0,l),
(604,0,l),
(475,700,l),
(380,700,l)
);
},
{
closed = 1;
nodes = (
(85,66,l),
(415,632,l),
(517,66,l)
);
}
);
width = 695;
},
{
layerId = "5704134F-6EB5-4790-9409-A43A14941BD5";
shapes = (
{
closed = 1;
nodes = (
(-52,0,l),
(663,0,l),
(533,703,l),
(359,703,l)
);
},
{
closed = 1;
nodes = (
(207,136,l),
(400,478,l),
(458,136,l)
);
}
);
width = 730;
}
);
unicode = 916;
},
{
glyphname = Dhook;
layers = (
{
layerId = "0D856A57-F1E8-4B9B-A293-C2F37DF93F32";
shapes = (
{
closed = 1;
nodes = (
(125,0,l),
(364,0,ls),
(580,0,o),
(712,173,o),
(747,350,cs),
(782,526,o),
(719,699,o),
(503,699,cs),
(223,699,ls),
(146,699,o),
(82,652,o),
(68,584,c),
(67,580,l),
(104,580,l),
(105,585,ls),
(114,632,o),
(155,664,o),
(206,664,cs),
(258,664,l)
);
},
{
closed = 1;
nodes = (
(297,664,l),
(490,664,ls),
(683,664,o),
(736,502,o),
(706,350,cs),
(675,197,o),
(558,35,o),
(365,35,cs),
(172,35,l)
);
}
);
width = 776;
},
{
layerId = "4DCA89B8-DFE6-4DD8-9DE5-D8A3D5DAECAB";
shapes = (
{
closed = 1;
nodes = (
(134,0,l),
(382,0,ls),
(602,0,o),
(738,175,o),
(773,350,cs),
(808,525,o),
(742,700,o),
(522,700,cs),
(236,700,ls),
(151,700,o),
(78,639,o),
(61,552,c),
(60,544,l),
(129,544,l),
(132,556,l),
(141,602,o),
(177,633,o),
(222,633,cs),
(261,633,l)
);
},
{
closed = 1;
nodes = (
(333,633,l),
(503,633,ls),
(677,633,o),
(726,492,o),
(698,350,cs),
(670,208,o),
(564,67,o),
(390,67,cs),
(220,67,l)
);
}
);
width = 798;
},
{
layerId = "5704134F-6EB5-4790-9409-A43A14941BD5";
shapes = (
{
closed = 1;
nodes = (
(161,0,l),
(438,0,ls),
(675,0,o),
(817,181,o),
(851,351,cs),
(885,522,o),
(815,703,o),
(578,703,cs),
(275,703,ls),
(167,703,o),
(76,624,o),
(54,516,cs),
(38,436,l),
(182,436,l),
(194,498,ls),
(203,541,o),
(234,569,o),
(275,571,c),
(275,571,l)
);
},
{
closed = 1;
nodes = (
(448,563,l),
(545,563,ls),
(665,563,o),
(698,471,o),
(674,352,cs),
(650,234,o),
(580,142,o),
(460,142,cs),
(363,142,l)
);
}
);
width = 869;
}
);
unicode = 394;
},
{
glyphname = Digamma;
layers = (
{
layerId = "0D856A57-F1E8-4B9B-A293-C2F37DF93F32";
shapes = (
{
closed = 1;
nodes = (
(7,0,l),
(47,0,l),
(114,340,l),
(469,340,l),
(476,375,l),
(121,375,l),
(179,664,l),
(555,664,l),
(562,699,l),
(147,699,l)
);
}
);
width = 521;
},
{
layerId = "4DCA89B8-DFE6-4DD8-9DE5-D8A3D5DAECAB";
shapes = (
{
closed = 1;
nodes = (
(4,0,l),
(76,0,l),
(140,321,l),
(484,321,l),
(498,387,l),
(154,387,l),
(203,634,l),
(566,634,l),
(580,700,l),
(144,700,l)
);
}
);
width = 536;
},
{
layerId = "5704134F-6EB5-4790-9409-A43A14941BD5";
shapes = (
{
closed = 1;
nodes = (
(-7,0,l),
(167,0,l),
(225,288,l),
(535,288,l),
(562,423,l),
(252,423,l),
(281,569,l),
(608,569,l),
(635,703,l),
(133,703,l)
);
}
);
width = 581;
}
);
unicode = 988;
},
{
glyphname = Digammapamphylian;
layers = (
{
layerId = "0D856A57-F1E8-4B9B-A293-C2F37DF93F32";
shapes = (
{
closed = 1;
nodes = (
(619,699,l),
(57,54,l),
(186,699,l),
(147,699,l),
(7,0,l),
(53,0,l),
(615,645,l),
(487,0,l),
(526,0,l),
(665,699,l)
);
}
);
width = 652;
},
{
layerId = "4DCA89B8-DFE6-4DD8-9DE5-D8A3D5DAECAB";
shapes = (
{
closed = 1;
nodes = (
(607,700,l),
(100,119,l),
(216,700,l),
(144,700,l),
(4,0,l),
(76,0,l),
(583,581,l),
(467,0,l),
(540,0,l),
(680,700,l)
);
}
);
width = 663;
},
{
layerId = "5704134F-6EB5-4790-9409-A43A14941BD5";
shapes = (
{
closed = 1;
nodes = (
(570,703,l),
(230,316,l),
(308,703,l),
(133,703,l),
(-7,0,l),
(147,0,l),
(486,387,l),
(408,0,l),
(584,0,l),
(724,703,l)
);
}
);
width = 697;
}
);
unicode = 886;
},
{
glyphname = Djecyr;
layers = (
{
layerId = "0D856A57-F1E8-4B9B-A293-C2F37DF93F32";
shapes = (
{
closed = 1;
nodes = (
(119,699,l),
(112,664,l),
(345,664,l),
(212,0,l),
(251,0,l),
(298,235,ls),
(322,354,o),
(428,436,o),
(559,436,cs),
(689,436,o),
(734,329,o),
(713,226,cs),
(693,124,o),
(613,25,o),
(497,25,c),
(483,-10,l),
(631,-10,o),
(729,107,o),
(752,223,cs),
(777,346,o),
(721,471,o),
(559,471,cs),
(481,471,o),
(383,427,o),
(322,356,c),
(383,664,l),
(617,664,l),
(624,699,l)
);
}
);
width = 807;
},
{
layerId = "4DCA89B8-DFE6-4DD8-9DE5-D8A3D5DAECAB";
shapes = (
{
closed = 1;
nodes = (
(116,700,l),
(103,634,l),
(328,634,l),
(202,0,l),
(274,0,l),
(319,224,ls),
(342,339,o),
(431,412,o),
(549,412,cs),
(662,412,o),
(701,323,o),
(683,235,cs),
(665,146,o),
(591,57,o),
(478,57,c),
(468,-10,l),
(629,-10,o),
(732,111,o),
(756,232,cs),
(781,355,o),
(725,479,o),
(566,479,cs),
(490,479,o),
(406,442,o),
(351,383,c),
(401,634,l),
(626,634,l),
(640,700,l)
);
}
);
width = 809;
},
{
layerId = "5704134F-6EB5-4790-9409-A43A14941BD5";
shapes = (
{
closed = 1;
nodes = (
(109,703,l),
(82,569,l),
(284,569,l),
(170,0,l),
(346,0,l),
(387,201,ls),
(408,307,o),
(444,354,o),
(521,354,cs),
(579,354,o),
(602,311,o),
(592,261,cs),
(580,201,o),
(520,134,o),
(418,134,c),
(426,-10,l),
(624,-10,o),
(741,124,o),
(767,256,cs),
(792,379,o),
(735,499,o),
(586,499,cs),
(516,499,o),
(476,486,o),
(439,465,c),
(460,569,l),
(661,569,l),
(688,703,l)
);
}
);
width = 815;
}
);
unicode = 1026;
},
{
glyphname = Dlinebelow;
layers = (
{
layerId = "0D856A57-F1E8-4B9B-A293-C2F37DF93F32";
shapes = (
{
closed = 1;
nodes = (
(7,0,l),
(245,0,ls),
(461,0,o),
(594,173,o),
(629,350,cs),
(664,526,o),
(601,699,o),
(385,699,cs),
(147,699,l)
);
},
{
closed = 1;
nodes = (
(179,664,l),
(372,664,ls),
(565,664,o),
(618,502,o),
(588,350,cs),
(557,197,o),
(440,35,o),
(247,35,cs),
(54,35,l)
);
},
{
closed = 1;
nodes = (
(106,-115,l),
(384,-115,l),
(393,-69,l),
(115,-69,l)
);
}
);
width = 658;
},
{
layerId = "4DCA89B8-DFE6-4DD8-9DE5-D8A3D5DAECAB";
shapes = (
{
closed = 1;
nodes = (
(4,0,l),
(252,0,ls),
(472,0,o),
(607,175,o),
(642,350,cs),
(677,525,o),
(612,700,o),
(392,700,cs),
(144,700,l)
);
},
{
closed = 1;
nodes = (
(203,633,l),
(372,633,ls),
(546,633,o),
(596,492,o),
(568,350,cs),
(540,208,o),
(433,67,o),
(259,67,cs),
(90,67,l)
);
},
{
closed = 1;
nodes = (
(100,-128,l),
(395,-128,l),
(406,-69,l),
(111,-69,l)
);
}
);
width = 668;
},
{
layerId = "5704134F-6EB5-4790-9409-A43A14941BD5";
shapes = (
{
closed = 1;
nodes = (
(-7,0,l),
(270,0,ls),
(507,0,o),
(649,181,o),
(683,351,cs),
(717,522,o),
(648,703,o),
(411,703,cs),
(133,703,l)
);
},
{
closed = 1;
nodes = (
(280,563,l),
(377,563,ls),
(497,563,o),
(530,471,o),
(506,352,cs),
(482,234,o),
(413,142,o),
(293,142,cs),
(196,142,l)
);
},
{
closed = 1;
nodes = (
(82,-168,l),
(428,-168,l),
(447,-70,l),
(101,-70,l)
);
}
);
width = 701;
}
);
unicode = 7694;
},
{
glyphname = Dzeabkhcyr;
layers = (
{
layerId = "0D856A57-F1E8-4B9B-A293-C2F37DF93F32";
shapes = (
{
closed = 1;
nodes = (
(385,376,o),
(472,324,o),
(447,198,cs),
(431,117,o),
(359,26,o),
(244,26,cs),
(139,26,o),
(71,86,o),
(62,178,c),
(21,165,l),
(35,53,o),
(117,-12,o),
(239,-12,cs),
(378,-12,o),
(466,93,o),
(487,197,cs),
(517,348,o),
(404,424,o),
(265,406,c),
(560,665,l),
(567,699,l),
(172,699,l),
(165,666,l),
(514,666,l),
(182,375,l),
(195,354,l),
(225,369,o),
(262,376,o),
(300,376,cs)
);
}
);
width = 564;
},
{
layerId = "4DCA89B8-DFE6-4DD8-9DE5-D8A3D5DAECAB";
shapes = (
{
closed = 1;
nodes = (
(379,357,o),
(453,310,o),
(432,206,cs),
(417,132,o),
(352,59,o),
(252,59,cs),
(157,59,o),
(96,115,o),
(90,202,c),
(15,177,l),
(26,63,o),
(110,-10,o),
(240,-10,cs),
(389,-10,o),
(485,96,o),
(506,203,cs),
(528,312,o),
(472,423,o),
(317,423,c),
(571,634,l),
(584,700,l),
(165,700,l),
(152,634,l),
(476,634,l),
(174,382,l),
(195,334,l),
(226,349,o),
(262,357,o),
(296,357,cs)
);
}
);
width = 570;
},
{
layerId = "5704134F-6EB5-4790-9409-A43A14941BD5";
shapes = (
{
closed = 1;
nodes = (
(370,328,o),
(398,286,o),
(387,232,cs),
(374,165,o),
(326,138,o),
(269,138,cs),
(204,138,o),
(164,181,o),
(159,251,c),
(-6,195,l),
(-3,86,o),
(87,-4,o),
(243,-4,cs),
(421,-4,o),
(540,106,o),
(563,221,cs),
(582,316,o),
(532,411,o),
(413,446,c),
(617,593,l),
(639,703,l),
(145,703,l),
(118,567,l),
(368,567,l),
(151,400,l),
(200,302,l),
(233,317,o),
(270,328,o),
(292,328,cs)
);
}
);
width = 590;
}
);
unicode = 1248;
},
{
glyphname = Dzecyr;
layers = (
{
layerId = "0D856A57-F1E8-4B9B-A293-C2F37DF93F32";
shapes = (
{
closed = 1;
nodes = (
(247,707,o),
(150,638,o),
(128,527,cs),
(105,412,o),
(189,379,o),
(298,345,cs),
(398,313,o),
(493,281,o),
(473,179,cs),
(455,89,o),
(361,29,o),
(257,29,cs),
(143,29,o),
(72,104,o),
(65,213,c),
(18,197,l),
(34,66,o),
(124,-11,o),
(250,-11,cs),
(380,-11,o),
(491,67,o),
(515,189,cs),
(540,314,o),
(433,345,o),
(328,379,cs),
(237,408,o),
(149,432,o),
(168,529,cs),
(185,615,o),
(265,669,o),
(365,668,cs),
(455,667,o),
(526,627,o),
(529,536,c),
(575,552,l),
(556,653,o),
(479,707,o),
(369,707,cs)
);
}
);
width = 585;
},
{
layerId = "4DCA89B8-DFE6-4DD8-9DE5-D8A3D5DAECAB";
shapes = (
{
closed = 1;
nodes = (
(248,708,o),
(144,635,o),
(121,521,cs),
(97,402,o),
(188,365,o),
(296,331,cs),
(392,301,o),
(472,274,o),
(455,187,cs),
(439,109,o),
(360,59,o),
(269,59,cs),
(167,59,o),
(102,121,o),
(94,223,c),
(20,198,l),
(32,70,o),
(121,-10,o),
(256,-10,cs),
(391,-10,o),
(507,69,o),
(531,190,cs),
(558,323,o),
(445,359,o),
(342,392,cs),
(250,421,o),
(180,445,o),
(196,524,cs),
(210,595,o),
(278,639,o),
(365,639,cs),
(445,639,o),
(507,602,o),
(514,520,c),
(589,545,l),
(575,645,o),
(493,708,o),
(375,708,cs)
);
}
);
width = 598;
},
{
layerId = "5704134F-6EB5-4790-9409-A43A14941BD5";
shapes = (
{
closed = 1;
nodes = (
(256,711,o),
(137,626,o),
(112,502,cs),
(85,369,o),
(192,323,o),
(295,290,cs),
(374,264,o),
(413,250,o),
(404,203,cs),
(395,159,o),
(355,133,o),
(298,133,cs),
(235,133,o),
(195,165,o),
(183,253,c),
(24,201,l),
(23,83,o),
(113,-8,o),
(272,-8,cs),
(424,-8,o),
(556,75,o),
(583,209,cs),
(613,358,o),
(485,406,o),
(389,438,cs),
(297,468,o),
(287,488,o),
(293,516,cs),
(299,544,o),
(329,569,o),
(379,569,cs),
(429,569,o),
(461,543,o),
(471,483,c),
(633,534,l),
(633,627,o),
(539,711,o),
(397,711,cs)
);
}
);
width = 636;
}
);
unicode = 1029;
},
{
glyphname = Dzhecyr;
layers = (
{
layerId = "0D856A57-F1E8-4B9B-A293-C2F37DF93F32";
shapes = (
{
closed = 1;
nodes = (
(249,1,l),
(218,-150,l),
(255,-150,l),
(285,1,l),
(526,1,l),
(666,700,l),
(626,700,l),
(494,36,l),
(54,36,l),
(186,700,l),
(147,700,l),
(8,1,l)
);
}
);
width = 653;
},
{
layerId = "4DCA89B8-DFE6-4DD8-9DE5-D8A3D5DAECAB";
shapes = (
{
closed = 1;
nodes = (
(236,0,l),
(206,-150,l),
(278,-150,l),
(308,0,l),
(540,0,l),
(680,700,l),
(607,700,l),
(480,66,l),
(89,66,l),
(216,700,l),
(144,700,l),
(4,0,l)
);
}
);
width = 663;
},
{
layerId = "5704134F-6EB5-4790-9409-A43A14941BD5";
shapes = (
{
closed = 1;
nodes = (
(199,-3,l),
(170,-150,l),
(347,-150,l),
(377,0,l),
(584,0,l),
(724,700,l),
(548,700,l),
(435,136,l),
(194,136,l),
(307,700,l),
(133,700,l),
(-8,-3,l)
);
}
);
width = 696;
}
);
unicode = 1039;
},
{
glyphname = E;
layers = (
{
layerId = "0D856A57-F1E8-4B9B-A293-C2F37DF93F32";
shapes = (
{
closed = 1;
nodes = (
(7,0,l),
(422,0,l),
(429,35,l),
(54,35,l),
(114,340,l),
(459,340,l),
(466,375,l),
(121,375,l),
(179,664,l),
(555,664,l),
(562,699,l),
(147,699,l)
);
}
);
width = 521;
},
{
layerId = "4DCA89B8-DFE6-4DD8-9DE5-D8A3D5DAECAB";
shapes = (
{
closed = 1;
nodes = (
(4,0,l),
(440,0,l),
(453,66,l),
(89,66,l),
(140,321,l),
(475,321,l),
(488,387,l),
(154,387,l),
(203,634,l),
(566,634,l),
(580,700,l),
(144,700,l)
);
}
);
width = 536;
},
{
layerId = "5704134F-6EB5-4790-9409-A43A14941BD5";
shapes = (
{
closed = 1;
nodes = (
(-7,0,l),
(495,0,l),
(522,136,l),
(194,136,l),
(225,288,l),
(526,288,l),
(553,423,l),
(252,423,l),
(281,569,l),
(608,569,l),
(635,703,l),
(133,703,l)
);
}
);
width = 581;
}
);
unicode = 69;
},
{
glyphname = Eacute;
layers = (
{
layerId = "0D856A57-F1E8-4B9B-A293-C2F37DF93F32";
shapes = (
{
closed = 1;
nodes = (
(7,0,l),
(422,0,l),
(429,35,l),
(54,35,l),
(114,340,l),
(459,340,l),
(466,375,l),
(121,375,l),
(179,664,l),
(555,664,l),
(562,699,l),
(147,699,l)
);
},
{
closed = 1;
nodes = (
(415,900,l),
(303,789,l),
(339,789,l),
(470,900,l)
);
}
);
width = 521;
},
{
layerId = "4DCA89B8-DFE6-4DD8-9DE5-D8A3D5DAECAB";
shapes = (
{
closed = 1;
nodes = (
(4,0,l),
(440,0,l),
(453,66,l),
(89,66,l),
(140,321,l),
(475,321,l),
(488,387,l),
(154,387,l),
(203,634,l),
(566,634,l),
(580,700,l),
(144,700,l)
);
},
{
closed = 1;
nodes = (
(418,898,l),
(308,778,l),
(367,778,l),
(509,898,l)
);
}
);
width = 536;
},
{
layerId = "5704134F-6EB5-4790-9409-A43A14941BD5";
shapes = (
{
closed = 1;
nodes = (
(-7,0,l),
(495,0,l),
(522,136,l),
(194,136,l),
(225,288,l),
(526,288,l),
(553,423,l),
(252,423,l),
(281,569,l),
(608,569,l),
(635,703,l),
(133,703,l)
);
},
{
closed = 1;
nodes = (
(430,893,l),
(324,746,l),
(451,746,l),
(628,893,l)
);
}
);
width = 581;
}
);
unicode = 201;
},
{
glyphname = Ebreve;
layers = (
{
layerId = "0D856A57-F1E8-4B9B-A293-C2F37DF93F32";
shapes = (
{
closed = 1;
nodes = (
(7,0,l),
(422,0,l),
(429,35,l),
(54,35,l),
(114,340,l),
(459,340,l),
(466,375,l),
(121,375,l),
(179,664,l),
(555,664,l),
(562,699,l),
(147,699,l)
);
},
{
closed = 1;
nodes = (
(415,810,o),
(475,857,o),
(487,919,c),
(459,919,l),
(453,880,o),
(407,847,o),
(365,847,cs),
(321,847,o),
(288,880,o),
(297,919,c),
(270,919,l),
(258,857,o),
(298,810,o),
(357,810,cs)
);
}
);
width = 521;
},
{
layerId = "4DCA89B8-DFE6-4DD8-9DE5-D8A3D5DAECAB";
shapes = (
{
closed = 1;
nodes = (
(4,0,l),
(440,0,l),
(453,66,l),
(89,66,l),
(140,321,l),
(475,321,l),
(488,387,l),
(154,387,l),
(203,634,l),
(566,634,l),
(580,700,l),
(144,700,l)
);
},
{
closed = 1;
nodes = (
(433,788,o),
(497,841,o),
(510,908,c),
(461,908,l),
(454,872,o),
(415,842,o),
(376,842,cs),
(336,842,o),
(309,872,o),
(316,908,c),
(266,908,l),
(253,841,o),
(296,788,o),
(365,788,cs)
);
}
);
width = 536;
},
{
layerId = "5704134F-6EB5-4790-9409-A43A14941BD5";
shapes = (
{
closed = 1;
nodes = (
(-7,0,l),
(495,0,l),
(522,136,l),
(194,136,l),
(225,288,l),
(526,288,l),
(553,423,l),
(252,423,l),
(281,569,l),
(608,569,l),
(635,703,l),
(133,703,l)
);
},
{
closed = 1;
nodes = (
(488,722,o),
(568,794,o),
(584,875,c),
(465,875,l),
(455,848,o),
(440,827,o),
(412,827,cs),
(384,827,o),
(376,848,o),
(377,875,c),
(257,875,l),
(241,794,o),
(292,722,o),
(391,722,cs)
);
}
);
width = 581;
}
);
unicode = 276;
},
{
glyphname = Ecaron;
layers = (
{
layerId = "0D856A57-F1E8-4B9B-A293-C2F37DF93F32";
shapes = (
{
closed = 1;
nodes = (
(7,0,l),
(422,0,l),
(429,35,l),
(54,35,l),
(114,340,l),
(459,340,l),
(466,375,l),
(121,375,l),
(179,664,l),
(555,664,l),
(562,699,l),
(147,699,l)
);
},
{
closed = 1;
nodes = (
(492,919,l),
(454,919,l),
(353,847,l),
(280,919,l),
(242,919,l),
(325,810,l),
(365,810,l)
);
}
);
width = 521;
},
{
layerId = "4DCA89B8-DFE6-4DD8-9DE5-D8A3D5DAECAB";
shapes = (
{
closed = 1;
nodes = (
(4,0,l),
(440,0,l),
(453,66,l),
(89,66,l),
(140,321,l),
(475,321,l),
(488,387,l),
(154,387,l),
(203,634,l),
(566,634,l),
(580,700,l),
(144,700,l)
);
},
{
closed = 1;
nodes = (
(530,908,l),
(466,908,l),
(376,843,l),
(311,908,l),
(247,908,l),
(338,788,l),
(391,788,l)
);
}
);
width = 536;
},
{
layerId = "5704134F-6EB5-4790-9409-A43A14941BD5";
shapes = (
{
closed = 1;
nodes = (
(-7,0,l),
(495,0,l),
(522,136,l),
(194,136,l),
(225,288,l),
(526,288,l),
(553,423,l),
(252,423,l),
(281,569,l),
(608,569,l),
(635,703,l),
(133,703,l)
);
},
{
closed = 1;
nodes = (
(647,875,l),
(506,875,l),
(447,832,l),
(404,875,l),
(262,875,l),
(376,722,l),
(471,722,l)
);
}
);
width = 581;
}
);
unicode = 282;
},
{
glyphname = Ecedilla;
layers = (
{
layerId = "0D856A57-F1E8-4B9B-A293-C2F37DF93F32";
shapes = (
{
closed = 1;
nodes = (
(7,0,l),
(422,0,l),
(429,35,l),
(54,35,l),
(114,340,l),
(459,340,l),
(466,375,l),
(121,375,l),
(179,664,l),
(555,664,l),
(562,699,l),
(147,699,l)
);
},
{
closed = 1;
nodes = (
(63,-205,l),
(93,-210,o),
(114,-213,o),
(128,-213,cs),
(185,-213,o),
(228,-184,o),
(237,-138,cs),
(246,-93,o),
(212,-60,o),
(158,-60,c),
(150,-99,l),
(197,-99,o),
(211,-120,o),
(208,-137,cs),
(204,-159,o),
(174,-173,o),
(133,-173,cs),
(114,-173,o),
(90,-171,o),
(70,-171,c)
);
}
);
width = 521;
},
{
layerId = "4DCA89B8-DFE6-4DD8-9DE5-D8A3D5DAECAB";
shapes = (
{
closed = 1;
nodes = (
(4,0,l),
(440,0,l),
(453,66,l),
(89,66,l),
(140,321,l),
(475,321,l),
(488,387,l),
(154,387,l),
(203,634,l),
(566,634,l),
(580,700,l),
(144,700,l)
);
},
{
closed = 1;
nodes = (
(77,-204,l),
(107,-211,o),
(135,-215,o),
(152,-215,cs),
(216,-215,o),
(261,-183,o),
(271,-133,cs),
(281,-81,o),
(243,-49,o),
(171,-49,c),
(161,-100,l),
(200,-100,o),
(222,-113,o),
(218,-133,cs),
(214,-151,o),
(191,-163,o),
(159,-163,cs),
(139,-163,o),
(112,-159,o),
(87,-153,c)
);
}
);
width = 536;
},
{
layerId = "5704134F-6EB5-4790-9409-A43A14941BD5";
shapes = (
{
closed = 1;
nodes = (
(-7,0,l),
(495,0,l),
(522,136,l),
(194,136,l),
(225,288,l),
(526,288,l),
(553,423,l),
(252,423,l),
(281,569,l),
(608,569,l),
(635,703,l),
(133,703,l)
);
},
{
closed = 1;
nodes = (
(117,-212,l),
(146,-224,o),
(199,-232,o),
(224,-232,cs),
(307,-232,o),
(365,-190,o),
(377,-129,cs),
(392,-56,o),
(337,-26,o),
(211,-26,c),
(194,-113,l),
(210,-113,o),
(252,-113,o),
(248,-131,c),
(247,-138,o),
(239,-143,o),
(230,-143,cs),
(206,-143,o),
(178,-133,o),
(137,-110,c)
);
}
);
width = 581;
}
);
unicode = 552;
},
{
glyphname = Ecircumflex;
layers = (
{
layerId = "0D856A57-F1E8-4B9B-A293-C2F37DF93F32";
shapes = (
{
closed = 1;
nodes = (
(7,0,l),
(422,0,l),
(429,35,l),
(54,35,l),
(114,340,l),
(459,340,l),
(466,375,l),
(121,375,l),
(179,664,l),
(555,664,l),
(562,699,l),
(147,699,l)
);
},
{
closed = 1;
nodes = (
(360,919,l),
(233,810,l),
(271,810,l),
(373,883,l),
(445,810,l),
(483,810,l),
(400,919,l)
);
}
);
width = 521;
},
{
layerId = "4DCA89B8-DFE6-4DD8-9DE5-D8A3D5DAECAB";
shapes = (
{
closed = 1;
nodes = (
(4,0,l),
(440,0,l),
(453,66,l),
(89,66,l),
(140,321,l),
(475,321,l),
(488,387,l),
(154,387,l),
(203,634,l),
(566,634,l),
(580,700,l),
(144,700,l)
);
},
{
closed = 1;
nodes = (
(362,908,l),
(223,788,l),
(287,788,l),
(378,853,l),
(442,788,l),
(506,788,l),
(415,908,l)
);
}
);
width = 536;
},
{
layerId = "5704134F-6EB5-4790-9409-A43A14941BD5";
shapes = (
{
closed = 1;
nodes = (
(-7,0,l),
(495,0,l),
(522,136,l),
(194,136,l),
(225,288,l),
(526,288,l),
(553,423,l),
(252,423,l),
(281,569,l),
(608,569,l),
(635,703,l),
(133,703,l)
);
},
{
closed = 1;
nodes = (
(370,875,l),
(194,722,l),
(336,722,l),
(396,764,l),
(438,722,l),
(579,722,l),
(465,875,l)
);
}
);
width = 581;
}
);
unicode = 202;
},
{
glyphname = Ecircumflexacute;
layers = (
{
layerId = "0D856A57-F1E8-4B9B-A293-C2F37DF93F32";
shapes = (
{
closed = 1;
nodes = (
(7,0,l),
(422,0,l),
(429,35,l),
(54,35,l),
(114,340,l),
(459,340,l),
(466,375,l),
(121,375,l),
(179,664,l),
(555,664,l),
(562,699,l),
(147,699,l)
);
},
{
closed = 1;
nodes = (
(360,919,l),
(233,810,l),
(271,810,l),
(373,883,l),
(445,810,l),
(483,810,l),
(400,919,l)
);
},
{
closed = 1;
nodes = (
(461,1070,l),
(350,959,l),
(386,959,l),
(517,1070,l)
);
}
);
width = 521;
},
{
layerId = "4DCA89B8-DFE6-4DD8-9DE5-D8A3D5DAECAB";
shapes = (
{
closed = 1;
nodes = (
(4,0,l),
(440,0,l),
(453,66,l),
(89,66,l),
(140,321,l),
(475,321,l),
(488,387,l),
(154,387,l),
(203,634,l),
(566,634,l),
(580,700,l),
(144,700,l)
);
},
{
closed = 1;
nodes = (
(362,908,l),
(223,788,l),
(287,788,l),
(378,853,l),
(442,788,l),
(506,788,l),
(415,908,l)
);
},
{
closed = 1;
nodes = (
(454,1076,l),
(344,956,l),
(402,956,l),
(545,1076,l)
);
}
);
width = 536;
},
{
layerId = "5704134F-6EB5-4790-9409-A43A14941BD5";
shapes = (
{
closed = 1;
nodes = (
(-7,0,l),
(495,0,l),
(522,136,l),
(194,136,l),
(225,288,l),
(526,288,l),
(553,423,l),
(252,423,l),
(281,569,l),
(608,569,l),
(635,703,l),
(133,703,l)
);
},
{
closed = 1;
nodes = (
(370,875,l),
(194,722,l),
(336,722,l),
(396,764,l),
(438,722,l),
(579,722,l),
(465,875,l)
);
},
{
closed = 1;
nodes = (
(433,1096,l),
(327,949,l),
(454,949,l),
(631,1096,l)
);
}
);
width = 581;
}
);
unicode = 7870;
},
{
glyphname = Ecircumflexdotbelow;
layers = (
{
layerId = "0D856A57-F1E8-4B9B-A293-C2F37DF93F32";
shapes = (
{
closed = 1;
nodes = (
(7,0,l),
(422,0,l),
(429,35,l),
(54,35,l),
(114,340,l),
(459,340,l),
(466,375,l),
(121,375,l),
(179,664,l),
(555,664,l),
(562,699,l),
(147,699,l)
);
},
{
closed = 1;
nodes = (
(204,-118,l),
(217,-55,l),
(161,-55,l),
(148,-118,l)
);
},
{
closed = 1;
nodes = (
(360,919,l),
(233,810,l),
(271,810,l),
(373,883,l),
(445,810,l),
(483,810,l),
(400,919,l)
);
}
);
width = 521;
},
{
layerId = "4DCA89B8-DFE6-4DD8-9DE5-D8A3D5DAECAB";
shapes = (
{
closed = 1;
nodes = (
(4,0,l),
(440,0,l),
(453,66,l),
(89,66,l),
(140,321,l),
(475,321,l),
(488,387,l),
(154,387,l),
(203,634,l),
(566,634,l),
(580,700,l),
(144,700,l)
);
},
{
closed = 1;
nodes = (
(223,-145,l),
(240,-60,l),
(150,-60,l),
(133,-145,l)
);
},
{
closed = 1;
nodes = (
(362,908,l),
(223,788,l),
(287,788,l),
(378,853,l),
(442,788,l),
(506,788,l),
(415,908,l)
);
}
);
width = 536;
},
{
layerId = "5704134F-6EB5-4790-9409-A43A14941BD5";
shapes = (
{
closed = 1;
nodes = (
(-7,0,l),
(495,0,l),
(522,136,l),
(194,136,l),
(225,288,l),
(526,288,l),
(553,423,l),
(252,423,l),
(281,569,l),
(608,569,l),
(635,703,l),
(133,703,l)
);
},
{
closed = 1;
nodes = (
(279,-228,l),
(310,-76,l),
(120,-76,l),
(89,-228,l)
);
},
{
closed = 1;
nodes = (
(370,875,l),
(194,722,l),
(336,722,l),
(396,764,l),
(438,722,l),
(579,722,l),
(465,875,l)
);
}
);
width = 581;
}
);
unicode = 7878;
},
{
glyphname = Ecircumflexgrave;
layers = (
{
layerId = "0D856A57-F1E8-4B9B-A293-C2F37DF93F32";
shapes = (
{
closed = 1;
nodes = (
(7,0,l),
(422,0,l),
(429,35,l),
(54,35,l),
(114,340,l),
(459,340,l),
(466,375,l),
(121,375,l),
(179,664,l),
(555,664,l),
(562,699,l),
(147,699,l)
);
},
{
closed = 1;
nodes = (
(360,919,l),
(233,810,l),
(271,810,l),
(373,883,l),
(445,810,l),
(483,810,l),
(400,919,l)
);
},
{
closed = 1;
nodes = (
(352,959,l),
(389,959,l),
(321,1070,l),
(265,1070,l)
);
}
);
width = 521;
},
{
layerId = "4DCA89B8-DFE6-4DD8-9DE5-D8A3D5DAECAB";
shapes = (
{
closed = 1;
nodes = (
(4,0,l),
(440,0,l),
(453,66,l),
(89,66,l),
(140,321,l),
(475,321,l),
(488,387,l),
(154,387,l),
(203,634,l),
(566,634,l),
(580,700,l),
(144,700,l)
);
},
{
closed = 1;
nodes = (
(362,908,l),
(223,788,l),
(287,788,l),
(378,853,l),
(442,788,l),
(506,788,l),
(415,908,l)
);
},
{
closed = 1;
nodes = (
(357,956,l),
(416,956,l),
(354,1076,l),
(263,1076,l)
);
}
);
width = 536;
},
{
layerId = "5704134F-6EB5-4790-9409-A43A14941BD5";
shapes = (
{
closed = 1;
nodes = (
(-7,0,l),
(495,0,l),
(522,136,l),
(194,136,l),
(225,288,l),
(526,288,l),
(553,423,l),
(252,423,l),
(281,569,l),
(608,569,l),
(635,703,l),
(133,703,l)
);
},
{
closed = 1;
nodes = (
(370,875,l),
(194,722,l),
(336,722,l),
(396,764,l),
(438,722,l),
(579,722,l),
(465,875,l)
);
},
{
closed = 1;
nodes = (
(375,949,l),
(501,949,l),
(455,1096,l),
(257,1096,l)
);
}
);
width = 581;
}
);
unicode = 7872;
},
{
glyphname = Ecircumflextilde;
layers = (
{
layerId = "0D856A57-F1E8-4B9B-A293-C2F37DF93F32";
shapes = (
{
closed = 1;
nodes = (
(7,0,l),
(422,0,l),
(429,35,l),
(54,35,l),
(114,340,l),
(459,340,l),
(466,375,l),
(121,375,l),
(179,664,l),
(555,664,l),
(562,699,l),
(147,699,l)
);
},
{
closed = 1;
nodes = (
(360,919,l),
(233,810,l),
(271,810,l),
(373,883,l),
(445,810,l),
(483,810,l),
(400,919,l)
);
},
{
closed = 1;
nodes = (
(271,981,l),
(303,1019,o),
(321,1030,o),
(346,1030,cs),
(403,1030,o),
(419,978,o),
(474,978,cs),
(510,978,o),
(535,995,o),
(582,1050,c),
(557,1070,l),
(518,1028,o),
(504,1021,o),
(483,1021,cs),
(427,1021,o),
(411,1073,o),
(355,1073,cs),
(319,1073,o),
(294,1057,o),
(246,1000,c)
);
}
);
width = 521;
},
{
layerId = "4DCA89B8-DFE6-4DD8-9DE5-D8A3D5DAECAB";
shapes = (
{
closed = 1;
nodes = (
(4,0,l),
(440,0,l),
(453,66,l),
(89,66,l),
(140,321,l),
(475,321,l),
(488,387,l),
(154,387,l),
(203,634,l),
(566,634,l),
(580,700,l),
(144,700,l)
);
},
{
closed = 1;
nodes = (
(362,908,l),
(223,788,l),
(287,788,l),
(378,853,l),
(442,788,l),
(506,788,l),
(415,908,l)
);
},
{
closed = 1;
nodes = (
(268,971,l),
(300,1006,o),
(318,1017,o),
(341,1017,cs),
(395,1017,o),
(410,971,o),
(470,971,cs),
(509,971,o),
(539,992,o),
(590,1053,c),
(555,1081,l),
(517,1039,o),
(505,1035,o),
(483,1035,cs),
(429,1035,o),
(413,1081,o),
(354,1081,cs),
(315,1081,o),
(286,1061,o),
(234,999,c)
);
}
);
width = 536;
},
{
layerId = "5704134F-6EB5-4790-9409-A43A14941BD5";
shapes = (
{
closed = 1;
nodes = (
(-7,0,l),
(495,0,l),
(522,136,l),
(194,136,l),
(225,288,l),
(526,288,l),
(553,423,l),
(252,423,l),
(281,569,l),
(608,569,l),
(635,703,l),
(133,703,l)
);
},
{
closed = 1;
nodes = (
(370,875,l),
(194,722,l),
(336,722,l),
(396,764,l),
(438,722,l),
(579,722,l),
(465,875,l)
);
},
{
closed = 1;
nodes = (
(294,942,l),
(329,982,o),
(349,997,o),
(363,997,cs),
(406,997,o),
(418,951,o),
(492,951,cs),
(540,951,o),
(585,983,o),
(649,1062,c),
(581,1116,l),
(561,1080,o),
(537,1061,o),
(513,1061,cs),
(465,1061,o),
(452,1107,o),
(385,1107,cs),
(337,1107,o),
(291,1074,o),
(228,996,c)
);
}
);
width = 581;
}
);
unicode = 7876;
},
{
glyphname = Edieresis;
layers = (
{
layerId = "0D856A57-F1E8-4B9B-A293-C2F37DF93F32";
shapes = (
{
closed = 1;
nodes = (
(7,0,l),
(422,0,l),
(429,35,l),
(54,35,l),
(114,340,l),
(459,340,l),
(466,375,l),
(121,375,l),
(179,664,l),
(555,664,l),
(562,699,l),
(147,699,l)
);
},
{
closed = 1;
nodes = (
(320,831,l),
(334,899,l),
(268,899,l),
(255,831,l)
);
},
{
closed = 1;
nodes = (
(474,831,l),
(488,899,l),
(422,899,l),
(409,831,l)
);
}
);
width = 521;
},
{
layerId = "4DCA89B8-DFE6-4DD8-9DE5-D8A3D5DAECAB";
shapes = (
{
closed = 1;
nodes = (
(4,0,l),
(440,0,l),
(453,66,l),
(89,66,l),
(140,321,l),
(475,321,l),
(488,387,l),
(154,387,l),
(203,634,l),
(566,634,l),
(580,700,l),
(144,700,l)
);
},
{
closed = 1;
nodes = (
(330,808,l),
(347,893,l),
(258,893,l),
(241,808,l)
);
},
{
closed = 1;
nodes = (
(497,808,l),
(514,893,l),
(425,893,l),
(408,808,l)
);
}
);
width = 536;
},
{
layerId = "5704134F-6EB5-4790-9409-A43A14941BD5";
shapes = (
{
closed = 1;
nodes = (
(-7,0,l),
(495,0,l),
(522,136,l),
(194,136,l),
(225,288,l),
(526,288,l),
(553,423,l),
(252,423,l),
(281,569,l),
(608,569,l),
(635,703,l),
(133,703,l)
);
},
{
closed = 1;
nodes = (
(360,739,l),
(387,876,l),
(227,876,l),
(199,739,l)
);
},
{
closed = 1;
nodes = (
(569,739,l),
(596,876,l),
(435,876,l),
(408,739,l)
);
}
);
width = 581;
}
);
unicode = 203;
},
{
glyphname = Edotaccent;
layers = (
{
layerId = "0D856A57-F1E8-4B9B-A293-C2F37DF93F32";
shapes = (
{
closed = 1;
nodes = (
(7,0,l),
(422,0,l),
(429,35,l),
(54,35,l),
(114,340,l),
(459,340,l),
(466,375,l),
(121,375,l),
(179,664,l),
(555,664,l),
(562,699,l),
(147,699,l)
);
},
{
closed = 1;
nodes = (
(388,837,l),
(399,893,l),
(346,893,l),
(334,837,l)
);
}
);
width = 521;
},
{
layerId = "4DCA89B8-DFE6-4DD8-9DE5-D8A3D5DAECAB";
shapes = (
{
closed = 1;
nodes = (
(4,0,l),
(440,0,l),
(453,66,l),
(89,66,l),
(140,321,l),
(475,321,l),
(488,387,l),
(154,387,l),
(203,634,l),
(566,634,l),
(580,700,l),
(144,700,l)
);
},
{
closed = 1;
nodes = (
(413,808,l),
(430,893,l),
(341,893,l),
(324,808,l)
);
}
);
width = 536;
},
{
layerId = "5704134F-6EB5-4790-9409-A43A14941BD5";
shapes = (
{
closed = 1;
nodes = (
(-7,0,l),
(495,0,l),
(522,136,l),
(194,136,l),
(225,288,l),
(526,288,l),
(553,423,l),
(252,423,l),
(281,569,l),
(608,569,l),
(635,703,l),
(133,703,l)
);
},
{
closed = 1;
nodes = (
(476,739,l),
(503,876,l),
(342,876,l),
(315,739,l)
);
}
);
width = 581;
}
);
unicode = 278;
},
{
glyphname = Edotbelow;
layers = (
{
layerId = "0D856A57-F1E8-4B9B-A293-C2F37DF93F32";
shapes = (
{
closed = 1;
nodes = (
(7,0,l),
(422,0,l),
(429,35,l),
(54,35,l),
(114,340,l),
(459,340,l),
(466,375,l),
(121,375,l),
(179,664,l),
(555,664,l),
(562,699,l),
(147,699,l)
);
},
{
closed = 1;
nodes = (
(204,-118,l),
(217,-55,l),
(161,-55,l),
(148,-118,l)
);
}
);
width = 521;
},
{
layerId = "4DCA89B8-DFE6-4DD8-9DE5-D8A3D5DAECAB";
shapes = (
{
closed = 1;
nodes = (
(4,0,l),
(440,0,l),
(453,66,l),
(89,66,l),
(140,321,l),
(475,321,l),
(488,387,l),
(154,387,l),
(203,634,l),
(566,634,l),
(580,700,l),
(144,700,l)
);
},
{
closed = 1;
nodes = (
(223,-145,l),
(240,-60,l),
(150,-60,l),
(133,-145,l)
);
}
);
width = 536;
},
{
layerId = "5704134F-6EB5-4790-9409-A43A14941BD5";
shapes = (
{
closed = 1;
nodes = (
(-7,0,l),
(495,0,l),
(522,136,l),
(194,136,l),
(225,288,l),
(526,288,l),
(553,423,l),
(252,423,l),
(281,569,l),
(608,569,l),
(635,703,l),
(133,703,l)
);
},
{
closed = 1;
nodes = (
(279,-228,l),
(310,-76,l),
(120,-76,l),
(89,-228,l)
);
}
);
width = 581;
}
);
unicode = 7864;
},
{
glyphname = EfCy.loclBGR;
layers = (
{
layerId = "0D856A57-F1E8-4B9B-A293-C2F37DF93F32";
shapes = (
{
closed = 1;
nodes = (
(340,-43,l),
(357,40,l),
(390,40,ls),
(593,40,o),
(720,199,o),
(751,354,cs),
(782,509,o),
(718,668,o),
(515,668,cs),
(482,668,l),
(499,751,l),
(460,751,l),
(444,668,l),
(411,668,ls),
(208,668,o),
(81,509,o),
(50,354,cs),
(19,199,o),
(82,40,o),
(285,40,cs),
(318,40,l),
(302,-43,l)
);
},
{
closed = 1;
nodes = (
(117,487,o),
(234,633,o),
(409,633,cs),
(437,633,l),
(325,75,l),
(298,75,ls),
(123,75,o),
(63,221,o),
(90,354,cs)
);
},
{
closed = 1;
nodes = (
(475,633,l),
(503,633,ls),
(677,633,o),
(737,487,o),
(710,354,cs),
(683,221,o),
(565,75,o),
(391,75,cs),
(364,75,l)
);
}
);
width = 778;
},
{
layerId = "4DCA89B8-DFE6-4DD8-9DE5-D8A3D5DAECAB";
shapes = (
{
closed = 1;
nodes = (
(362,-48,l),
(379,37,l),
(407,37,ls),
(604,37,o),
(732,196,o),
(764,354,cs),
(796,512,o),
(731,671,o),
(534,671,cs),
(505,671,l),
(522,756,l),
(450,756,l),
(433,671,l),
(404,671,ls),
(207,671,o),
(79,512,o),
(47,354,cs),
(15,196,o),
(81,37,o),
(278,37,cs),
(306,37,l),
(289,-48,l)
);
},
{
closed = 1;
nodes = (
(147,479,o),
(246,603,o),
(397,603,cs),
(419,603,l),
(320,105,l),
(297,105,ls),
(146,105,o),
(97,229,o),
(122,354,cs)
);
},
{
closed = 1;
nodes = (
(492,603,l),
(514,603,ls),
(665,603,o),
(715,479,o),
(690,354,cs),
(665,229,o),
(566,105,o),
(415,105,cs),
(392,105,l)
);
}
);
width = 790;
},
{
layerId = "5704134F-6EB5-4790-9409-A43A14941BD5";
shapes = (
{
closed = 1;
nodes = (
(428,-63,l),
(447,31,l),
(461,31,ls),
(640,31,o),
(775,188,o),
(808,355,cs),
(841,522,o),
(770,678,o),
(591,678,cs),
(576,678,l),
(595,771,l),
(419,771,l),
(401,678,l),
(386,678,ls),
(207,678,o),
(72,522,o),
(39,355,cs),
(6,188,o),
(78,31,o),
(257,31,cs),
(271,31,l),
(253,-63,l)
);
},
{
closed = 1;
nodes = (
(241,468,o),
(288,539,o),
(364,539,cs),
(373,539,l),
(299,170,l),
(290,170,ls),
(214,170,o),
(195,242,o),
(218,355,cs)
);
},
{
closed = 1;
nodes = (
(548,539,l),
(557,539,ls),
(635,539,o),
(653,468,o),
(630,355,cs),
(607,242,o),
(561,170,o),
(483,170,cs),
(475,170,l)
);
}
);
width = 825;
}
);
},
{
glyphname = Efcyr;
layers = (
{
layerId = "0D856A57-F1E8-4B9B-A293-C2F37DF93F32";
shapes = (
{
closed = 1;
nodes = (
(349,0,l),
(377,144,l),
(494,144,ls),
(640,144,o),
(730,251,o),
(751,354,cs),
(772,457,o),
(724,564,o),
(578,564,cs),
(461,564,l),
(490,708,l),
(452,708,l),
(423,564,l),
(306,564,ls),
(160,564,o),
(71,457,o),
(50,354,cs),
(29,251,o),
(77,144,o),
(223,144,cs),
(339,144,l),
(310,0,l)
);
},
{
closed = 1;
nodes = (
(107,437,o),
(185,529,o),
(305,529,cs),
(416,529,l),
(346,179,l),
(235,179,ls),
(115,179,o),
(73,271,o),
(90,354,cs)
);
},
{
closed = 1;
nodes = (
(454,529,l),
(565,529,ls),
(685,529,o),
(727,437,o),
(710,354,cs),
(693,271,o),
(615,179,o),
(495,179,cs),
(384,179,l)
);
}
);
width = 778;
},
{
layerId = "4DCA89B8-DFE6-4DD8-9DE5-D8A3D5DAECAB";
shapes = (
{
closed = 1;
nodes = (
(371,0,l),
(399,137,l),
(496,137,ls),
(647,137,o),
(742,246,o),
(764,354,cs),
(786,462,o),
(733,571,o),
(582,571,cs),
(485,571,l),
(513,708,l),
(440,708,l),
(413,571,l),
(316,571,ls),
(165,571,o),
(69,462,o),
(47,354,cs),
(25,246,o),
(78,137,o),
(229,137,cs),
(326,137,l),
(299,0,l)
);
},
{
closed = 1;
nodes = (
(137,429,o),
(203,504,o),
(308,504,cs),
(400,504,l),
(340,204,l),
(248,204,ls),
(143,204,o),
(107,279,o),
(122,354,cs)
);
},
{
closed = 1;
nodes = (
(472,504,l),
(563,504,ls),
(668,504,o),
(705,429,o),
(690,354,cs),
(675,279,o),
(608,204,o),
(503,204,cs),
(412,204,l)
);
}
);
width = 790;
},
{
layerId = "5704134F-6EB5-4790-9409-A43A14941BD5";
shapes = (
{
closed = 1;
nodes = (
(441,0,l),
(465,122,l),
(503,122,ls),
(668,122,o),
(784,235,o),
(808,355,cs),
(832,475,o),
(761,587,o),
(596,587,cs),
(558,587,l),
(582,708,l),
(407,708,l),
(382,587,l),
(343,587,ls),
(178,587,o),
(63,475,o),
(39,355,cs),
(15,235,o),
(85,122,o),
(250,122,cs),
(290,122,l),
(265,0,l)
);
},
{
closed = 1;
nodes = (
(230,415,o),
(262,451,o),
(322,451,cs),
(355,451,l),
(317,259,l),
(284,259,ls),
(224,259,o),
(206,295,o),
(218,355,cs)
);
},
{
closed = 1;
nodes = (
(531,451,l),
(563,451,ls),
(624,451,o),
(642,415,o),
(630,355,cs),
(618,295,o),
(586,259,o),
(525,259,cs),
(492,259,l)
);
}
);
width = 825;
}
);
unicode = 1060;
},
{
glyphname = Egrave;
layers = (
{
layerId = "0D856A57-F1E8-4B9B-A293-C2F37DF93F32";
shapes = (
{
closed = 1;
nodes = (
(7,0,l),
(422,0,l),
(429,35,l),
(54,35,l),
(114,340,l),
(459,340,l),
(466,375,l),
(121,375,l),
(179,664,l),
(555,664,l),
(562,699,l),
(147,699,l)
);
},
{
closed = 1;
nodes = (
(305,789,l),
(342,789,l),
(274,900,l),
(219,900,l)
);
}
);
width = 521;
},
{
layerId = "4DCA89B8-DFE6-4DD8-9DE5-D8A3D5DAECAB";
shapes = (
{
closed = 1;
nodes = (
(4,0,l),
(440,0,l),
(453,66,l),
(89,66,l),
(140,321,l),
(475,321,l),
(488,387,l),
(154,387,l),
(203,634,l),
(566,634,l),
(580,700,l),
(144,700,l)
);
},
{
closed = 1;
nodes = (
(322,778,l),
(381,778,l),
(318,898,l),
(227,898,l)
);
}
);
width = 536;
},
{
layerId = "5704134F-6EB5-4790-9409-A43A14941BD5";
shapes = (
{
closed = 1;
nodes = (
(-7,0,l),
(495,0,l),
(522,136,l),
(194,136,l),
(225,288,l),
(526,288,l),
(553,423,l),
(252,423,l),
(281,569,l),
(608,569,l),
(635,703,l),
(133,703,l)
);
},
{
closed = 1;
nodes = (
(372,746,l),
(498,746,l),
(452,893,l),
(254,893,l)
);
}
);
width = 581;
}
);
unicode = 200;
},
{
glyphname = ElCy.loclBGR;
layers = (
{
layerId = "0D856A57-F1E8-4B9B-A293-C2F37DF93F32";
shapes = (
{
closed = 1;
nodes = (
(-20,0,l),
(19,0,l),
(414,656,l),
(546,0,l),
(585,0,l),
(447,699,l),
(397,699,l)
);
}
);
width = 684;
},
{
layerId = "4DCA89B8-DFE6-4DD8-9DE5-D8A3D5DAECAB";
shapes = (
{
closed = 1;
nodes = (
(-28,0,l),
(46,0,l),
(415,632,l),
(529,0,l),
(604,0,l),
(475,700,l),
(380,700,l)
);
}
);
width = 695;
},
{
layerId = "5704134F-6EB5-4790-9409-A43A14941BD5";
shapes = (
{
closed = 1;
nodes = (
(-52,0,l),
(129,0,l),
(400,478,l),
(480,0,l),
(663,0,l),
(533,703,l),
(359,703,l)
);
}
);
width = 730;
}
);
},
{
glyphname = Elcyr;
layers = (
{
layerId = "0D856A57-F1E8-4B9B-A293-C2F37DF93F32";
shapes = (
{
closed = 1;
nodes = (
(126,144,ls),
(109,84,o),
(56,35,o),
(-9,35,cs),
(-40,35,l),
(-47,0,l),
(-17,0,ls),
(62,0,o),
(136,57,o),
(162,147,cs),
(310,665,l),
(610,665,l),
(477,0,l),
(515,0,l),
(655,700,l),
(285,700,l)
);
}
);
width = 642;
},
{
layerId = "4DCA89B8-DFE6-4DD8-9DE5-D8A3D5DAECAB";
shapes = (
{
closed = 1;
nodes = (
(129,163,ls),
(113,105,o),
(70,66,o),
(14,66,cs),
(-34,66,l),
(-47,0,l),
(8,0,ls),
(98,0,o),
(172,62,o),
(198,155,cs),
(336,634,l),
(598,634,l),
(471,0,l),
(544,0,l),
(684,700,l),
(285,700,l)
);
}
);
width = 667;
},
{
layerId = "5704134F-6EB5-4790-9409-A43A14941BD5";
shapes = (
{
closed = 1;
nodes = (
(145,227,ls),
(124,154,o),
(97,136,o),
(46,136,cs),
(-20,136,l),
(-47,0,l),
(47,0,ls),
(193,0,o),
(280,90,o),
(314,205,cs),
(420,564,l),
(567,564,l),
(455,0,l),
(630,0,l),
(770,700,l),
(285,700,l)
);
}
);
width = 743;
}
);
unicode = 1051;
},
{
glyphname = Elhookcyr;
layers = (
{
layerId = "0D856A57-F1E8-4B9B-A293-C2F37DF93F32";
shapes = (
{
closed = 1;
nodes = (
(126,146,ls),
(109,85,o),
(56,37,o),
(-9,37,cs),
(-40,37,l),
(-47,2,l),
(-16,2,ls),
(63,2,o),
(137,59,o),
(163,148,cs),
(310,665,l),
(610,665,l),
(463,-71,ls),
(453,-119,o),
(434,-169,o),
(362,-169,cs),
(346,-169,o),
(325,-167,o),
(305,-162,c),
(297,-202,l),
(321,-208,o),
(337,-210,o),
(355,-210,cs),
(446,-210,o),
(487,-142,o),
(500,-77,cs),
(655,700,l),
(285,700,l)
);
}
);
width = 642;
},
{
layerId = "4DCA89B8-DFE6-4DD8-9DE5-D8A3D5DAECAB";
shapes = (
{
closed = 1;
nodes = (
(129,163,ls),
(113,105,o),
(70,66,o),
(14,66,cs),
(-34,66,l),
(-47,0,l),
(8,0,ls),
(98,0,o),
(172,62,o),
(198,155,cs),
(336,634,l),
(598,634,l),
(460,-56,ls),
(451,-101,o),
(431,-144,o),
(368,-144,cs),
(352,-144,o),
(332,-142,o),
(309,-136,c),
(296,-201,l),
(319,-207,o),
(341,-209,o),
(362,-209,cs),
(465,-209,o),
(517,-136,o),
(532,-60,cs),
(684,700,l),
(285,700,l)
);
}
);
width = 667;
},
{
layerId = "5704134F-6EB5-4790-9409-A43A14941BD5";
shapes = (
{
closed = 1;
nodes = (
(137,201,ls),
(122,149,o),
(107,136,o),
(80,136,cs),
(-20,136,l),
(-47,0,l),
(82,0,ls),
(204,0,o),
(277,82,o),
(309,187,cs),
(420,564,l),
(567,564,l),
(453,-8,ls),
(445,-46,o),
(422,-70,o),
(386,-70,cs),
(370,-70,o),
(356,-68,o),
(322,-59,c),
(294,-198,l),
(314,-204,o),
(355,-207,o),
(383,-207,cs),
(523,-207,o),
(606,-118,o),
(628,-8,cs),
(770,700,l),
(285,700,l)
);
}
);
width = 743;
}
);
unicode = 1298;
},
{
glyphname = Elsharptailcyr;
layers = (
{
layerId = "0D856A57-F1E8-4B9B-A293-C2F37DF93F32";
shapes = (
{
closed = 1;
nodes = (
(126,144,ls),
(109,84,o),
(56,35,o),
(-9,35,cs),
(-40,35,l),
(-47,0,l),
(-17,0,ls),
(62,0,o),
(136,57,o),
(162,147,cs),
(310,665,l),
(610,665,l),
(477,0,l),
(550,0,l),
(481,-110,l),
(517,-110,l),
(609,36,l),
(522,36,l),
(655,700,l),
(285,700,l)
);
}
);
width = 662;
},
{
layerId = "4DCA89B8-DFE6-4DD8-9DE5-D8A3D5DAECAB";
shapes = (
{
closed = 1;
nodes = (
(129,163,ls),
(113,105,o),
(70,66,o),
(14,66,cs),
(-34,66,l),
(-47,0,l),
(8,0,ls),
(98,0,o),
(172,62,o),
(198,155,cs),
(336,634,l),
(598,634,l),
(471,0,l),
(557,0,l),
(488,-110,l),
(558,-110,l),
(664,59,l),
(555,59,l),
(684,700,l),
(285,700,l)
);
}
);
width = 713;
},
{
layerId = "5704134F-6EB5-4790-9409-A43A14941BD5";
shapes = (
{
closed = 1;
nodes = (
(145,227,ls),
(124,154,o),
(97,136,o),
(46,136,cs),
(-20,136,l),
(-47,0,l),
(47,0,ls),
(193,0,o),
(280,90,o),
(314,205,cs),
(420,564,l),
(567,564,l),
(455,0,l),
(580,0,l),
(511,-110,l),
(684,-110,l),
(834,129,l),
(656,129,l),
(770,700,l),
(285,700,l)
);
}
);
width = 869;
}
);
unicode = 1221;
},
{
glyphname = Emacron;
layers = (
{
layerId = "0D856A57-F1E8-4B9B-A293-C2F37DF93F32";
shapes = (
{
closed = 1;
nodes = (
(7,0,l),
(422,0,l),
(429,35,l),
(54,35,l),
(114,340,l),
(459,340,l),
(466,375,l),
(121,375,l),
(179,664,l),
(555,664,l),
(562,699,l),
(147,699,l)
);
},
{
closed = 1;
nodes = (
(224,841,l),
(503,841,l),
(512,887,l),
(234,887,l)
);
}
);
width = 521;
},
{
layerId = "4DCA89B8-DFE6-4DD8-9DE5-D8A3D5DAECAB";
shapes = (
{
closed = 1;
nodes = (
(4,0,l),
(440,0,l),
(453,66,l),
(89,66,l),
(140,321,l),
(475,321,l),
(488,387,l),
(154,387,l),
(203,634,l),
(566,634,l),
(580,700,l),
(144,700,l)
);
},
{
closed = 1;
nodes = (
(223,818,l),
(518,818,l),
(530,877,l),
(235,877,l)
);
}
);
width = 536;
},
{
layerId = "5704134F-6EB5-4790-9409-A43A14941BD5";
shapes = (
{
closed = 1;
nodes = (
(-7,0,l),
(495,0,l),
(522,136,l),
(194,136,l),
(225,288,l),
(526,288,l),
(553,423,l),
(252,423,l),
(281,569,l),
(608,569,l),
(635,703,l),
(133,703,l)
);
},
{
closed = 1;
nodes = (
(220,749,l),
(566,749,l),
(585,847,l),
(239,847,l)
);
}
);
width = 581;
}
);
unicode = 274;
},
{
glyphname = Emcyr;
layers = (
{
layerId = "0D856A57-F1E8-4B9B-A293-C2F37DF93F32";
shapes = (
{
closed = 1;
nodes = (
(7,0,l),
(47,0,l),
(172,627,l),
(333,0,l),
(367,0,l),
(779,628,l),
(653,0,l),
(691,0,l),
(831,699,l),
(785,699,l),
(359,45,l),
(194,699,l),
(147,699,l)
);
}
);
width = 818;
},
{
layerId = "4DCA89B8-DFE6-4DD8-9DE5-D8A3D5DAECAB";
shapes = (
{
closed = 1;
nodes = (
(4,0,l),
(76,0,l),
(190,569,l),
(323,0,l),
(381,0,l),
(742,569,l),
(628,0,l),
(700,0,l),
(840,700,l),
(750,700,l),
(372,98,l),
(234,700,l),
(144,700,l)
);
}
);
width = 824;
},
{
layerId = "5704134F-6EB5-4790-9409-A43A14941BD5";
shapes = (
{
closed = 1;
nodes = (
(-7,0,l),
(167,0,l),
(242,376,l),
(296,0,l),
(425,0,l),
(626,373,l),
(551,0,l),
(728,0,l),
(868,703,l),
(646,703,l),
(412,259,l),
(354,703,l),
(133,703,l)
);
}
);
width = 840;
}
);
unicode = 1052;
},
{
glyphname = Emsharptailcyr;
layers = (
{
layerId = "0D856A57-F1E8-4B9B-A293-C2F37DF93F32";
shapes = (
{
closed = 1;
nodes = (
(7,0,l),
(47,0,l),
(172,627,l),
(333,0,l),
(367,0,l),
(779,628,l),
(653,0,l),
(736,0,l),
(667,-110,l),
(704,-110,l),
(796,36,l),
(699,36,l),
(831,699,l),
(785,699,l),
(359,45,l),
(194,699,l),
(147,699,l)
);
}
);
width = 849;
},
{
layerId = "4DCA89B8-DFE6-4DD8-9DE5-D8A3D5DAECAB";
shapes = (
{
closed = 1;
nodes = (
(4,0,l),
(76,0,l),
(190,569,l),
(323,0,l),
(381,0,l),
(742,569,l),
(628,0,l),
(717,0,l),
(648,-110,l),
(718,-110,l),
(824,59,l),
(712,59,l),
(840,700,l),
(750,700,l),
(372,98,l),
(234,700,l),
(144,700,l)
);
}
);
width = 873;
},
{
layerId = "5704134F-6EB5-4790-9409-A43A14941BD5";
shapes = (
{
closed = 1;
nodes = (
(-7,0,l),
(167,0,l),
(242,376,l),
(296,0,l),
(425,0,l),
(626,373,l),
(551,0,l),
(657,0,l),
(588,-110,l),
(762,-110,l),
(911,129,l),
(754,129,l),
(868,703,l),
(646,703,l),
(412,259,l),
(354,703,l),
(133,703,l)
);
}
);
width = 946;
}
);
unicode = 1229;
},
{
glyphname = Encyr;
layers = (
{
layerId = "0D856A57-F1E8-4B9B-A293-C2F37DF93F32";
shapes = (
{
closed = 1;
nodes = (
(7,0,l),
(47,0,l),
(113,335,l),
(554,335,l),
(487,0,l),
(526,0,l),
(665,699,l),
(626,699,l),
(560,370,l),
(120,370,l),
(186,699,l),
(147,699,l)
);
}
);
width = 652;
},
{
layerId = "4DCA89B8-DFE6-4DD8-9DE5-D8A3D5DAECAB";
shapes = (
{
closed = 1;
nodes = (
(4,0,l),
(76,0,l),
(140,321,l),
(531,321,l),
(467,0,l),
(540,0,l),
(680,700,l),
(607,700,l),
(545,387,l),
(154,387,l),
(216,700,l),
(144,700,l)
);
}
);
width = 663;
},
{
layerId = "5704134F-6EB5-4790-9409-A43A14941BD5";
shapes = (
{
closed = 1;
nodes = (
(-7,0,l),
(167,0,l),
(225,288,l),
(466,288,l),
(408,0,l),
(584,0,l),
(724,703,l),
(549,703,l),
(493,423,l),
(252,423,l),
(308,703,l),
(133,703,l)
);
}
);
width = 697;
}
);
unicode = 1053;
},
{
glyphname = Eng;
layers = (
{
layerId = "0D856A57-F1E8-4B9B-A293-C2F37DF93F32";
shapes = (
{
closed = 1;
nodes = (
(7,0,l),
(47,0,l),
(175,645,l),
(487,4,l),
(473,-70,ls),
(464,-117,o),
(446,-168,o),
(372,-168,cs),
(356,-168,o),
(334,-164,o),
(313,-159,c),
(304,-203,l),
(329,-208,o),
(345,-210,o),
(364,-210,cs),
(458,-210,o),
(498,-140,o),
(511,-75,cs),
(665,699,l),
(626,699,l),
(499,64,l),
(193,699,l),
(147,699,l)
);
}
);
width = 653;
},
{
layerId = "4DCA89B8-DFE6-4DD8-9DE5-D8A3D5DAECAB";
shapes = (
{
closed = 1;
nodes = (
(4,0,l),
(76,0,l),
(192,581,l),
(467,0,l),
(456,-57,ls),
(447,-102,o),
(428,-145,o),
(365,-145,cs),
(349,-145,o),
(329,-142,o),
(306,-136,c),
(293,-202,l),
(317,-207,o),
(338,-209,o),
(359,-209,cs),
(462,-209,o),
(513,-136,o),
(528,-61,cs),
(680,700,l),
(607,700,l),
(491,119,l),
(216,700,l),
(144,700,l)
);
}
);
width = 663;
},
{
layerId = "5704134F-6EB5-4790-9409-A43A14941BD5";
shapes = (
{
closed = 1;
nodes = (
(-7,0,l),
(167,0,l),
(245,387,l),
(417,27,l),
(407,-19,ls),
(399,-57,o),
(376,-77,o),
(344,-77,cs),
(329,-77,o),
(318,-75,o),
(285,-68,c),
(259,-199,l),
(278,-204,o),
(316,-207,o),
(342,-207,cs),
(472,-207,o),
(559,-124,o),
(580,-20,cs),
(724,703,l),
(549,703,l),
(471,316,l),
(287,703,l),
(133,703,l)
);
}
);
width = 696;
}
);
unicode = 330;
},
{
glyphname = Engecyr;
layers = (
{
layerId = "0D856A57-F1E8-4B9B-A293-C2F37DF93F32";
shapes = (
{
closed = 1;
nodes = (
(7,0,l),
(47,0,l),
(113,335,l),
(554,335,l),
(487,0,l),
(526,0,l),
(658,664,l),
(1034,664,l),
(1041,699,l),
(626,699,l),
(560,370,l),
(120,370,l),
(186,699,l),
(147,699,l)
);
}
);
width = 1000;
},
{
layerId = "4DCA89B8-DFE6-4DD8-9DE5-D8A3D5DAECAB";
shapes = (
{
closed = 1;
nodes = (
(4,0,l),
(76,0,l),
(140,321,l),
(531,321,l),
(467,0,l),
(540,0,l),
(666,634,l),
(1030,634,l),
(1043,700,l),
(607,700,l),
(545,387,l),
(154,387,l),
(216,700,l),
(144,700,l)
);
}
);
width = 999;
},
{
layerId = "5704134F-6EB5-4790-9409-A43A14941BD5";
shapes = (
{
closed = 1;
nodes = (
(-7,0,l),
(167,0,l),
(225,288,l),
(466,288,l),
(408,0,l),
(584,0,l),
(697,569,l),
(1025,569,l),
(1052,703,l),
(549,703,l),
(493,423,l),
(252,423,l),
(308,703,l),
(133,703,l)
);
}
);
width = 998;
}
);
unicode = 1188;
},
{
glyphname = Enhookcyr;
layers = (
{
layerId = "0D856A57-F1E8-4B9B-A293-C2F37DF93F32";
shapes = (
{
closed = 1;
nodes = (
(7,0,l),
(47,0,l),
(114,337,l),
(554,337,l),
(472,-75,ls),
(462,-124,o),
(443,-175,o),
(370,-175,cs),
(354,-175,o),
(331,-171,o),
(313,-160,c),
(305,-202,l),
(329,-208,o),
(345,-210,o),
(364,-210,cs),
(457,-210,o),
(498,-141,o),
(511,-75,cs),
(665,699,l),
(626,699,l),
(561,372,l),
(121,372,l),
(186,699,l),
(147,699,l)
);
}
);
width = 652;
},
{
layerId = "4DCA89B8-DFE6-4DD8-9DE5-D8A3D5DAECAB";
shapes = (
{
closed = 1;
nodes = (
(4,0,l),
(76,0,l),
(140,321,l),
(531,321,l),
(456,-56,ls),
(447,-101,o),
(427,-144,o),
(364,-144,cs),
(348,-144,o),
(328,-142,o),
(305,-136,c),
(292,-201,l),
(315,-207,o),
(337,-209,o),
(358,-209,cs),
(461,-209,o),
(513,-136,o),
(528,-60,cs),
(680,700,l),
(607,700,l),
(545,387,l),
(154,387,l),
(216,700,l),
(144,700,l)
);
}
);
width = 663;
},
{
layerId = "5704134F-6EB5-4790-9409-A43A14941BD5";
shapes = (
{
closed = 1;
nodes = (
(-7,0,l),
(167,0,l),
(225,288,l),
(466,288,l),
(405,-15,ls),
(397,-53,o),
(375,-74,o),
(341,-74,cs),
(326,-74,o),
(314,-72,o),
(280,-65,c),
(253,-199,l),
(273,-204,o),
(313,-207,o),
(339,-207,cs),
(472,-207,o),
(560,-121,o),
(581,-16,cs),
(724,703,l),
(549,703,l),
(493,423,l),
(252,423,l),
(308,703,l),
(133,703,l)
);
}
);
width = 697;
}
);
unicode = 1223;
},
{
glyphname = Ensharptailcyr;
layers = (
{
layerId = "0D856A57-F1E8-4B9B-A293-C2F37DF93F32";
shapes = (
{
closed = 1;
nodes = (
(7,0,l),
(47,0,l),
(113,335,l),
(554,335,l),
(487,0,l),
(545,0,l),
(476,-110,l),
(513,-110,l),
(604,36,l),
(533,36,l),
(665,699,l),
(626,699,l),
(560,370,l),
(120,370,l),
(186,699,l),
(147,699,l)
);
}
);
width = 658;
},
{
layerId = "4DCA89B8-DFE6-4DD8-9DE5-D8A3D5DAECAB";
shapes = (
{
closed = 1;
nodes = (
(4,0,l),
(76,0,l),
(140,321,l),
(531,321,l),
(467,0,l),
(544,0,l),
(475,-110,l),
(544,-110,l),
(651,59,l),
(552,59,l),
(680,700,l),
(607,700,l),
(545,387,l),
(154,387,l),
(216,700,l),
(144,700,l)
);
}
);
width = 699;
},
{
layerId = "5704134F-6EB5-4790-9409-A43A14941BD5";
shapes = (
{
closed = 1;
nodes = (
(-7,0,l),
(167,0,l),
(225,288,l),
(466,288,l),
(408,0,l),
(537,0,l),
(468,-110,l),
(641,-110,l),
(791,129,l),
(609,129,l),
(724,703,l),
(549,703,l),
(493,423,l),
(252,423,l),
(308,703,l),
(133,703,l)
);
}
);
width = 826;
}
);
unicode = 1225;
},
{
glyphname = Entailcyr;
layers = (
{
layerId = "0D856A57-F1E8-4B9B-A293-C2F37DF93F32";
shapes = (
{
closed = 1;
nodes = (
(7,0,l),
(47,0,l),
(113,335,l),
(554,335,l),
(487,0,l),
(588,0,l),
(566,-110,l),
(603,-110,l),
(632,36,l),
(533,36,l),
(665,699,l),
(626,699,l),
(560,370,l),
(120,370,l),
(186,699,l),
(147,699,l)
);
}
);
width = 725;
},
{
layerId = "4DCA89B8-DFE6-4DD8-9DE5-D8A3D5DAECAB";
shapes = (
{
closed = 1;
nodes = (
(4,0,l),
(76,0,l),
(140,321,l),
(531,321,l),
(467,0,l),
(583,0,l),
(561,-110,l),
(630,-110,l),
(664,59,l),
(552,59,l),
(680,700,l),
(607,700,l),
(545,387,l),
(154,387,l),
(216,700,l),
(144,700,l)
);
}
);
width = 748;
},
{
layerId = "5704134F-6EB5-4790-9409-A43A14941BD5";
shapes = (
{
closed = 1;
nodes = (
(-7,0,l),
(167,0,l),
(225,288,l),
(466,288,l),
(408,0,l),
(564,0,l),
(542,-110,l),
(716,-110,l),
(763,129,l),
(609,129,l),
(724,703,l),
(549,703,l),
(493,423,l),
(252,423,l),
(308,703,l),
(133,703,l)
);
}
);
width = 820;
}
);
unicode = 1186;
},
{
glyphname = Eogonek;
layers = (
{
layerId = "0D856A57-F1E8-4B9B-A293-C2F37DF93F32";
shapes = (
{
closed = 1;
nodes = (
(7,0,l),
(366,0,l),
(330,-31,o),
(304,-67,o),
(300,-89,cs),
(290,-138,o),
(316,-170,o),
(363,-170,cs),
(376,-170,o),
(396,-168,o),
(415,-164,c),
(421,-132,l),
(402,-134,o),
(384,-135,o),
(373,-135,cs),
(347,-135,o),
(332,-113,o),
(338,-83,cs),
(342,-61,o),
(364,-27,o),
(393,0,c),
(422,0,l),
(429,35,l),
(54,35,l),
(114,340,l),
(459,340,l),
(466,375,l),
(121,375,l),
(179,664,l),
(555,664,l),
(562,699,l),
(147,699,l)
);
}
);
width = 522;
},
{
layerId = "4DCA89B8-DFE6-4DD8-9DE5-D8A3D5DAECAB";
shapes = (
{
closed = 1;
nodes = (
(4,0,l),
(368,0,l),
(332,-29,o),
(305,-66,o),
(300,-93,cs),
(290,-143,o),
(320,-178,o),
(373,-178,cs),
(388,-178,o),
(412,-175,o),
(431,-171,c),
(441,-120,l),
(424,-124,o),
(406,-126,o),
(394,-126,cs),
(369,-126,o),
(355,-107,o),
(360,-81,cs),
(365,-58,o),
(386,-26,o),
(414,0,c),
(440,0,l),
(453,66,l),
(89,66,l),
(140,321,l),
(475,321,l),
(488,387,l),
(154,387,l),
(203,634,l),
(566,634,l),
(580,700,l),
(144,700,l)
);
}
);
width = 538;
},
{
layerId = "5704134F-6EB5-4790-9409-A43A14941BD5";
shapes = (
{
closed = 1;
nodes = (
(-7,0,l),
(371,0,l),
(339,-22,o),
(307,-62,o),
(298,-105,cs),
(287,-158,o),
(330,-203,o),
(401,-203,cs),
(422,-203,o),
(461,-197,o),
(483,-191,c),
(504,-84,l),
(489,-93,o),
(473,-98,o),
(456,-98,cs),
(435,-98,o),
(424,-89,o),
(427,-74,cs),
(431,-52,o),
(451,-25,o),
(481,0,c),
(495,0,l),
(522,136,l),
(194,136,l),
(225,288,l),
(526,288,l),
(553,423,l),
(252,423,l),
(281,569,l),
(608,569,l),
(635,703,l),
(133,703,l)
);
}
);
width = 583;
}
);
unicode = 280;
},
{
glyphname = Eopen;
layers = (
{
layerId = "0D856A57-F1E8-4B9B-A293-C2F37DF93F32";
shapes = (
{
closed = 1;
nodes = (
(263,377,ls),
(184,377,o),
(138,438,o),
(155,521,cs),
(172,607,o),
(246,669,o),
(343,669,cs),
(443,669,o),
(498,612,o),
(503,522,c),
(547,541,l),
(533,645,o),
(464,707,o),
(348,707,cs),
(229,707,o),
(136,632,o),
(114,520,cs),
(100,449,o),
(128,394,o),
(181,360,c),
(106,331,o),
(44,272,o),
(27,188,cs),
(3,69,o),
(73,-11,o),
(199,-11,cs),
(321,-11,o),
(425,54,o),
(484,164,c),
(444,180,l),
(405,91,o),
(311,27,o),
(207,27,cs),
(111,27,o),
(47,92,o),
(66,186,cs),
(84,275,o),
(158,340,o),
(240,340,cs),
(378,340,l),
(385,377,l)
);
}
);
width = 550;
},
{
layerId = "4DCA89B8-DFE6-4DD8-9DE5-D8A3D5DAECAB";
shapes = (
{
closed = 1;
nodes = (
(285,393,ls),
(211,393,o),
(169,443,o),
(183,515,cs),
(198,588,o),
(261,639,o),
(344,639,cs),
(430,639,o),
(481,589,o),
(487,510,c),
(562,535,l),
(552,641,o),
(478,708,o),
(356,708,cs),
(231,708,o),
(132,629,o),
(109,516,cs),
(95,446,o),
(119,391,o),
(171,361,c),
(96,333,o),
(40,272,o),
(24,192,cs),
(0,73,o),
(74,-10,o),
(207,-10,cs),
(337,-10,o),
(450,63,o),
(506,177,c),
(441,202,l),
(400,115,o),
(318,59,o),
(223,59,cs),
(137,59,o),
(83,113,o),
(99,193,cs),
(114,270,o),
(181,324,o),
(260,324,cs),
(384,324,l),
(398,393,l)
);
}
);
width = 570;
},
{
layerId = "5704134F-6EB5-4790-9409-A43A14941BD5";
shapes = (
{
closed = 1;
nodes = (
(347,428,ls),
(290,428,o),
(262,453,o),
(271,500,cs),
(280,546,o),
(311,572,o),
(352,572,cs),
(397,572,o),
(433,534,o),
(441,474,c),
(608,517,l),
(611,629,o),
(522,711,o),
(383,711,cs),
(235,711,o),
(119,621,o),
(96,505,cs),
(82,437,o),
(105,382,o),
(164,365,c),
(77,339,o),
(30,272,o),
(16,204,cs),
(-8,86,o),
(78,-8,o),
(232,-8,cs),
(390,-8,o),
(525,92,o),
(572,218,c),
(436,270,l),
(386,170,o),
(334,129,o),
(266,129,cs),
(209,129,o),
(184,160,o),
(195,213,cs),
(205,262,o),
(252,291,o),
(324,291,cs),
(410,291,l),
(437,428,l)
);
}
);
width = 631;
}
);
unicode = 400;
},
{
glyphname = Epsilon;
layers = (
{
layerId = "0D856A57-F1E8-4B9B-A293-C2F37DF93F32";
shapes = (
{
closed = 1;
nodes = (
(7,0,l),
(422,0,l),
(429,35,l),
(54,35,l),
(114,340,l),
(459,340,l),
(466,375,l),
(121,375,l),
(179,664,l),
(555,664,l),
(562,699,l),
(147,699,l)
);
}
);
width = 521;
},
{
layerId = "4DCA89B8-DFE6-4DD8-9DE5-D8A3D5DAECAB";
shapes = (
{
closed = 1;
nodes = (
(4,0,l),
(440,0,l),
(453,66,l),
(89,66,l),
(140,321,l),
(475,321,l),
(488,387,l),
(154,387,l),
(203,634,l),
(566,634,l),
(580,700,l),
(144,700,l)
);
}
);
width = 536;
},
{
layerId = "5704134F-6EB5-4790-9409-A43A14941BD5";
shapes = (
{
closed = 1;
nodes = (
(-7,0,l),
(495,0,l),
(522,136,l),
(194,136,l),
(225,288,l),
(526,288,l),
(553,423,l),
(252,423,l),
(281,569,l),
(608,569,l),
(635,703,l),
(133,703,l)
);
}
);
width = 581;
}
);
unicode = 917;
},
{
glyphname = Epsilonacute;
layers = (
{
layerId = "0D856A57-F1E8-4B9B-A293-C2F37DF93F32";
shapes = (
{
closed = 1;
nodes = (
(7,0,l),
(422,0,l),
(429,35,l),
(54,35,l),
(114,340,l),
(459,340,l),
(466,375,l),
(121,375,l),
(179,664,l),
(555,664,l),
(562,699,l),
(147,699,l)
);
},
{
closed = 1;
nodes = (
(415,900,l),
(303,789,l),
(339,789,l),
(470,900,l)
);
}
);
width = 521;
},
{
layerId = "4DCA89B8-DFE6-4DD8-9DE5-D8A3D5DAECAB";
shapes = (
{
closed = 1;
nodes = (
(4,0,l),
(440,0,l),
(453,66,l),
(89,66,l),
(140,321,l),
(475,321,l),
(488,387,l),
(154,387,l),
(203,634,l),
(566,634,l),
(580,700,l),
(144,700,l)
);
},
{
closed = 1;
nodes = (
(418,898,l),
(308,778,l),
(367,778,l),
(509,898,l)
);
}
);
width = 536;
},
{
layerId = "5704134F-6EB5-4790-9409-A43A14941BD5";
shapes = (
{
closed = 1;
nodes = (
(-7,0,l),
(495,0,l),
(522,136,l),
(194,136,l),
(225,288,l),
(526,288,l),
(553,423,l),
(252,423,l),
(281,569,l),
(608,569,l),
(635,703,l),
(133,703,l)
);
},
{
closed = 1;
nodes = (
(430,893,l),
(324,746,l),
(451,746,l),
(628,893,l)
);
}
);
width = 581;
}
);
unicode = 8137;
},
{
glyphname = Epsilongrave;
layers = (
{
layerId = "0D856A57-F1E8-4B9B-A293-C2F37DF93F32";
shapes = (
{
closed = 1;
nodes = (
(7,0,l),
(422,0,l),
(429,35,l),
(54,35,l),
(114,340,l),
(459,340,l),
(466,375,l),
(121,375,l),
(179,664,l),
(555,664,l),
(562,699,l),
(147,699,l)
);
},
{
closed = 1;
nodes = (
(305,789,l),
(342,789,l),
(274,900,l),
(219,900,l)
);
}
);
width = 521;
},
{
layerId = "4DCA89B8-DFE6-4DD8-9DE5-D8A3D5DAECAB";
shapes = (
{
closed = 1;
nodes = (
(4,0,l),
(440,0,l),
(453,66,l),
(89,66,l),
(140,321,l),
(475,321,l),
(488,387,l),
(154,387,l),
(203,634,l),
(566,634,l),
(580,700,l),
(144,700,l)
);
},
{
closed = 1;
nodes = (
(322,778,l),
(381,778,l),
(318,898,l),
(227,898,l)
);
}
);
width = 536;
},
{
layerId = "5704134F-6EB5-4790-9409-A43A14941BD5";
shapes = (
{
closed = 1;
nodes = (
(-7,0,l),
(495,0,l),
(522,136,l),
(194,136,l),
(225,288,l),
(526,288,l),
(553,423,l),
(252,423,l),
(281,569,l),
(608,569,l),
(635,703,l),
(133,703,l)
);
},
{
closed = 1;
nodes = (
(372,746,l),
(498,746,l),
(452,893,l),
(254,893,l)
);
}
);
width = 581;
}
);
unicode = 8136;
},
{
glyphname = Epsilontonos;
layers = (
{
layerId = "0D856A57-F1E8-4B9B-A293-C2F37DF93F32";
shapes = (
{
closed = 1;
nodes = (
(7,0,l),
(422,0,l),
(429,35,l),
(54,35,l),
(114,340,l),
(459,340,l),
(466,375,l),
(121,375,l),
(179,664,l),
(555,664,l),
(562,699,l),
(147,699,l)
);
},
{
closed = 1;
nodes = (
(441,905,l),
(330,794,l),
(366,794,l),
(497,905,l)
);
}
);
width = 521;
},
{
layerId = "4DCA89B8-DFE6-4DD8-9DE5-D8A3D5DAECAB";
shapes = (
{
closed = 1;
nodes = (
(4,0,l),
(440,0,l),
(453,66,l),
(89,66,l),
(140,321,l),
(475,321,l),
(488,387,l),
(154,387,l),
(203,634,l),
(566,634,l),
(580,700,l),
(144,700,l)
);
},
{
closed = 1;
nodes = (
(438,895,l),
(328,775,l),
(387,775,l),
(529,895,l)
);
}
);
width = 536;
},
{
layerId = "5704134F-6EB5-4790-9409-A43A14941BD5";
shapes = (
{
closed = 1;
nodes = (
(-7,0,l),
(495,0,l),
(522,136,l),
(194,136,l),
(225,288,l),
(526,288,l),
(553,423,l),
(252,423,l),
(281,569,l),
(608,569,l),
(635,703,l),
(133,703,l)
);
},
{
closed = 1;
nodes = (
(432,865,l),
(326,718,l),
(453,718,l),
(630,865,l)
);
}
);
width = 581;
}
);
unicode = 904;
},
{
glyphname = Ercyr;
layers = (
{
layerId = "0D856A57-F1E8-4B9B-A293-C2F37DF93F32";
shapes = (
{
closed = 1;
nodes = (
(103,285,l),
(302,285,ls),
(589,285,o),
(672,699,o),
(385,699,cs),
(147,699,l),
(7,0,l),
(46,0,l)
);
},
{
closed = 1;
nodes = (
(110,320,l),
(178,664,l),
(372,664,ls),
(611,664,o),
(543,320,o),
(304,320,cs)
);
}
);
width = 560;
},
{
layerId = "4DCA89B8-DFE6-4DD8-9DE5-D8A3D5DAECAB";
shapes = (
{
closed = 1;
nodes = (
(129,266,l),
(305,266,ls),
(606,266,o),
(693,700,o),
(392,700,cs),
(144,700,l),
(4,0,l),
(76,0,l)
);
},
{
closed = 1;
nodes = (
(143,333,l),
(203,633,l),
(372,633,ls),
(581,633,o),
(521,333,o),
(312,333,cs)
);
}
);
width = 573;
},
{
layerId = "5704134F-6EB5-4790-9409-A43A14941BD5";
shapes = (
{
closed = 1;
nodes = (
(215,229,l),
(316,229,ls),
(659,229,o),
(754,703,o),
(411,703,cs),
(133,703,l),
(-7,0,l),
(169,0,l)
);
},
{
closed = 1;
nodes = (
(243,369,l),
(282,563,l),
(358,563,ls),
(491,563,o),
(452,369,o),
(319,369,cs)
);
}
);
width = 615;
}
);
unicode = 1056;
},
{
glyphname = Ereversed;
layers = (
{
layerId = "0D856A57-F1E8-4B9B-A293-C2F37DF93F32";
shapes = (
{
closed = 1;
nodes = (
(533,699,l),
(119,699,l),
(112,664,l),
(487,664,l),
(429,375,l),
(84,375,l),
(77,340,l),
(422,340,l),
(361,35,l),
(-14,35,l),
(-21,0,l),
(394,0,l)
);
}
);
width = 521;
},
{
layerId = "4DCA89B8-DFE6-4DD8-9DE5-D8A3D5DAECAB";
shapes = (
{
closed = 1;
nodes = (
(552,700,l),
(116,700,l),
(103,634,l),
(467,634,l),
(417,387,l),
(83,387,l),
(70,321,l),
(404,321,l),
(353,66,l),
(-10,66,l),
(-24,0,l),
(412,0,l)
);
}
);
width = 536;
},
{
layerId = "5704134F-6EB5-4790-9409-A43A14941BD5";
shapes = (
{
closed = 1;
nodes = (
(610,703,l),
(108,703,l),
(81,569,l),
(408,569,l),
(379,423,l),
(78,423,l),
(51,288,l),
(352,288,l),
(322,136,l),
(-6,136,l),
(-33,0,l),
(469,0,l)
);
}
);
width = 581;
}
);
unicode = 398;
},
{
glyphname = Ereversedcyr;
layers = (
{
layerId = "0D856A57-F1E8-4B9B-A293-C2F37DF93F32";
shapes = (
{
closed = 1;
nodes = (
(266,371,l),
(259,336,l),
(610,336,l),
(569,155,o),
(433,28,o),
(277,28,cs),
(140,28,o),
(71,100,o),
(75,228,c),
(32,213,l),
(35,73,o),
(114,-11,o),
(269,-11,cs),
(451,-11,o),
(611,138,o),
(653,349,cs),
(695,560,o),
(595,707,o),
(413,707,cs),
(267,707,o),
(156,635,o),
(92,511,c),
(128,495,l),
(183,607,o),
(280,668,o),
(405,668,cs),
(559,668,o),
(643,546,o),
(616,371,c)
);
}
);
width = 690;
},
{
layerId = "4DCA89B8-DFE6-4DD8-9DE5-D8A3D5DAECAB";
shapes = (
{
closed = 1;
nodes = (
(266,387,l),
(253,321,l),
(574,321,l),
(532,166,o),
(413,59,o),
(277,59,cs),
(157,59,o),
(91,127,o),
(94,240,c),
(19,215,l),
(23,77,o),
(112,-10,o),
(264,-10,cs),
(451,-10,o),
(613,138,o),
(655,349,cs),
(697,560,o),
(594,708,o),
(407,708,cs),
(263,708,o),
(141,629,o),
(77,503,c),
(141,478,l),
(189,579,o),
(281,639,o),
(393,639,cs),
(526,639,o),
(602,537,o),
(586,387,c)
);
}
);
width = 699;
},
{
layerId = "5704134F-6EB5-4790-9409-A43A14941BD5";
shapes = (
{
closed = 1;
nodes = (
(298,423,l),
(271,288,l),
(499,288,l),
(462,192,o),
(388,129,o),
(308,129,cs),
(241,129,o),
(183,194,o),
(185,276,c),
(15,221,l),
(20,89,o),
(136,-8,o),
(280,-8,cs),
(481,-8,o),
(652,139,o),
(694,350,cs),
(736,561,o),
(625,711,o),
(424,711,cs),
(287,711,o),
(131,612,o),
(65,480,c),
(215,428,l),
(244,509,o),
(326,572,o),
(396,572,cs),
(473,572,o),
(522,514,o),
(524,423,c)
);
}
);
width = 729;
}
);
unicode = 1069;
},
{
glyphname = Ereverseddieresiscyr;
layers = (
{
layerId = "0D856A57-F1E8-4B9B-A293-C2F37DF93F32";
shapes = (
{
closed = 1;
nodes = (
(266,371,l),
(259,336,l),
(610,336,l),
(569,155,o),
(433,28,o),
(277,28,cs),
(140,28,o),
(71,100,o),
(75,228,c),
(32,213,l),
(35,73,o),
(114,-11,o),
(269,-11,cs),
(451,-11,o),
(611,138,o),
(653,349,cs),
(695,560,o),
(595,707,o),
(413,707,cs),
(267,707,o),
(156,635,o),
(92,511,c),
(128,495,l),
(183,607,o),
(280,668,o),
(405,668,cs),
(559,668,o),
(643,546,o),
(616,371,c)
);
},
{
closed = 1;
nodes = (
(404,820,l),
(417,888,l),
(352,888,l),
(338,820,l)
);
},
{
closed = 1;
nodes = (
(558,820,l),
(571,888,l),
(506,888,l),
(492,820,l)
);
}
);
width = 690;
},
{
layerId = "4DCA89B8-DFE6-4DD8-9DE5-D8A3D5DAECAB";
shapes = (
{
closed = 1;
nodes = (
(266,387,l),
(253,321,l),
(574,321,l),
(532,166,o),
(413,59,o),
(277,59,cs),
(157,59,o),
(91,127,o),
(94,240,c),
(19,215,l),
(23,77,o),
(112,-10,o),
(264,-10,cs),
(451,-10,o),
(613,138,o),
(655,349,cs),
(697,560,o),
(594,708,o),
(407,708,cs),
(263,708,o),
(141,629,o),
(77,503,c),
(141,478,l),
(189,579,o),
(281,639,o),
(393,639,cs),
(526,639,o),
(602,537,o),
(586,387,c)
);
},
{
closed = 1;
nodes = (
(413,808,l),
(430,893,l),
(341,893,l),
(324,808,l)
);
},
{
closed = 1;
nodes = (
(581,808,l),
(598,893,l),
(509,893,l),
(492,808,l)
);
}
);
width = 699;
},
{
layerId = "5704134F-6EB5-4790-9409-A43A14941BD5";
shapes = (
{
closed = 1;
nodes = (
(298,423,l),
(271,288,l),
(499,288,l),
(462,192,o),
(388,129,o),
(308,129,cs),
(241,129,o),
(183,194,o),
(185,276,c),
(15,221,l),
(20,89,o),
(136,-8,o),
(280,-8,cs),
(481,-8,o),
(652,139,o),
(694,350,cs),
(736,561,o),
(625,711,o),
(424,711,cs),
(287,711,o),
(131,612,o),
(65,480,c),
(215,428,l),
(244,509,o),
(326,572,o),
(396,572,cs),
(473,572,o),
(522,514,o),
(524,423,c)
);
},
{
closed = 1;
nodes = (
(441,773,l),
(468,910,l),
(308,910,l),
(280,773,l)
);
},
{
closed = 1;
nodes = (
(650,773,l),
(677,910,l),
(516,910,l),
(489,773,l)
);
}
);
width = 729;
}
);
unicode = 1260;
},
{
glyphname = Escyr;
layers = (
{
layerId = "0D856A57-F1E8-4B9B-A293-C2F37DF93F32";
shapes = (
{
closed = 1;
nodes = (
(26,138,o),
(126,-11,o),
(308,-11,cs),
(463,-11,o),
(576,73,o),
(635,213,c),
(597,228,l),
(550,101,o),
(453,29,o),
(316,29,cs),
(156,29,o),
(70,161,o),
(108,349,cs),
(146,537,o),
(283,668,o),
(443,668,cs),
(568,668,o),
(641,606,o),
(651,495,c),
(693,511,l),
(679,635,o),
(597,707,o),
(451,707,cs),
(269,707,o),
(110,560,o),
(68,349,cs)
);
}
);
width = 690;
},
{
layerId = "4DCA89B8-DFE6-4DD8-9DE5-D8A3D5DAECAB";
shapes = (
{
closed = 1;
nodes = (
(22,138,o),
(125,-10,o),
(312,-10,cs),
(464,-10,o),
(587,77,o),
(646,215,c),
(582,240,l),
(540,127,o),
(446,59,o),
(326,59,cs),
(182,59,o),
(105,179,o),
(139,349,cs),
(173,519,o),
(298,639,o),
(442,639,cs),
(554,639,o),
(622,579,o),
(629,478,c),
(704,503,l),
(690,629,o),
(600,708,o),
(456,708,cs),
(269,708,o),
(106,560,o),
(64,349,cs)
);
}
);
width = 699;
},
{
layerId = "5704134F-6EB5-4790-9409-A43A14941BD5";
shapes = (
{
closed = 1;
nodes = (
(13,139,o),
(124,-8,o),
(324,-8,cs),
(479,-8,o),
(623,81,o),
(678,201,c),
(531,256,l),
(502,191,o),
(431,139,o),
(355,139,cs),
(258,139,o),
(207,226,o),
(232,350,cs),
(257,475,o),
(343,562,o),
(443,562,cs),
(519,562,o),
(569,512,o),
(569,448,c),
(739,500,l),
(724,621,o),
(617,711,o),
(465,711,cs),
(268,711,o),
(97,561,o),
(55,350,cs)
);
}
);
width = 729;
}
);
unicode = 1057;
},
{
glyphname = Esh;
layers = (
{
layerId = "0D856A57-F1E8-4B9B-A293-C2F37DF93F32";
shapes = (
{
closed = 1;
nodes = (
(175,661,l),
(559,661,l),
(567,699,l),
(139,699,l),
(129,646,l),
(337,339,l),
(-10,54,l),
(-21,0,l),
(448,0,l),
(455,38,l),
(31,38,l),
(388,339,l)
);
}
);
width = 546;
},
{
layerId = "4DCA89B8-DFE6-4DD8-9DE5-D8A3D5DAECAB";
shapes = (
{
closed = 1;
nodes = (
(212,634,l),
(572,634,l),
(585,700,l),
(136,700,l),
(123,634,l),
(326,344,l),
(-10,66,l),
(-24,0,l),
(464,0,l),
(478,66,l),
(79,66,l),
(416,344,l)
);
}
);
width = 560;
},
{
layerId = "5704134F-6EB5-4790-9409-A43A14941BD5";
shapes = (
{
closed = 1;
nodes = (
(327,569,l),
(613,569,l),
(640,703,l),
(126,703,l),
(106,599,l),
(295,359,l),
(-11,104,l),
(-32,0,l),
(517,0,l),
(544,136,l),
(223,136,l),
(501,359,l)
);
}
);
width = 605;
}
);
unicode = 425;
},
{
glyphname = Estailcyr;
layers = (
{
layerId = "0D856A57-F1E8-4B9B-A293-C2F37DF93F32";
shapes = (
{
closed = 1;
nodes = (
(26,138,o),
(126,-11,o),
(308,-11,cs),
(463,-11,o),
(576,73,o),
(635,213,c),
(597,228,l),
(550,101,o),
(453,29,o),
(316,29,cs),
(156,29,o),
(70,161,o),
(108,349,cs),
(146,537,o),
(283,668,o),
(443,668,cs),
(568,668,o),
(641,606,o),
(651,495,c),
(693,511,l),
(679,635,o),
(597,707,o),
(451,707,cs),
(269,707,o),
(110,560,o),
(68,349,cs)
);
},
{
closed = 1;
nodes = (
(148,-205,l),
(178,-210,o),
(199,-213,o),
(213,-213,cs),
(270,-213,o),
(313,-184,o),
(322,-138,cs),
(331,-93,o),
(297,-60,o),
(243,-60,c),
(235,-99,l),
(282,-99,o),
(296,-120,o),
(293,-137,cs),
(289,-159,o),
(259,-173,o),
(218,-173,cs),
(199,-173,o),
(175,-171,o),
(155,-171,c)
);
}
);
width = 690;
},
{
layerId = "4DCA89B8-DFE6-4DD8-9DE5-D8A3D5DAECAB";
shapes = (
{
closed = 1;
nodes = (
(22,138,o),
(125,-10,o),
(312,-10,cs),
(464,-10,o),
(587,77,o),
(646,215,c),
(582,240,l),
(540,127,o),
(446,59,o),
(326,59,cs),
(182,59,o),
(105,179,o),
(139,349,cs),
(173,519,o),
(298,639,o),
(442,639,cs),
(554,639,o),
(622,579,o),
(629,478,c),
(704,503,l),
(690,629,o),
(600,708,o),
(456,708,cs),
(269,708,o),
(106,560,o),
(64,349,cs)
);
},
{
closed = 1;
nodes = (
(159,-204,l),
(189,-211,o),
(217,-215,o),
(234,-215,cs),
(298,-215,o),
(343,-183,o),
(353,-133,cs),
(363,-81,o),
(325,-49,o),
(253,-49,c),
(243,-100,l),
(282,-100,o),
(304,-113,o),
(300,-133,cs),
(296,-151,o),
(273,-163,o),
(241,-163,cs),
(221,-163,o),
(194,-159,o),
(169,-153,c)
);
}
);
width = 699;
},
{
layerId = "5704134F-6EB5-4790-9409-A43A14941BD5";
shapes = (
{
closed = 1;
nodes = (
(13,139,o),
(124,-8,o),
(324,-8,cs),
(479,-8,o),
(623,81,o),
(678,201,c),
(531,256,l),
(502,191,o),
(431,139,o),
(355,139,cs),
(258,139,o),
(207,226,o),
(232,350,cs),
(257,475,o),
(343,562,o),
(443,562,cs),
(519,562,o),
(569,512,o),
(569,448,c),
(739,500,l),
(724,621,o),
(617,711,o),
(465,711,cs),
(268,711,o),
(97,561,o),
(55,350,cs)
);
},
{
closed = 1;
nodes = (
(190,-212,l),
(219,-224,o),
(272,-232,o),
(297,-232,cs),
(380,-232,o),
(438,-190,o),
(450,-129,cs),
(465,-56,o),
(410,-26,o),
(284,-26,c),
(267,-113,l),
(283,-113,o),
(325,-113,o),
(321,-131,c),
(320,-138,o),
(312,-143,o),
(303,-143,cs),
(279,-143,o),
(252,-133,o),
(211,-110,c)
);
}
);
width = 729;
}
);
unicode = 1194;
},
{
glyphname = Eta;
layers = (
{
layerId = "0D856A57-F1E8-4B9B-A293-C2F37DF93F32";
shapes = (
{
closed = 1;
nodes = (
(7,0,l),
(47,0,l),
(113,335,l),
(554,335,l),
(487,0,l),
(526,0,l),
(665,699,l),
(626,699,l),
(560,370,l),
(120,370,l),
(186,699,l),
(147,699,l)
);
}
);
width = 652;
},
{
layerId = "4DCA89B8-DFE6-4DD8-9DE5-D8A3D5DAECAB";
shapes = (
{
closed = 1;
nodes = (
(4,0,l),
(76,0,l),
(140,321,l),
(531,321,l),
(467,0,l),
(540,0,l),
(680,700,l),
(607,700,l),
(545,387,l),
(154,387,l),
(216,700,l),
(144,700,l)
);
}
);
width = 663;
},
{
layerId = "5704134F-6EB5-4790-9409-A43A14941BD5";
shapes = (
{
closed = 1;
nodes = (
(-7,0,l),
(167,0,l),
(225,288,l),
(466,288,l),
(408,0,l),
(584,0,l),
(724,703,l),
(549,703,l),
(493,423,l),
(252,423,l),
(308,703,l),
(133,703,l)
);
}
);
width = 697;
}
);
unicode = 919;
},
{
glyphname = Etaacute;
layers = (
{
layerId = "0D856A57-F1E8-4B9B-A293-C2F37DF93F32";
shapes = (
{
closed = 1;
nodes = (
(7,0,l),
(47,0,l),
(113,335,l),
(554,335,l),
(487,0,l),
(526,0,l),
(665,699,l),
(626,699,l),
(560,370,l),
(120,370,l),
(186,699,l),
(147,699,l)
);
},
{
closed = 1;
nodes = (
(481,900,l),
(370,789,l),
(406,789,l),
(537,900,l)
);
}
);
width = 652;
},
{
layerId = "4DCA89B8-DFE6-4DD8-9DE5-D8A3D5DAECAB";
shapes = (
{
closed = 1;
nodes = (
(4,0,l),
(76,0,l),
(140,321,l),
(531,321,l),
(467,0,l),
(540,0,l),
(680,700,l),
(607,700,l),
(545,387,l),
(154,387,l),
(216,700,l),
(144,700,l)
);
},
{
closed = 1;
nodes = (
(483,898,l),
(373,778,l),
(432,778,l),
(574,898,l)
);
}
);
width = 663;
},
{
layerId = "5704134F-6EB5-4790-9409-A43A14941BD5";
shapes = (
{
closed = 1;
nodes = (
(-7,0,l),
(167,0,l),
(225,288,l),
(466,288,l),
(408,0,l),
(584,0,l),
(724,703,l),
(549,703,l),
(493,423,l),
(252,423,l),
(308,703,l),
(133,703,l)
);
},
{
closed = 1;
nodes = (
(489,893,l),
(383,746,l),
(509,746,l),
(687,893,l)
);
}
);
width = 697;
}
);
unicode = 8139;
},
{
glyphname = Etaaspertildeiotasub;
layers = (
{
layerId = "0D856A57-F1E8-4B9B-A293-C2F37DF93F32";
shapes = (
{
closed = 1;
nodes = (
(7,0,l),
(47,0,l),
(113,335,l),
(554,335,l),
(487,0,l),
(526,0,l),
(665,699,l),
(626,699,l),
(560,370,l),
(120,370,l),
(186,699,l),
(147,699,l)
);
},
{
closed = 1;
nodes = (
(456,885,o),
(419,859,o),
(410,816,cs),
(402,776,o),
(424,742,o),
(479,740,c),
(484,767,l),
(456,768,o),
(428,780,o),
(435,815,cs),
(440,842,o),
(468,859,o),
(506,859,cs),
(524,859,o),
(550,857,o),
(567,854,c),
(572,877,l),
(543,883,o),
(525,885,o),
(512,885,cs)
);
},
{
closed = 1;
nodes = (
(376,907,l),
(408,945,o),
(426,956,o),
(451,956,cs),
(508,956,o),
(524,904,o),
(579,904,cs),
(615,904,o),
(639,921,o),
(686,976,c),
(662,996,l),
(623,954,o),
(609,947,o),
(588,947,cs),
(532,947,o),
(516,999,o),
(460,999,cs),
(424,999,o),
(399,983,o),
(351,926,c)
);
},
{
closed = 1;
nodes = (
(677,118,ls),
(665,56,o),
(676,-10,o),
(765,-10,cs),
(782,-10,o),
(798,-9,o),
(824,-4,c),
(831,33,l),
(810,29,o),
(789,27,o),
(772,27,cs),
(704,27,o),
(707,77,o),
(716,123,cs),
(790,493,l),
(752,493,l)
);
}
);
width = 911;
},
{
layerId = "4DCA89B8-DFE6-4DD8-9DE5-D8A3D5DAECAB";
shapes = (
{
closed = 1;
nodes = (
(4,0,l),
(76,0,l),
(140,321,l),
(531,321,l),
(467,0,l),
(540,0,l),
(680,700,l),
(607,700,l),
(545,387,l),
(154,387,l),
(216,700,l),
(144,700,l)
);
},
{
closed = 1;
nodes = (
(420,897,o),
(375,865,o),
(365,815,cs),
(355,763,o),
(392,731,o),
(464,731,c),
(475,782,l),
(436,782,o),
(413,795,o),
(417,815,cs),
(421,833,o),
(444,845,o),
(476,845,cs),
(496,845,o),
(524,841,o),
(549,835,c),
(559,886,l),
(529,893,o),
(501,897,o),
(484,897,cs)
);
},
{
closed = 1;
nodes = (
(373,920,l),
(405,955,o),
(423,966,o),
(446,966,cs),
(500,966,o),
(515,920,o),
(575,920,cs),
(614,920,o),
(644,941,o),
(695,1002,c),
(659,1030,l),
(621,988,o),
(609,984,o),
(587,984,cs),
(533,984,o),
(517,1030,o),
(458,1030,cs),
(419,1030,o),
(390,1010,o),
(338,948,c)
);
},
{
closed = 1;
nodes = (
(687,132,ls),
(673,60,o),
(694,-10,o),
(793,-10,cs),
(813,-10,o),
(834,-8,o),
(859,-3,c),
(871,60,l),
(846,54,o),
(827,52,o),
(811,52,cs),
(751,52,o),
(748,93,o),
(757,136,cs),
(830,500,l),
(760,500,l)
);
}
);
width = 946;
},
{
layerId = "5704134F-6EB5-4790-9409-A43A14941BD5";
shapes = (
{
closed = 1;
nodes = (
(-7,0,l),
(167,0,l),
(225,288,l),
(466,288,l),
(408,0,l),
(584,0,l),
(724,703,l),
(549,703,l),
(493,423,l),
(252,423,l),
(308,703,l),
(133,703,l)
);
},
{
closed = 1;
nodes = (
(380,935,o),
(311,888,o),
(298,824,cs),
(282,743,o),
(372,723,o),
(494,729,c),
(509,802,l),
(493,799,o),
(438,796,o),
(442,816,c),
(443,822,o),
(449,828,o),
(457,828,cs),
(482,828,o),
(515,818,o),
(566,802,c),
(588,913,l),
(557,925,o),
(497,935,o),
(467,935,cs)
);
},
{
closed = 1;
nodes = (
(366,962,l),
(401,1002,o),
(421,1017,o),
(435,1017,cs),
(478,1017,o),
(490,971,o),
(564,971,cs),
(612,971,o),
(658,1003,o),
(722,1082,c),
(654,1136,l),
(634,1100,o),
(610,1081,o),
(586,1081,cs),
(538,1081,o),
(524,1127,o),
(457,1127,cs),
(409,1127,o),
(364,1094,o),
(301,1016,c)
);
},
{
closed = 1;
nodes = (
(719,176,ls),
(699,74,o),
(750,-10,o),
(879,-10,cs),
(906,-10,o),
(944,-6,o),
(966,-1,c),
(991,126,l),
(956,119,o),
(943,117,o),
(929,117,cs),
(892,117,o),
(876,139,o),
(884,177,cs),
(953,523,l),
(788,523,l)
);
}
);
width = 1051;
}
);
unicode = 8095;
},
{
glyphname = Etagrave;
layers = (
{
layerId = "0D856A57-F1E8-4B9B-A293-C2F37DF93F32";
shapes = (
{
closed = 1;
nodes = (
(7,0,l),
(47,0,l),
(113,335,l),
(554,335,l),
(487,0,l),
(526,0,l),
(665,699,l),
(626,699,l),
(560,370,l),
(120,370,l),
(186,699,l),
(147,699,l)
);
},
{
closed = 1;
nodes = (
(372,789,l),
(409,789,l),
(341,900,l),
(285,900,l)
);
}
);
width = 652;
},
{
layerId = "4DCA89B8-DFE6-4DD8-9DE5-D8A3D5DAECAB";
shapes = (
{
closed = 1;
nodes = (
(4,0,l),
(76,0,l),
(140,321,l),
(531,321,l),
(467,0,l),
(540,0,l),
(680,700,l),
(607,700,l),
(545,387,l),
(154,387,l),
(216,700,l),
(144,700,l)
);
},
{
closed = 1;
nodes = (
(387,778,l),
(445,778,l),
(383,898,l),
(292,898,l)
);
}
);
width = 663;
},
{
layerId = "5704134F-6EB5-4790-9409-A43A14941BD5";
shapes = (
{
closed = 1;
nodes = (
(-7,0,l),
(167,0,l),
(225,288,l),
(466,288,l),
(408,0,l),
(584,0,l),
(724,703,l),
(549,703,l),
(493,423,l),
(252,423,l),
(308,703,l),
(133,703,l)
);
},
{
closed = 1;
nodes = (
(431,746,l),
(556,746,l),
(510,893,l),
(312,893,l)
);
}
);
width = 697;
}
);
unicode = 8138;
},
{
glyphname = Etaiotasub;
layers = (
{
layerId = "0D856A57-F1E8-4B9B-A293-C2F37DF93F32";
shapes = (
{
closed = 1;
nodes = (
(7,0,l),
(47,0,l),
(113,335,l),
(554,335,l),
(487,0,l),
(526,0,l),
(665,699,l),
(626,699,l),
(560,370,l),
(120,370,l),
(186,699,l),
(147,699,l)
);
},
{
closed = 1;
nodes = (
(677,118,ls),
(665,56,o),
(676,-10,o),
(765,-10,cs),
(782,-10,o),
(798,-9,o),
(824,-4,c),
(831,33,l),
(810,29,o),
(789,27,o),
(772,27,cs),
(704,27,o),
(707,77,o),
(716,123,cs),
(790,493,l),
(752,493,l)
);
}
);
width = 911;
},
{
layerId = "4DCA89B8-DFE6-4DD8-9DE5-D8A3D5DAECAB";
shapes = (
{
closed = 1;
nodes = (
(4,0,l),
(76,0,l),
(140,321,l),
(531,321,l),
(467,0,l),
(540,0,l),
(680,700,l),
(607,700,l),
(545,387,l),
(154,387,l),
(216,700,l),
(144,700,l)
);
},
{
closed = 1;
nodes = (
(687,132,ls),
(673,60,o),
(694,-10,o),
(793,-10,cs),
(813,-10,o),
(834,-8,o),
(859,-3,c),
(871,60,l),
(846,54,o),
(827,52,o),
(811,52,cs),
(751,52,o),
(748,93,o),
(757,136,cs),
(830,500,l),
(760,500,l)
);
}
);
width = 946;
},
{
layerId = "5704134F-6EB5-4790-9409-A43A14941BD5";
shapes = (
{
closed = 1;
nodes = (
(-7,0,l),
(167,0,l),
(225,288,l),
(466,288,l),
(408,0,l),
(584,0,l),
(724,703,l),
(549,703,l),
(493,423,l),
(252,423,l),
(308,703,l),
(133,703,l)
);
},
{
closed = 1;
nodes = (
(719,176,ls),
(699,74,o),
(750,-10,o),
(879,-10,cs),
(906,-10,o),
(944,-6,o),
(966,-1,c),
(991,126,l),
(956,119,o),
(943,117,o),
(929,117,cs),
(892,117,o),
(876,139,o),
(884,177,cs),
(953,523,l),
(788,523,l)
);
}
);
width = 1051;
}
);
unicode = 8140;
},
{
glyphname = Etatonos;
layers = (
{
layerId = "0D856A57-F1E8-4B9B-A293-C2F37DF93F32";
shapes = (
{
closed = 1;
nodes = (
(7,0,l),
(47,0,l),
(113,335,l),
(554,335,l),
(487,0,l),
(526,0,l),
(665,699,l),
(626,699,l),
(560,370,l),
(120,370,l),
(186,699,l),
(147,699,l)
);
},
{
closed = 1;
nodes = (
(508,905,l),
(396,794,l),
(433,794,l),
(564,905,l)
);
}
);
width = 652;
},
{
layerId = "4DCA89B8-DFE6-4DD8-9DE5-D8A3D5DAECAB";
shapes = (
{
closed = 1;
nodes = (
(4,0,l),
(76,0,l),
(140,321,l),
(531,321,l),
(467,0,l),
(540,0,l),
(680,700,l),
(607,700,l),
(545,387,l),
(154,387,l),
(216,700,l),
(144,700,l)
);
},
{
closed = 1;
nodes = (
(503,895,l),
(393,775,l),
(452,775,l),
(594,895,l)
);
}
);
width = 663;
},
{
layerId = "5704134F-6EB5-4790-9409-A43A14941BD5";
shapes = (
{
closed = 1;
nodes = (
(-7,0,l),
(167,0,l),
(225,288,l),
(466,288,l),
(408,0,l),
(584,0,l),
(724,703,l),
(549,703,l),
(493,423,l),
(252,423,l),
(308,703,l),
(133,703,l)
);
},
{
closed = 1;
nodes = (
(490,865,l),
(384,718,l),
(511,718,l),
(688,865,l)
);
}
);
width = 697;
}
);
unicode = 905;
},
{
glyphname = Eth;
layers = (
{
layerId = "0D856A57-F1E8-4B9B-A293-C2F37DF93F32";
shapes = (
{
closed = 1;
nodes = (
(70,0,l),
(308,0,ls),
(524,0,o),
(657,173,o),
(692,350,cs),
(727,526,o),
(664,699,o),
(448,699,cs),
(210,699,l),
(144,368,l),
(53,368,l),
(45,332,l),
(137,332,l)
);
},
{
closed = 1;
nodes = (
(242,664,l),
(435,664,ls),
(628,664,o),
(682,502,o),
(652,350,cs),
(621,197,o),
(503,35,o),
(310,35,cs),
(116,35,l),
(176,332,l),
(395,332,l),
(403,368,l),
(183,368,l)
);
}
);
width = 721;
},
{
layerId = "4DCA89B8-DFE6-4DD8-9DE5-D8A3D5DAECAB";
shapes = (
{
closed = 1;
nodes = (
(65,0,l),
(313,0,ls),
(533,0,o),
(668,175,o),
(703,350,cs),
(738,525,o),
(672,700,o),
(452,700,cs),
(204,700,l),
(141,380,l),
(52,380,l),
(41,321,l),
(129,321,l)
);
},
{
closed = 1;
nodes = (
(264,633,l),
(433,633,ls),
(607,633,o),
(656,492,o),
(628,350,cs),
(600,208,o),
(494,67,o),
(320,67,cs),
(151,67,l),
(201,321,l),
(414,321,l),
(426,380,l),
(213,380,l)
);
}
);
width = 729;
},
{
layerId = "5704134F-6EB5-4790-9409-A43A14941BD5";
shapes = (
{
closed = 1;
nodes = (
(48,0,l),
(325,0,ls),
(562,0,o),
(704,181,o),
(738,351,cs),
(772,522,o),
(702,703,o),
(465,703,cs),
(188,703,l),
(131,416,l),
(51,416,l),
(26,288,l),
(105,288,l)
);
},
{
closed = 1;
nodes = (
(336,568,l),
(433,568,ls),
(553,568,o),
(585,474,o),
(560,351,cs),
(536,231,o),
(466,137,o),
(346,137,cs),
(249,137,l),
(280,288,l),
(472,288,l),
(497,416,l),
(305,416,l)
);
}
);
width = 756;
}
);
unicode = 208;
},
{
glyphname = Etilde;
layers = (
{
layerId = "0D856A57-F1E8-4B9B-A293-C2F37DF93F32";
shapes = (
{
closed = 1;
nodes = (
(7,0,l),
(422,0,l),
(429,35,l),
(54,35,l),
(114,340,l),
(459,340,l),
(466,375,l),
(121,375,l),
(179,664,l),
(555,664,l),
(562,699,l),
(147,699,l)
);
},
{
closed = 1;
nodes = (
(224,811,l),
(256,849,o),
(275,860,o),
(300,860,cs),
(357,860,o),
(373,808,o),
(428,808,cs),
(464,808,o),
(488,825,o),
(535,880,c),
(511,900,l),
(472,858,o),
(457,851,o),
(436,851,cs),
(380,851,o),
(364,903,o),
(308,903,cs),
(272,903,o),
(248,887,o),
(200,830,c)
);
}
);
width = 521;
},
{
layerId = "4DCA89B8-DFE6-4DD8-9DE5-D8A3D5DAECAB";
shapes = (
{
closed = 1;
nodes = (
(4,0,l),
(440,0,l),
(453,66,l),
(89,66,l),
(140,321,l),
(475,321,l),
(488,387,l),
(154,387,l),
(203,634,l),
(566,634,l),
(580,700,l),
(144,700,l)
);
},
{
closed = 1;
nodes = (
(233,793,l),
(265,828,o),
(283,839,o),
(306,839,cs),
(360,839,o),
(375,793,o),
(435,793,cs),
(474,793,o),
(504,814,o),
(555,875,c),
(519,903,l),
(481,861,o),
(469,857,o),
(447,857,cs),
(393,857,o),
(377,903,o),
(318,903,cs),
(279,903,o),
(250,883,o),
(198,821,c)
);
}
);
width = 536;
},
{
layerId = "5704134F-6EB5-4790-9409-A43A14941BD5";
shapes = (
{
closed = 1;
nodes = (
(-7,0,l),
(495,0,l),
(522,136,l),
(194,136,l),
(225,288,l),
(526,288,l),
(553,423,l),
(252,423,l),
(281,569,l),
(608,569,l),
(635,703,l),
(133,703,l)
);
},
{
closed = 1;
nodes = (
(261,740,l),
(296,780,o),
(316,795,o),
(330,795,cs),
(373,795,o),
(385,749,o),
(459,749,cs),
(507,749,o),
(552,781,o),
(616,860,c),
(549,914,l),
(529,878,o),
(505,859,o),
(481,859,cs),
(433,859,o),
(419,905,o),
(352,905,cs),
(304,905,o),
(259,872,o),
(196,794,c)
);
}
);
width = 581;
}
);
unicode = 7868;
},
{
glyphname = Eukrcyr;
layers = (
{
layerId = "0D856A57-F1E8-4B9B-A293-C2F37DF93F32";
shapes = (
{
closed = 1;
nodes = (
(26,138,o),
(126,-11,o),
(308,-11,cs),
(463,-11,o),
(576,73,o),
(635,213,c),
(597,228,l),
(550,100,o),
(452,28,o),
(315,28,cs),
(159,28,o),
(75,155,o),
(106,336,c),
(456,336,l),
(463,371,l),
(114,371,l),
(157,546,o),
(289,668,o),
(443,668,cs),
(568,668,o),
(641,607,o),
(651,495,c),
(693,511,l),
(679,635,o),
(597,707,o),
(451,707,cs),
(269,707,o),
(110,560,o),
(68,349,cs)
);
}
);
width = 690;
},
{
layerId = "4DCA89B8-DFE6-4DD8-9DE5-D8A3D5DAECAB";
shapes = (
{
closed = 1;
nodes = (
(22,138,o),
(125,-10,o),
(312,-10,cs),
(464,-10,o),
(587,77,o),
(646,215,c),
(582,240,l),
(540,127,o),
(446,59,o),
(326,59,cs),
(190,59,o),
(114,166,o),
(134,321,c),
(455,321,l),
(468,387,l),
(148,387,l),
(192,537,o),
(309,639,o),
(442,639,cs),
(554,639,o),
(622,579,o),
(629,478,c),
(704,503,l),
(690,629,o),
(600,708,o),
(456,708,cs),
(269,708,o),
(106,560,o),
(64,349,cs)
);
}
);
width = 699;
},
{
layerId = "5704134F-6EB5-4790-9409-A43A14941BD5";
shapes = (
{
closed = 1;
nodes = (
(13,139,o),
(124,-8,o),
(325,-8,cs),
(469,-8,o),
(624,89,o),
(682,221,c),
(535,276,l),
(503,194,o),
(420,129,o),
(352,129,cs),
(272,129,o),
(223,192,o),
(225,288,c),
(453,288,l),
(480,423,l),
(254,423,l),
(293,514,o),
(364,572,o),
(441,572,cs),
(512,572,o),
(568,509,o),
(565,428,c),
(735,480,l),
(722,612,o),
(607,711,o),
(469,711,cs),
(268,711,o),
(97,561,o),
(55,350,cs)
);
}
);
width = 729;
}
);
unicode = 1028;
},
{
glyphname = Euro;
layers = (
{
layerId = "0D856A57-F1E8-4B9B-A293-C2F37DF93F32";
shapes = (
{
closed = 1;
nodes = (
(26,233,l),
(120,233,l),
(129,85,o),
(221,-11,o),
(368,-11,cs),
(523,-11,o),
(636,73,o),
(695,213,c),
(658,228,l),
(611,101,o),
(513,29,o),
(376,29,cs),
(252,29,o),
(172,109,o),
(161,233,c),
(454,233,l),
(461,269,l),
(159,269,l),
(160,294,o),
(162,321,o),
(168,349,cs),
(173,373,o),
(180,397,o),
(188,419,c),
(491,419,l),
(498,455,l),
(202,455,l),
(262,584,o),
(377,668,o),
(504,668,cs),
(629,668,o),
(701,606,o),
(711,495,c),
(754,511,l),
(740,635,o),
(657,707,o),
(511,707,cs),
(361,707,o),
(228,608,o),
(161,455,c),
(70,455,l),
(63,419,l),
(147,419,l),
(140,397,o),
(133,373,o),
(128,349,cs),
(122,321,o),
(119,294,o),
(119,269,c),
(33,269,l)
);
}
);
width = 751;
},
{
layerId = "4DCA89B8-DFE6-4DD8-9DE5-D8A3D5DAECAB";
shapes = (
{
closed = 1;
nodes = (
(21,225,l),
(116,225,l),
(129,82,o),
(224,-10,o),
(372,-10,cs),
(524,-10,o),
(647,77,o),
(706,215,c),
(642,240,l),
(600,127,o),
(506,59,o),
(386,59,cs),
(280,59,o),
(211,124,o),
(195,225,c),
(456,225,l),
(468,284,l),
(191,284,l),
(192,305,o),
(194,326,o),
(199,349,cs),
(203,368,o),
(207,387,o),
(214,405,c),
(492,405,l),
(504,464,l),
(240,464,l),
(296,571,o),
(393,639,o),
(502,639,cs),
(614,639,o),
(682,579,o),
(689,478,c),
(764,503,l),
(750,629,o),
(660,708,o),
(516,708,cs),
(365,708,o),
(230,612,o),
(162,464,c),
(69,464,l),
(57,405,l),
(139,405,l),
(133,387,o),
(129,368,o),
(125,349,c),
(121,327,o),
(117,305,o),
(116,284,c),
(33,284,l)
);
}
);
width = 759;
},
{
layerId = "5704134F-6EB5-4790-9409-A43A14941BD5";
shapes = (
{
closed = 1;
nodes = (
(10,204,l),
(112,204,l),
(136,74,o),
(236,-8,o),
(385,-8,cs),
(540,-8,o),
(684,81,o),
(739,201,c),
(592,256,l),
(563,191,o),
(492,139,o),
(416,139,cs),
(365,139,o),
(327,163,o),
(306,204,c),
(472,204,l),
(495,316,l),
(288,316,l),
(289,327,o),
(291,338,o),
(293,350,c),
(295,360,o),
(297,369,o),
(300,379,c),
(507,379,l),
(530,491,l),
(359,491,l),
(397,536,o),
(449,562,o),
(504,562,cs),
(580,562,o),
(630,512,o),
(630,448,c),
(800,500,l),
(785,621,o),
(678,711,o),
(526,711,cs),
(377,711,o),
(242,625,o),
(167,491,c),
(67,491,l),
(45,379,l),
(122,379,l),
(119,369,o),
(117,360,o),
(115,350,cs),
(113,339,o),
(111,327,o),
(110,316,c),
(32,316,l)
);
}
);
width = 784;
}
);
unicode = 8364;
},
{
glyphname = Ezh;
layers = (
{
layerId = "0D856A57-F1E8-4B9B-A293-C2F37DF93F32";
shapes = (
{
closed = 1;
nodes = (
(385,376,o),
(472,324,o),
(447,198,cs),
(431,117,o),
(359,26,o),
(244,26,cs),
(139,26,o),
(71,86,o),
(62,178,c),
(21,165,l),
(35,53,o),
(117,-12,o),
(239,-12,cs),
(378,-12,o),
(466,93,o),
(487,197,cs),
(517,348,o),
(404,424,o),
(265,406,c),
(560,665,l),
(567,699,l),
(172,699,l),
(165,666,l),
(514,666,l),
(182,375,l),
(195,354,l),
(225,369,o),
(262,376,o),
(300,376,cs)
);
}
);
width = 564;
},
{
layerId = "4DCA89B8-DFE6-4DD8-9DE5-D8A3D5DAECAB";
shapes = (
{
closed = 1;
nodes = (
(379,357,o),
(453,310,o),
(432,206,cs),
(417,132,o),
(352,59,o),
(252,59,cs),
(157,59,o),
(96,115,o),
(90,202,c),
(15,177,l),
(26,63,o),
(110,-10,o),
(240,-10,cs),
(389,-10,o),
(485,96,o),
(506,203,cs),
(528,312,o),
(472,423,o),
(317,423,c),
(571,634,l),
(584,700,l),
(165,700,l),
(152,634,l),
(476,634,l),
(174,382,l),
(195,334,l),
(226,349,o),
(262,357,o),
(296,357,cs)
);
}
);
width = 570;
},
{
layerId = "5704134F-6EB5-4790-9409-A43A14941BD5";
shapes = (
{
closed = 1;
nodes = (
(370,328,o),
(398,286,o),
(387,232,cs),
(374,165,o),
(326,138,o),
(269,138,cs),
(204,138,o),
(164,181,o),
(159,251,c),
(-6,195,l),
(-3,86,o),
(87,-4,o),
(243,-4,cs),
(421,-4,o),
(540,106,o),
(563,221,cs),
(582,316,o),
(532,411,o),
(413,446,c),
(617,593,l),
(639,703,l),
(145,703,l),
(118,567,l),
(368,567,l),
(151,400,l),
(200,302,l),
(233,317,o),
(270,328,o),
(292,328,cs)
);
}
);
width = 590;
}
);
unicode = 439;
},
{
glyphname = Ezhcaron;
layers = (
{
layerId = "0D856A57-F1E8-4B9B-A293-C2F37DF93F32";
shapes = (
{
closed = 1;
nodes = (
(385,376,o),
(472,324,o),
(447,198,cs),
(431,117,o),
(359,26,o),
(244,26,cs),
(139,26,o),
(71,86,o),
(62,178,c),
(21,165,l),
(35,53,o),
(117,-12,o),
(239,-12,cs),
(378,-12,o),
(466,93,o),
(487,197,cs),
(517,348,o),
(404,424,o),
(265,406,c),
(560,665,l),
(567,699,l),
(172,699,l),
(165,666,l),
(514,666,l),
(182,375,l),
(195,354,l),
(225,369,o),
(262,376,o),
(300,376,cs)
);
},
{
closed = 1;
nodes = (
(513,908,l),
(474,908,l),
(374,836,l),
(301,908,l),
(263,908,l),
(346,799,l),
(386,799,l)
);
}
);
width = 564;
},
{
layerId = "4DCA89B8-DFE6-4DD8-9DE5-D8A3D5DAECAB";
shapes = (
{
closed = 1;
nodes = (
(379,357,o),
(453,310,o),
(432,206,cs),
(417,132,o),
(352,59,o),
(252,59,cs),
(157,59,o),
(96,115,o),
(90,202,c),
(15,177,l),
(26,63,o),
(110,-10,o),
(240,-10,cs),
(389,-10,o),
(485,96,o),
(506,203,cs),
(528,312,o),
(472,423,o),
(317,423,c),
(571,634,l),
(584,700,l),
(165,700,l),
(152,634,l),
(476,634,l),
(174,382,l),
(195,334,l),
(226,349,o),
(262,357,o),
(296,357,cs)
);
},
{
closed = 1;
nodes = (
(549,908,l),
(485,908,l),
(394,843,l),
(329,908,l),
(265,908,l),
(356,788,l),
(410,788,l)
);
}
);
width = 570;
},
{
layerId = "5704134F-6EB5-4790-9409-A43A14941BD5";
shapes = (
{
closed = 1;
nodes = (
(370,328,o),
(398,286,o),
(387,232,cs),
(374,165,o),
(326,138,o),
(269,138,cs),
(204,138,o),
(164,181,o),
(159,251,c),
(-6,195,l),
(-3,86,o),
(87,-4,o),
(243,-4,cs),
(421,-4,o),
(540,106,o),
(563,221,cs),
(582,316,o),
(532,411,o),
(413,446,c),
(617,593,l),
(639,703,l),
(145,703,l),
(118,567,l),
(368,567,l),
(151,400,l),
(200,302,l),
(233,317,o),
(270,328,o),
(292,328,cs)
);
},
{
closed = 1;
nodes = (
(658,909,l),
(517,909,l),
(459,866,l),
(415,909,l),
(273,909,l),
(388,756,l),
(483,756,l)
);
}
);
width = 590;
}
);
unicode = 494;
},
{
glyphname = F;
layers = (
{
layerId = "0D856A57-F1E8-4B9B-A293-C2F37DF93F32";
shapes = (
{
closed = 1;
nodes = (
(7,0,l),
(47,0,l),
(114,340,l),
(469,340,l),
(476,375,l),
(121,375,l),
(179,664,l),
(555,664,l),
(562,699,l),
(147,699,l)
);
}
);
width = 521;
},
{
layerId = "4DCA89B8-DFE6-4DD8-9DE5-D8A3D5DAECAB";
shapes = (
{
closed = 1;
nodes = (
(4,0,l),
(76,0,l),
(140,321,l),
(484,321,l),
(498,387,l),
(154,387,l),
(203,634,l),
(566,634,l),
(580,700,l),
(144,700,l)
);
}
);
width = 536;
},
{
layerId = "5704134F-6EB5-4790-9409-A43A14941BD5";
shapes = (
{
closed = 1;
nodes = (
(-7,0,l),
(167,0,l),
(225,288,l),
(535,288,l),
(562,423,l),
(252,423,l),
(281,569,l),
(608,569,l),
(635,703,l),
(133,703,l)
);
}
);
width = 581;
}
);
unicode = 70;
},
{
glyphname = Fhook;
layers = (
{
layerId = "0D856A57-F1E8-4B9B-A293-C2F37DF93F32";
shapes = (
{
closed = 1;
nodes = (
(99,-28,ls),
(81,-119,o),
(22,-176,o),
(-51,-176,cs),
(-65,-176,o),
(-79,-174,o),
(-93,-170,c),
(-94,-203,l),
(-77,-207,o),
(-61,-209,o),
(-45,-209,cs),
(51,-209,o),
(116,-138,o),
(137,-32,cs),
(212,340,l),
(566,340,l),
(573,375,l),
(219,375,l),
(276,664,l),
(652,664,l),
(659,699,l),
(244,699,l)
);
}
);
width = 618;
},
{
layerId = "4DCA89B8-DFE6-4DD8-9DE5-D8A3D5DAECAB";
shapes = (
{
closed = 1;
nodes = (
(106,-12,ls),
(90,-90,o),
(43,-141,o),
(-31,-141,cs),
(-48,-141,o),
(-67,-139,o),
(-86,-133,c),
(-87,-200,l),
(-66,-204,o),
(-47,-206,o),
(-28,-206,cs),
(82,-206,o),
(155,-133,o),
(177,-21,cs),
(245,321,l),
(589,321,l),
(602,387,l),
(258,387,l),
(308,634,l),
(671,634,l),
(684,700,l),
(248,700,l)
);
}
);
width = 640;
},
{
layerId = "5704134F-6EB5-4790-9409-A43A14941BD5";
shapes = (
{
closed = 1;
nodes = (
(127,36,ls),
(119,-4,o),
(103,-39,o),
(37,-39,cs),
(12,-39,o),
(-21,-34,o),
(-63,-22,c),
(-68,-192,l),
(-37,-197,o),
(-7,-200,o),
(21,-200,cs),
(172,-200,o),
(266,-124,o),
(295,0,c),
(352,288,l),
(663,288,l),
(690,423,l),
(379,423,l),
(408,569,l),
(736,569,l),
(762,703,l),
(261,703,l)
);
}
);
width = 710;
}
);
unicode = 401;
},
{
glyphname = Fitacyr;
layers = (
{
layerId = "0D856A57-F1E8-4B9B-A293-C2F37DF93F32";
shapes = (
{
closed = 1;
nodes = (
(491,-8,o),
(650,140,o),
(692,350,cs),
(734,559,o),
(634,707,o),
(451,707,cs),
(269,707,o),
(110,559,o),
(68,350,cs),
(26,140,o),
(126,-8,o),
(308,-8,cs)
);
},
{
closed = 1;
nodes = (
(156,28,o),
(71,153,o),
(107,344,c),
(149,369,o),
(188,379,o),
(225,379,cs),
(334,379,o),
(427,296,o),
(536,296,cs),
(570,296,o),
(607,305,o),
(646,327,c),
(602,145,o),
(469,28,o),
(315,28,cs)
);
},
{
closed = 1;
nodes = (
(602,671,o),
(687,545,o),
(652,356,c),
(611,331,o),
(573,322,o),
(536,322,cs),
(427,322,o),
(335,405,o),
(226,405,cs),
(191,405,o),
(154,396,o),
(114,373,c),
(159,553,o),
(291,671,o),
(444,671,cs)
);
}
);
width = 739;
},
{
layerId = "4DCA89B8-DFE6-4DD8-9DE5-D8A3D5DAECAB";
shapes = (
{
closed = 1;
nodes = (
(499,-8,o),
(661,140,o),
(703,350,cs),
(745,560,o),
(643,708,o),
(456,708,cs),
(269,708,o),
(107,560,o),
(65,350,cs),
(23,140,o),
(125,-8,o),
(312,-8,cs)
);
},
{
closed = 1;
nodes = (
(187,61,o),
(109,168,o),
(135,331,c),
(172,355,o),
(208,364,o),
(240,364,cs),
(339,364,o),
(422,281,o),
(521,281,cs),
(551,281,o),
(584,289,o),
(619,310,c),
(575,159,o),
(459,61,o),
(326,61,cs)
);
},
{
closed = 1;
nodes = (
(580,639,o),
(657,531,o),
(632,370,c),
(595,346,o),
(561,338,o),
(529,338,cs),
(430,338,o),
(347,420,o),
(248,420,cs),
(218,420,o),
(185,411,o),
(149,390,c),
(194,540,o),
(310,639,o),
(442,639,cs)
);
}
);
width = 748;
},
{
layerId = "5704134F-6EB5-4790-9409-A43A14941BD5";
shapes = (
{
closed = 1;
nodes = (
(526,-8,o),
(697,140,o),
(739,351,cs),
(781,563,o),
(670,711,o),
(469,711,cs),
(268,711,o),
(97,563,o),
(55,351,cs),
(13,140,o),
(124,-8,o),
(325,-8,cs)
);
},
{
closed = 1;
nodes = (
(272,131,o),
(223,198,o),
(226,297,c),
(249,313,o),
(269,320,o),
(289,320,cs),
(358,320,o),
(410,237,o),
(479,237,cs),
(494,237,o),
(510,241,o),
(526,250,c),
(486,177,o),
(423,131,o),
(354,131,cs)
);
},
{
closed = 1;
nodes = (
(523,572,o),
(571,506,o),
(568,407,c),
(546,391,o),
(525,384,o),
(506,384,cs),
(437,384,o),
(385,467,o),
(316,467,cs),
(302,467,o),
(287,463,o),
(272,455,c),
(312,527,o),
(374,572,o),
(442,572,cs)
);
}
);
width = 773;
}
);
unicode = 1138;
},
{
glyphname = G;
layers = (
{
layerId = "0D856A57-F1E8-4B9B-A293-C2F37DF93F32";
shapes = (
{
closed = 1;
nodes = (
(26,138,o),
(130,-10,o),
(306,-10,cs),
(424,-10,o),
(518,40,o),
(585,138,c),
(558,0,l),
(594,0,l),
(663,344,l),
(384,344,l),
(378,309,l),
(618,309,l),
(611,274,ls),
(579,114,o),
(446,25,o),
(319,25,cs),
(157,25,o),
(70,161,o),
(108,349,cs),
(144,531,o),
(285,669,o),
(444,669,cs),
(570,669,o),
(643,605,o),
(652,489,c),
(695,505,l),
(680,632,o),
(598,707,o),
(451,707,cs),
(269,707,o),
(110,560,o),
(68,349,cs)
);
}
);
width = 712;
},
{
layerId = "4DCA89B8-DFE6-4DD8-9DE5-D8A3D5DAECAB";
shapes = (
{
closed = 1;
nodes = (
(22,138,o),
(125,-10,o),
(303,-10,cs),
(406,-10,o),
(492,32,o),
(554,103,c),
(553,0,l),
(606,0,l),
(677,357,l),
(382,357,l),
(369,291,l),
(592,291,l),
(588,270,ls),
(561,136,o),
(445,57,o),
(325,57,cs),
(181,57,o),
(105,179,o),
(139,349,cs),
(173,519,o),
(298,639,o),
(442,639,cs),
(554,639,o),
(622,579,o),
(629,478,c),
(704,503,l),
(690,629,o),
(600,708,o),
(456,708,cs),
(269,708,o),
(106,560,o),
(64,349,cs)
);
}
);
width = 720;
},
{
layerId = "5704134F-6EB5-4790-9409-A43A14941BD5";
shapes = (
{
closed = 1;
nodes = (
(13,139,o),
(111,-10,o),
(296,-10,cs),
(390,-10,o),
(461,35,o),
(504,79,c),
(491,0,l),
(644,0,l),
(723,396,l),
(377,396,l),
(350,261,l),
(520,261,l),
(519,256,ls),
(506,190,o),
(438,137,o),
(343,137,cs),
(253,137,o),
(207,224,o),
(232,350,cs),
(260,489,o),
(340,562,o),
(439,562,cs),
(518,562,o),
(569,520,o),
(565,466,c),
(736,518,l),
(724,629,o),
(616,711,o),
(469,711,cs),
(268,711,o),
(97,560,o),
(55,350,cs)
);
}
);
width = 747;
}
);
unicode = 71;
},
{
glyphname = Gamma;
layers = (
{
layerId = "0D856A57-F1E8-4B9B-A293-C2F37DF93F32";
shapes = (
{
closed = 1;
nodes = (
(7,0,l),
(47,0,l),
(179,664,l),
(555,664,l),
(562,699,l),
(147,699,l)
);
}
);
width = 521;
},
{
layerId = "4DCA89B8-DFE6-4DD8-9DE5-D8A3D5DAECAB";
shapes = (
{
closed = 1;
nodes = (
(4,0,l),
(76,0,l),
(203,634,l),
(566,634,l),
(580,700,l),
(144,700,l)
);
}
);
width = 536;
},
{
layerId = "5704134F-6EB5-4790-9409-A43A14941BD5";
shapes = (
{
closed = 1;
nodes = (
(-7,0,l),
(167,0,l),
(281,569,l),
(608,569,l),
(635,703,l),
(133,703,l)
);
}
);
width = 581;
}
);
unicode = 915;
},
{
glyphname = "Gamma-lt";
layers = (
{
layerId = "0D856A57-F1E8-4B9B-A293-C2F37DF93F32";
shapes = (
{
closed = 1;
nodes = (
(261,286,l),
(176,181,o),
(153,133,o),
(144,90,cs),
(132,32,o),
(169,-10,o),
(226,-10,cs),
(283,-10,o),
(336,32,o),
(348,90,cs),
(357,133,o),
(353,181,o),
(310,286,c),
(632,700,l),
(581,700,l),
(294,328,l),
(155,700,l),
(105,700,l)
);
},
{
closed = 1;
nodes = (
(206,35,o),
(189,60,o),
(195,90,cs),
(201,120,o),
(219,153,o),
(273,223,c),
(300,153,o),
(303,120,o),
(297,90,cs),
(291,60,o),
(264,35,o),
(235,35,cs)
);
}
);
width = 576;
},
{
layerId = "4DCA89B8-DFE6-4DD8-9DE5-D8A3D5DAECAB";
shapes = (
{
closed = 1;
nodes = (
(256,287,l),
(174,187,o),
(152,141,o),
(144,100,cs),
(132,38,o),
(171,-10,o),
(236,-10,cs),
(301,-10,o),
(361,38,o),
(373,100,cs),
(381,141,o),
(378,187,o),
(336,287,c),
(657,700,l),
(574,700,l),
(310,357,l),
(182,700,l),
(100,700,l)
);
},
{
closed = 1;
nodes = (
(225,55,o),
(212,77,o),
(217,104,cs),
(222,131,o),
(237,160,o),
(282,217,c),
(304,160,o),
(306,131,o),
(301,104,cs),
(296,77,o),
(273,55,o),
(249,55,cs)
);
}
);
width = 596;
},
{
layerId = "5704134F-6EB5-4790-9409-A43A14941BD5";
shapes = (
{
closed = 1;
nodes = (
(240,291,l),
(167,207,o),
(149,167,o),
(142,130,cs),
(127,56,o),
(179,-10,o),
(267,-10,cs),
(356,-10,o),
(434,56,o),
(449,130,cs),
(456,167,o),
(454,207,o),
(415,291,c),
(733,700,l),
(555,700,l),
(358,445,l),
(264,700,l),
(84,700,l)
);
},
{
closed = 1;
nodes = (
(286,116,o),
(280,129,o),
(284,148,cs),
(287,164,o),
(294,181,o),
(309,200,c),
(316,181,o),
(317,164,o),
(314,148,cs),
(310,129,o),
(298,116,o),
(292,116,cs)
);
}
);
width = 658;
}
);
unicode = 404;
},
{
glyphname = Gbreve;
layers = (
{
layerId = "0D856A57-F1E8-4B9B-A293-C2F37DF93F32";
shapes = (
{
closed = 1;
nodes = (
(26,138,o),
(130,-10,o),
(306,-10,cs),
(424,-10,o),
(518,40,o),
(585,138,c),
(558,0,l),
(594,0,l),
(663,344,l),
(384,344,l),
(378,309,l),
(618,309,l),
(611,274,ls),
(579,114,o),
(446,25,o),
(319,25,cs),
(157,25,o),
(70,161,o),
(108,349,cs),
(144,531,o),
(285,669,o),
(444,669,cs),
(570,669,o),
(643,605,o),
(652,489,c),
(695,505,l),
(680,632,o),
(598,707,o),
(451,707,cs),
(269,707,o),
(110,560,o),
(68,349,cs)
);
},
{
closed = 1;
nodes = (
(511,810,o),
(571,857,o),
(583,919,c),
(555,919,l),
(549,880,o),
(503,847,o),
(461,847,cs),
(417,847,o),
(384,880,o),
(393,919,c),
(366,919,l),
(354,857,o),
(394,810,o),
(453,810,cs)
);
}
);
width = 712;
},
{
layerId = "4DCA89B8-DFE6-4DD8-9DE5-D8A3D5DAECAB";
shapes = (
{
closed = 1;
nodes = (
(22,138,o),
(125,-10,o),
(303,-10,cs),
(406,-10,o),
(492,32,o),
(554,103,c),
(553,0,l),
(606,0,l),
(677,357,l),
(382,357,l),
(369,291,l),
(592,291,l),
(588,270,ls),
(561,136,o),
(445,57,o),
(325,57,cs),
(181,57,o),
(105,179,o),
(139,349,cs),
(173,519,o),
(298,639,o),
(442,639,cs),
(554,639,o),
(622,579,o),
(629,478,c),
(704,503,l),
(690,629,o),
(600,708,o),
(456,708,cs),
(269,708,o),
(106,560,o),
(64,349,cs)
);
},
{
closed = 1;
nodes = (
(526,788,o),
(590,841,o),
(603,908,c),
(553,908,l),
(546,872,o),
(508,842,o),
(469,842,cs),
(429,842,o),
(402,872,o),
(409,908,c),
(359,908,l),
(346,841,o),
(389,788,o),
(458,788,cs)
);
}
);
width = 720;
},
{
layerId = "5704134F-6EB5-4790-9409-A43A14941BD5";
shapes = (
{
closed = 1;
nodes = (
(13,139,o),
(111,-10,o),
(296,-10,cs),
(390,-10,o),
(461,35,o),
(504,79,c),
(491,0,l),
(644,0,l),
(723,396,l),
(377,396,l),
(350,261,l),
(520,261,l),
(519,256,ls),
(506,190,o),
(438,137,o),
(343,137,cs),
(253,137,o),
(207,224,o),
(232,350,cs),
(260,489,o),
(340,562,o),
(439,562,cs),
(518,562,o),
(569,520,o),
(565,466,c),
(736,518,l),
(724,629,o),
(616,711,o),
(469,711,cs),
(268,711,o),
(97,560,o),
(55,350,cs)
);
},
{
closed = 1;
nodes = (
(572,722,o),
(652,794,o),
(668,875,c),
(548,875,l),
(538,848,o),
(524,827,o),
(496,827,cs),
(468,827,o),
(460,848,o),
(461,875,c),
(341,875,l),
(325,794,o),
(376,722,o),
(475,722,cs)
);
}
);
width = 747;
}
);
unicode = 286;
},
{
glyphname = Gcaron;
layers = (
{
layerId = "0D856A57-F1E8-4B9B-A293-C2F37DF93F32";
shapes = (
{
closed = 1;
nodes = (
(26,138,o),
(130,-10,o),
(306,-10,cs),
(424,-10,o),
(518,40,o),
(585,138,c),
(558,0,l),
(594,0,l),
(663,344,l),
(384,344,l),
(378,309,l),
(618,309,l),
(611,274,ls),
(579,114,o),
(446,25,o),
(319,25,cs),
(157,25,o),
(70,161,o),
(108,349,cs),
(144,531,o),
(285,669,o),
(444,669,cs),
(570,669,o),
(643,605,o),
(652,489,c),
(695,505,l),
(680,632,o),
(598,707,o),
(451,707,cs),
(269,707,o),
(110,560,o),
(68,349,cs)
);
},
{
closed = 1;
nodes = (
(588,919,l),
(549,919,l),
(449,847,l),
(376,919,l),
(338,919,l),
(421,810,l),
(461,810,l)
);
}
);
width = 712;
},
{
layerId = "4DCA89B8-DFE6-4DD8-9DE5-D8A3D5DAECAB";
shapes = (
{
closed = 1;
nodes = (
(22,138,o),
(125,-10,o),
(303,-10,cs),
(406,-10,o),
(492,32,o),
(554,103,c),
(553,0,l),
(606,0,l),
(677,357,l),
(382,357,l),
(369,291,l),
(592,291,l),
(588,270,ls),
(561,136,o),
(445,57,o),
(325,57,cs),
(181,57,o),
(105,179,o),
(139,349,cs),
(173,519,o),
(298,639,o),
(442,639,cs),
(554,639,o),
(622,579,o),
(629,478,c),
(704,503,l),
(690,629,o),
(600,708,o),
(456,708,cs),
(269,708,o),
(106,560,o),
(64,349,cs)
);
},
{
closed = 1;
nodes = (
(623,908,l),
(559,908,l),
(469,843,l),
(403,908,l),
(340,908,l),
(430,788,l),
(484,788,l)
);
}
);
width = 720;
},
{
layerId = "5704134F-6EB5-4790-9409-A43A14941BD5";
shapes = (
{
closed = 1;
nodes = (
(13,139,o),
(111,-10,o),
(296,-10,cs),
(390,-10,o),
(461,35,o),
(504,79,c),
(491,0,l),
(644,0,l),
(723,396,l),
(377,396,l),
(350,261,l),
(520,261,l),
(519,256,ls),
(506,190,o),
(438,137,o),
(343,137,cs),
(253,137,o),
(207,224,o),
(232,350,cs),
(260,489,o),
(340,562,o),
(439,562,cs),
(518,562,o),
(569,520,o),
(565,466,c),
(736,518,l),
(724,629,o),
(616,711,o),
(469,711,cs),
(268,711,o),
(97,560,o),
(55,350,cs)
);
},
{
closed = 1;
nodes = (
(731,875,l),
(590,875,l),
(531,832,l),
(488,875,l),
(346,875,l),
(460,722,l),
(555,722,l)
);
}
);
width = 747;
}
);
unicode = 486;
},
{
glyphname = Gcircumflex;
layers = (
{
layerId = "0D856A57-F1E8-4B9B-A293-C2F37DF93F32";
shapes = (
{
closed = 1;
nodes = (
(26,138,o),
(130,-10,o),
(306,-10,cs),
(424,-10,o),
(518,40,o),
(585,138,c),
(558,0,l),
(594,0,l),
(663,344,l),
(384,344,l),
(378,309,l),
(618,309,l),
(611,274,ls),
(579,114,o),
(446,25,o),
(319,25,cs),
(157,25,o),
(70,161,o),
(108,349,cs),
(144,531,o),
(285,669,o),
(444,669,cs),
(570,669,o),
(643,605,o),
(652,489,c),
(695,505,l),
(680,632,o),
(598,707,o),
(451,707,cs),
(269,707,o),
(110,560,o),
(68,349,cs)
);
},
{
closed = 1;
nodes = (
(455,919,l),
(329,810,l),
(367,810,l),
(469,883,l),
(540,810,l),
(579,810,l),
(495,919,l)
);
}
);
width = 712;
},
{
layerId = "4DCA89B8-DFE6-4DD8-9DE5-D8A3D5DAECAB";
shapes = (
{
closed = 1;
nodes = (
(22,138,o),
(125,-10,o),
(303,-10,cs),
(406,-10,o),
(492,32,o),
(554,103,c),
(553,0,l),
(606,0,l),
(677,357,l),
(382,357,l),
(369,291,l),
(592,291,l),
(588,270,ls),
(561,136,o),
(445,57,o),
(325,57,cs),
(181,57,o),
(105,179,o),
(139,349,cs),
(173,519,o),
(298,639,o),
(442,639,cs),
(554,639,o),
(622,579,o),
(629,478,c),
(704,503,l),
(690,629,o),
(600,708,o),
(456,708,cs),
(269,708,o),
(106,560,o),
(64,349,cs)
);
},
{
closed = 1;
nodes = (
(454,908,l),
(316,788,l),
(379,788,l),
(471,853,l),
(535,788,l),
(599,788,l),
(508,908,l)
);
}
);
width = 720;
},
{
layerId = "5704134F-6EB5-4790-9409-A43A14941BD5";
shapes = (
{
closed = 1;
nodes = (
(13,139,o),
(111,-10,o),
(296,-10,cs),
(390,-10,o),
(461,35,o),
(504,79,c),
(491,0,l),
(644,0,l),
(723,396,l),
(377,396,l),
(350,261,l),
(520,261,l),
(519,256,ls),
(506,190,o),
(438,137,o),
(343,137,cs),
(253,137,o),
(207,224,o),
(232,350,cs),
(260,489,o),
(340,562,o),
(439,562,cs),
(518,562,o),
(569,520,o),
(565,466,c),
(736,518,l),
(724,629,o),
(616,711,o),
(469,711,cs),
(268,711,o),
(97,560,o),
(55,350,cs)
);
},
{
closed = 1;
nodes = (
(453,875,l),
(278,722,l),
(420,722,l),
(480,764,l),
(522,722,l),
(663,722,l),
(548,875,l)
);
}
);
width = 747;
}
);
unicode = 284;
},
